{
.appVersion = "1350";
copyright = "Copyright © 2018 by IKIMOJI. All rights reserved.";
customParameters = (
{
name = glyphOrder;
value = (
.notdef,
.vert,
space
);
},
{
name = ROS;
value = "Adobe-Identity-0";
},
{
name = localizedFamilyName;
value = "Japanese;あおぼし";
},
{
name = vendorID;
value = IKMJ;
}
);
date = "2020-03-15 14:06:21 +0000";
designer = IKIMOJI;
familyName = aoboshi;
featurePrefixes = (
{
automatic = 1;
code = "languagesystem DFLT dflt;\012";
name = Languagesystems;
}
);
features = (
{
automatic = 1;
code = "feature sups;\012feature frac;\012feature ordn;\012feature onum;\012feature fwid;\012feature vert;\012feature vkna;\012feature vrt2;\012feature salt;\012feature ss01;\012";
name = aalt;
},
{
automatic = 1;
code = "lookup ccmp_Other_1 {\012	@CombiningTopAccents = [acutecomb circumflexcomb dieresiscomb dotaccentcomb gravecomb ringcomb tildecomb];\012	@CombiningNonTopAccents = [cedillacomb];\012	sub [i]' @CombiningTopAccents by [idotless];\012	sub [i]' @CombiningNonTopAccents @CombiningTopAccents by [idotless];\012} ccmp_Other_1;\012";
name = ccmp;
},
{
automatic = 1;
code = "sub one by onesuperior;\012sub two by twosuperior;\012sub three by threesuperior;\012sub four by foursuperior;\012";
name = sups;
},
{
automatic = 1;
code = "sub one slash four by onequarter;\012sub one slash two by onehalf;\012sub three slash four by threequarters;\012";
name = frac;
},
{
automatic = 1;
code = "sub [zero one two three four five six seven eight nine] [A a]' by ordfeminine;\012sub [zero one two three four five six seven eight nine] [O o]' by ordmasculine;\012";
name = ordn;
},
{
automatic = 1;
code = "sub zero by zero.osf;\012sub one by one.osf;\012sub two by two.osf;\012sub three by three.osf;\012sub four by four.osf;\012sub five by five.osf;\012sub six by six.osf;\012sub seven by seven.osf;\012sub eight by eight.osf;\012sub nine by nine.osf;\012";
name = onum;
},
{
automatic = 1;

glyphs = (
{
glyphname = .notdef;
lastChange = "2020-12-20 14:49:35 +0000";
layers = (
{
layerId = "D36B0F94-A848-4C2C-9ADF-F92FCBE7F4F5";
paths = (
{
closed = 1;
nodes = (
"600 60 LINE",
"600 660 LINE",
"0 660 LINE",
"0 60 LINE"
);
},
{
closed = 1;
nodes = (
"65 595 LINE",
"535 595 LINE",
"535 125 LINE",
"65 125 LINE"
);
},
{
closed = 1;
nodes = (
"537 80 LINE",
"580 123 LINE",
"64 640 LINE",
"21 597 LINE"
);
},
{
closed = 1;
nodes = (
"21 123 LINE",
"64 80 LINE",
"581 597 LINE",
"538 640 LINE"
);
}
);
width = 600;
}
);
},
{
glyphname = A;
lastChange = "2020-03-13 12:35:02 +0000";
layers = (
{
hints = (
{
origin = "{0, 4}";
target = "{0, 5}";
scale = "{1.1508, 1}";
type = Cap;
name = _cap.serf2;
options = 3;
},
{
origin = "{0, 0}";
scale = "{0.8, 1}";
type = Corner;
name = _corner.serfLeft2;
options = 1;
},
{
origin = "{0, 2}";
scale = "{1.1, 1}";
type = Corner;
name = _corner.serfRight2;
},
{
origin = "{0, 3}";
type = Corner;
name = _corner.serfLeft0;
options = 1;
},
{
origin = "{0, 6}";
type = Corner;
name = _corner.serfRight0;
}
);
layerId = "D36B0F94-A848-4C2C-9ADF-F92FCBE7F4F5";
paths = (
{
closed = 1;
nodes = (
"173 0 LINE",
"406 594 LINE",
"639 0 LINE",
"795 0 LINE",
"479 750 LINE",
"334 750 LINE",
"22 0 LINE"
);
},
{
closed = 1;
nodes = (
"615 178 LINE",
"615 293 LINE",
"180 293 LINE",
"180 178 LINE"
);
}
);
width = 817;
},
{
associatedMasterId = "D36B0F94-A848-4C2C-9ADF-F92FCBE7F4F5";
hints = (
{
origin = "{1, 4}";
target = "{1, 5}";
scale = "{1.1508, 1}";
type = Cap;
name = _cap.serf2;
options = 3;
},
{
origin = "{1, 0}";
scale = "{0.8, 1}";
type = Corner;
name = _corner.serfLeft2;
options = 1;
},
{
origin = "{1, 2}";
scale = "{1.1, 1}";
type = Corner;
name = _corner.serfRight2;
},
{
origin = "{1, 3}";
type = Corner;
name = _corner.serfLeft0;
options = 1;
},
{
origin = "{1, 6}";
type = Corner;
name = _corner.serfRight0;
}
);
layerId = "39F6D4F3-C839-423F-913E-26F04471A492";
name = "Feb 15 20, 17:24";
paths = (
{
closed = 1;
nodes = (
"660 188 LINE",
"660 303 LINE",
"225 303 LINE",
"225 188 LINE"
);
},
{
closed = 1;
nodes = (
"178 0 LINE",
"450 585 LINE",
"724 0 LINE",
"880 0 LINE",
"526 750 LINE",
"381 750 LINE",
"27 0 LINE"
);
}
);
width = 907;
}
);
unicode = 0041;
},
{
glyphname = AE;
lastChange = "2020-03-13 12:35:26 +0000";
layers = (
{
hints = (
{
origin = "{0, 0}";
scale = "{0.9365, 1}";
type = Cap;
name = _cap.serf;
options = 3;
},
{
origin = "{1, 2}";
type = Corner;
name = _corner.serfLeft;
},
{
origin = "{1, 3}";
type = Corner;
name = _corner.serfRight;
},
{
origin = "{2, 0}";
scale = "{0.9365, 1}";
type = Cap;
name = _cap.serf;
options = 3;
},
{
origin = "{3, 0}";
scale = "{0.92857, 1}";
type = Cap;
name = _cap.serf;
options = 3;
},
{
origin = "{5, 0}";
scale = "{0.8, 1}";
type = Corner;
name = _corner.serfLeft2;
options = 1;
},
{
origin = "{5, 1}";
scale = "{1.1508, 1}";
type = Cap;
name = _cap.serf2;
options = 3;
},
{
origin = "{5, 3}";
type = Corner;
name = _corner.serfRight0;
}
);
layerId = "D36B0F94-A848-4C2C-9ADF-F92FCBE7F4F5";
paths = (
{
closed = 1;
nodes = (
"1017 1 LINE",
"1017 119 LINE",
"578 119 LINE",
"578 1 LINE"
);
},
{
closed = 1;
nodes = (
"629 1 LINE",
"629 750 LINE",
"500 750 LINE",
"500 1 LINE"
);
},
{
closed = 1;
nodes = (
"942 339 LINE",
"942 457 LINE",
"564 457 LINE",
"564 339 LINE"
);
},
{
closed = 1;
nodes = (
"991 633 LINE",
"991 750 LINE",
"532 750 LINE",
"532 633 LINE"
);
},
{
closed = 1;
nodes = (
"605 178 LINE",
"605 293 LINE",
"230 293 LINE",
"230 178 LINE"
);
},
{
closed = 1;
nodes = (
"173 0 LINE",
"569 750 LINE",
"424 750 LINE",
"22 0 LINE"
);
}
);
width = 1037;
}
);
leftMetricsKey = A;
rightMetricsKey = E;
unicode = 00C6;
},
{
glyphname = B;
lastChange = "2020-03-13 12:36:51 +0000";
layers = (
{
hints = (
{
origin = "{1, 2}";
type = Corner;
name = _corner.serfLeft;
},
{
origin = "{1, 3}";
type = Corner;
name = _corner.serfRight;
}
);
layerId = "D36B0F94-A848-4C2C-9ADF-F92FCBE7F4F5";
paths = (
{
closed = 1;
nodes = (
"367 0 LINE SMOOTH",
"526 0 OFFCURVE",
"609 107 OFFCURVE",
"609 219 CURVE SMOOTH",
"609 334 OFFCURVE",
"524 409 OFFCURVE",
"464 428 CURVE",
"494 460 OFFCURVE",
"508 501 OFFCURVE",
"508 550 CURVE SMOOTH",
"508 668 OFFCURVE",
"417 750 OFFCURVE",
"281 750 CURVE SMOOTH",
"110 750 LINE",
"110 632 LINE",
"265 632 LINE SMOOTH",
"331 632 OFFCURVE",
"374 593 OFFCURVE",
"374 548 CURVE SMOOTH",
"374 496 OFFCURVE",
"355 455 OFFCURVE",
"265 455 CURVE SMOOTH",
"110 455 LINE",
"110 337 LINE",
"355 337 LINE SMOOTH",
"456 337 OFFCURVE",
"479 270 OFFCURVE",
"479 223 CURVE SMOOTH",
"479 176 OFFCURVE",
"450 118 OFFCURVE",
"338 118 CURVE SMOOTH",
"110 118 LINE",
"110 0 LINE"
);
},
{
closed = 1;
nodes = (
"202 0 LINE",
"202 750 LINE",
"72 750 LINE",
"72 0 LINE"
);
}
);
width = 649;
}
);
leftMetricsKey = I;
unicode = 0042;
},
{
glyphname = C;
lastChange = "2020-03-13 12:34:05 +0000";
layers = (
{
background = {
paths = (
{
closed = 1;
nodes = (
"637 -10 OFFCURVE",
"813 166 OFFCURVE",
"813 382 CURVE SMOOTH",
"813 598 OFFCURVE",
"637 774 OFFCURVE",
"421 774 CURVE SMOOTH",
"205 774 OFFCURVE",
"29 598 OFFCURVE",
"29 382 CURVE SMOOTH",
"29 166 OFFCURVE",
"205 -10 OFFCURVE",
"421 -10 CURVE SMOOTH"
);
}
);
};
hints = (
{
origin = "{0, 15}";
target = "{0, 16}";
scale = "{1.03373, 1}";
type = Cap;
name = _cap.serf;
options = 3;
},
{
origin = "{0, 2}";
target = "{0, 3}";
scale = "{1.14929, 1}";
type = Cap;
name = _cap.serf;
options = 3;
}
);
layerId = "D36B0F94-A848-4C2C-9ADF-F92FCBE7F4F5";
paths = (
{
closed = 1;
nodes = (
"571 -10 OFFCURVE",
"654 45 OFFCURVE",
"741 145 CURVE",
"630 238 LINE",
"576 172 OFFCURVE",
"520 129 OFFCURVE",
"421 129 CURVE SMOOTH",
"288 129 OFFCURVE",
"169 236 OFFCURVE",
"169 380 CURVE SMOOTH",
"169 528 OFFCURVE",
"279 638 OFFCURVE",
"417 638 CURVE SMOOTH",
"523 638 OFFCURVE",
"580 593 OFFCURVE",
"636 533 CURVE",
"738 614 LINE",
"661 698 OFFCURVE",
"576 771 OFFCURVE",
"415 771 CURVE SMOOTH",
"206 771 OFFCURVE",
"30 618 OFFCURVE",
"30 380 CURVE SMOOTH",
"30 155 OFFCURVE",
"204 -10 OFFCURVE",
"421 -10 CURVE SMOOTH"
);
}
);
width = 765;
},
{
associatedMasterId = "D36B0F94-A848-4C2C-9ADF-F92FCBE7F4F5";
background = {
paths = (
{
closed = 1;
nodes = (
"662 -10 OFFCURVE",
"838 166 OFFCURVE",
"838 382 CURVE SMOOTH",
"838 598 OFFCURVE",
"662 774 OFFCURVE",
"446 774 CURVE SMOOTH",
"230 774 OFFCURVE",
"54 598 OFFCURVE",
"54 382 CURVE SMOOTH",
"54 166 OFFCURVE",
"230 -10 OFFCURVE",
"446 -10 CURVE SMOOTH"
);
}
);
};
hints = (
{
origin = "{0, 15}";
target = "{0, 16}";
scale = "{1.10685, 1}";
type = Cap;
name = _cap.serf;
options = 3;
},
{
origin = "{0, 2}";
target = "{0, 3}";
scale = "{1.14322, 1}";
type = Cap;
name = _cap.serf;
options = 3;
}
);
layerId = "FDD36EB5-A02D-4DD6-A36A-C72BF606E9AC";
name = "Feb 15 20, 17:42";
paths = (
{
closed = 1;
nodes = (
"596 -10 OFFCURVE",
"679 45 OFFCURVE",
"766 145 CURVE",
"655 238 LINE",
"601 172 OFFCURVE",
"546 134 OFFCURVE",
"447 134 CURVE SMOOTH",
"314 134 OFFCURVE",
"199 236 OFFCURVE",
"199 380 CURVE SMOOTH",
"199 528 OFFCURVE",
"304 636 OFFCURVE",
"442 636 CURVE SMOOTH",
"539 636 OFFCURVE",
"598 587 OFFCURVE",
"654 527 CURVE",
"763 614 LINE",
"686 698 OFFCURVE",
"620 771 OFFCURVE",
"440 771 CURVE SMOOTH",
"231 771 OFFCURVE",
"55 618 OFFCURVE",
"55 380 CURVE SMOOTH",
"55 155 OFFCURVE",
"229 -10 OFFCURVE",
"446 -10 CURVE SMOOTH"
);
}
);
width = 841;
}
);
leftMetricsKey = O;
unicode = 0043;
},
{
glyphname = D;
lastChange = "2020-03-13 12:36:51 +0000";
layers = (
{
hints = (
{
origin = "{1, 3}";
type = Corner;
name = _corner.serfRight;
},
{
origin = "{1, 2}";
type = Corner;
name = _corner.serfLeft;
}
);
layerId = "D36B0F94-A848-4C2C-9ADF-F92FCBE7F4F5";
paths = (
{
closed = 1;
nodes = (
"320 0 LINE SMOOTH",
"543 0 OFFCURVE",
"701 139 OFFCURVE",
"701 369 CURVE SMOOTH",
"701 609 OFFCURVE",
"556 750 OFFCURVE",
"332 750 CURVE SMOOTH",
"164 750 LINE",
"164 632 LINE",
"313 632 LINE SMOOTH",
"499 632 OFFCURVE",
"574 520 OFFCURVE",
"574 371 CURVE SMOOTH",
"574 221 OFFCURVE",
"478 118 OFFCURVE",
"301 118 CURVE SMOOTH",
"164 118 LINE",
"164 0 LINE"
);
},
{
closed = 1;
nodes = (
"203 0 LINE",
"203 750 LINE",
"72 750 LINE",
"72 0 LINE"
);
}
);
width = 731;
},
{
associatedMasterId = "D36B0F94-A848-4C2C-9ADF-F92FCBE7F4F5";
hints = (
{
origin = "{0, 3}";
type = Corner;
name = _corner.serfRight;
},
{
origin = "{0, 2}";
type = Corner;
name = _corner.serfLeft;
}
);
layerId = "E9520761-786D-41F5-97F7-B52DB32813CE";
name = "Feb 15 20, 17:38";
paths = (
{
closed = 1;
nodes = (
"204 0 LINE",
"204 750 LINE",
"73 750 LINE",
"73 0 LINE"
);
},
{
closed = 1;
nodes = (
"438 0 LINE SMOOTH",
"671 0 OFFCURVE",
"822 135 OFFCURVE",
"822 365 CURVE SMOOTH",
"822 605 OFFCURVE",
"662 750 OFFCURVE",
"438 750 CURVE SMOOTH",
"165 750 LINE",
"165 632 LINE",
"419 632 LINE SMOOTH",
"605 632 OFFCURVE",
"695 515 OFFCURVE",
"695 366 CURVE SMOOTH",
"695 216 OFFCURVE",
"606 118 OFFCURVE",
"419 118 CURVE SMOOTH",
"165 118 LINE",
"165 0 LINE"
);
}
);
width = 850;
}
);
leftMetricsKey = I;
rightMetricsKey = O;
unicode = 0044;
},
{
glyphname = Eth;
lastChange = "2020-08-30 10:00:41 +0000";
layers = (
{
components = (
{
name = D;
transform = "{1, 0, 0, 1, 16, 0}";
}
);
layerId = "D36B0F94-A848-4C2C-9ADF-F92FCBE7F4F5";
paths = (
{
closed = 1;
nodes = (
"20 327 LINE",
"353 327 LINE",
"353 438 LINE",
"20 438 LINE"
);
}
);
width = 747;
}
);
rightMetricsKey = O;
unicode = 00D0;
},
{
glyphname = E;
lastChange = "2020-03-13 12:36:51 +0000";
layers = (
{
hints = (
{
origin = "{2, 0}";
target = "{2, 1}";
scale = "{0.9365, 1}";
type = Cap;
name = _cap.serf;
options = 3;
},
{
origin = "{3, 0}";
target = "{3, 1}";
scale = "{0.9365, 1}";
type = Cap;
name = _cap.serf;
options = 3;
},
{
origin = "{0, 0}";
target = "{0, 1}";
scale = "{0.9365, 1}";
type = Cap;
name = _cap.serf;
options = 3;
},
{
origin = "{1, 3}";
type = Corner;
name = _corner.serfRight;
},
{
origin = "{1, 2}";
type = Corner;
name = _corner.serfLeft;
}
);
layerId = "D36B0F94-A848-4C2C-9ADF-F92FCBE7F4F5";
paths = (
{
closed = 1;
nodes = (
"589 1 LINE",
"589 119 LINE",
"150 119 LINE",
"150 1 LINE"
);
},
{
closed = 1;
nodes = (
"201 1 LINE",
"201 751 LINE",
"72 751 LINE",
"72 1 LINE"
);
},
{
closed = 1;
nodes = (
"514 339 LINE",
"514 457 LINE",
"136 457 LINE",
"136 339 LINE"
);
},
{
closed = 1;
nodes = (
"563 633 LINE",
"563 751 LINE",
"104 751 LINE",
"104 633 LINE"
);
}
);
width = 609;
}
);
leftMetricsKey = I;
unicode = 0045;
},
{
glyphname = F;
lastChange = "2020-03-13 12:36:51 +0000";
layers = (
{
hints = (
{
origin = "{1, 0}";
target = "{1, 1}";
scale = "{0.9365, 1}";
type = Cap;
name = _cap.serf;
options = 3;
},
{
origin = "{2, 0}";
target = "{2, 1}";
scale = "{0.9365, 1}";
type = Cap;
name = _cap.serf;
options = 3;
},
{
origin = "{0, 2}";
type = Corner;
name = _corner.serfLeft;
},
{
origin = "{0, 3}";
target = "{0, 0}";
scale = "{1.0317, 1}";
type = Cap;
name = _cap.serf;
options = 3;
}
);
layerId = "D36B0F94-A848-4C2C-9ADF-F92FCBE7F4F5";
paths = (
{
closed = 1;
nodes = (
"203 0 LINE",
"203 750 LINE",
"73 750 LINE",
"73 0 LINE"
);
},
{
closed = 1;
nodes = (
"495 337 LINE",
"495 455 LINE",
"135 455 LINE",
"135 337 LINE"
);
},
{
closed = 1;
nodes = (
"557 632 LINE",
"557 750 LINE",
"135 750 LINE",
"135 632 LINE"
);
}
);
width = 577;
}
);
leftMetricsKey = I;
rightMetricsKey = E;
unicode = 0046;
},
{
glyphname = G;
lastChange = "2020-03-13 12:34:05 +0000";
layers = (
{
background = {
paths = (
{
closed = 1;
nodes = (
"651 -14 OFFCURVE",
"829 164 OFFCURVE",
"829 383 CURVE SMOOTH",
"829 601 OFFCURVE",
"651 779 OFFCURVE",
"433 779 CURVE SMOOTH",
"214 779 OFFCURVE",
"36 601 OFFCURVE",
"36 383 CURVE SMOOTH",
"36 164 OFFCURVE",
"214 -14 OFFCURVE",
"433 -14 CURVE SMOOTH"
);
}
);
};
hints = (
{
origin = "{1, 2}";
target = "{1, 3}";
scale = "{0.9365, 1}";
type = Cap;
name = _cap.serf;
options = 3;
},
{
origin = "{0, 19}";
target = "{0, 20}";
scale = "{1.10557, 1}";
type = Cap;
name = _cap.serf;
options = 3;
},
{
origin = "{1, 1}";
type = Corner;
name = _corner.serfRight;
},
{
origin = "{0, 2}";
scale = "{1.25, 1}";
type = Corner;
name = _corner.serfLeft2;
options = 1;
}
);
layerId = "D36B0F94-A848-4C2C-9ADF-F92FCBE7F4F5";
paths = (
{
closed = 1;
nodes = (
"495 -10 OFFCURVE",
"631 10 OFFCURVE",
"773 115 CURVE",
"740 64 LINE",
"740 440 LINE",
"611 440 LINE",
"611 121 LINE",
"675 229 LINE",
"626 177 OFFCURVE",
"544 121 OFFCURVE",
"407 121 CURVE SMOOTH",
"267 121 OFFCURVE",
"170 237 OFFCURVE",
"170 383 CURVE SMOOTH",
"170 548 OFFCURVE",
"292 646 OFFCURVE",
"431 646 CURVE SMOOTH",
"504 646 OFFCURVE",
"569 609 OFFCURVE",
"623 554 CURVE",
"722 652 LINE",
"642 718 OFFCURVE",
"555 772 OFFCURVE",
"430 772 CURVE SMOOTH",
"212 772 OFFCURVE",
"30 617 OFFCURVE",
"30 383 CURVE SMOOTH",
"30 163 OFFCURVE",
"190 -10 OFFCURVE",
"406 -10 CURVE SMOOTH"
);
},
{
closed = 1;
nodes = (
"740 322 LINE",
"740 440 LINE",
"400 440 LINE",
"400 322 LINE"
);
}
);
width = 805;
}
);
leftMetricsKey = O;
unicode = 0047;
},
{
glyphname = H;
lastChange = "2020-03-13 12:36:51 +0000";
layers = (
{
hints = (
{
origin = "{1, 1}";
target = "{1, 2}";
scale = "{1.1111, 1}";
type = Cap;
name = _cap.serf;
options = 3;
},
{
origin = "{0, 1}";
target = "{0, 2}";
scale = "{1.11111, 1}";
type = Cap;
name = _cap.serf;
options = 3;
},
{
origin = "{0, 3}";
target = "{0, 0}";
scale = "{1.11111, 1}";
type = Cap;
name = _cap.serf;
options = 3;
},
{
origin = "{1, 3}";
target = "{1, 0}";
scale = "{1.1111, 1}";
type = Cap;
name = _cap.serf;
options = 3;
}
);
layerId = "D36B0F94-A848-4C2C-9ADF-F92FCBE7F4F5";
paths = (
{
closed = 1;
nodes = (
"690 0 LINE",
"690 750 LINE",
"550 750 LINE",
"550 0 LINE"
);
},
{
closed = 1;
nodes = (
"214 0 LINE",
"214 750 LINE",
"74 750 LINE",
"74 0 LINE"
);
},
{
closed = 1;
nodes = (
"590 332 LINE",
"590 457 LINE",
"181 457 LINE",
"181 332 LINE"
);
}
);
width = 764;
}
);
leftMetricsKey = I;
rightMetricsKey = I;
unicode = 0048;
},
{
glyphname = I;
lastChange = "2020-03-13 12:36:31 +0000";
layers = (
{
hints = (
{
origin = "{0, 1}";
target = "{0, 2}";
scale = "{1.07937, 1}";
type = Cap;
name = _cap.serf;
options = 3;
},
{
origin = "{0, 3}";
target = "{0, 0}";
scale = "{1.07937, 1}";
type = Cap;
name = _cap.serf;
options = 3;
}
);
layerId = "D36B0F94-A848-4C2C-9ADF-F92FCBE7F4F5";
paths = (
{
closed = 1;
nodes = (
"210 0 LINE",
"210 750 LINE",
"74 750 LINE",
"74 0 LINE"
);
}
);
width = 284;
}
);
unicode = 0049;
},
{
glyphname = J;
lastChange = "2020-03-13 12:36:51 +0000";
layers = (
{
hints = (
{
origin = "{0, 11}";
target = "{0, 12}";
scale = "{0.98182, 1}";
type = Cap;
name = _cap.serf;
options = 3;
},
{
origin = "{0, 3}";
target = "{0, 4}";
scale = "{1.0397, 1}";
type = Cap;
name = _cap.serf;
options = 3;
}
);
layerId = "D36B0F94-A848-4C2C-9ADF-F92FCBE7F4F5";
paths = (
{
closed = 1;
nodes = (
"326 -11 OFFCURVE",
"400 66 OFFCURVE",
"400 211 CURVE SMOOTH",
"400 750 LINE",
"269 750 LINE",
"269 215 LINE SMOOTH",
"269 150 OFFCURVE",
"231 117 OFFCURVE",
"194 117 CURVE SMOOTH",
"155 117 OFFCURVE",
"143 124 OFFCURVE",
"92 163 CURVE",
"22 61 LINE",
"91 10 OFFCURVE",
"141 -11 OFFCURVE",
"205 -11 CURVE SMOOTH"
);
}
);
width = 473;
}
);
rightMetricsKey = I;
unicode = 004A;
},
{
glyphname = K;
lastChange = "2020-08-30 10:00:41 +0000";
layers = (
{
hints = (
{
origin = "{1, 1}";
target = "{1, 2}";
scale = "{1.01587, 1}";
type = Cap;
name = _cap.serf;
options = 3;
},
{
origin = "{1, 3}";
target = "{1, 0}";
scale = "{1.01587, 1}";
type = Cap;
name = _cap.serf;
options = 3;
},
{
origin = "{2, 0}";
scale = "{0.5, 1}";
type = Corner;
name = _corner.serfLeft0;
options = 1;
},
{
origin = "{2, 3}";
scale = "{1.25, 1}";
type = Corner;
name = _corner.serfRight2;
},
{
origin = "{0, 2}";
type = Corner;
name = _corner.serfLeft2;
options = 1;
},
{
origin = "{0, 1}";
type = Corner;
name = _corner.serfRight0;
}
);
layerId = "D36B0F94-A848-4C2C-9ADF-F92FCBE7F4F5";
paths = (
{
closed = 1;
nodes = (
"162 244 LINE",
"663 750 LINE",
"490 750 LINE",
"105 362 LINE",
"105 244 LINE"
);
},
{
closed = 1;
nodes = (
"200 0 LINE",
"200 750 LINE",
"72 750 LINE",
"72 0 LINE"
);
},
{
closed = 1;
nodes = (
"697 0 LINE",
"282 460 LINE",
"183 371 LINE",
"517 0 LINE"
);
}
);
width = 708;
}
);
leftMetricsKey = I;
unicode = 004B;
},
{
glyphname = L;
lastChange = "2020-08-30 10:00:41 +0000";
layers = (
{
hints = (
{
origin = "{0, 1}";
target = "{0, 2}";
scale = "{1.06349, 1}";
type = Cap;
name = _cap.serf;
options = 3;
},
{
origin = "{1, 0}";
target = "{1, 1}";
scale = "{0.96825, 1}";
type = Cap;
name = _cap.serf;
options = 3;
},
{
origin = "{0, 3}";
type = Corner;
name = _corner.serfRight;
}
);
layerId = "D36B0F94-A848-4C2C-9ADF-F92FCBE7F4F5";
paths = (
{
closed = 1;
nodes = (
"207 0 LINE",
"207 750 LINE",
"73 750 LINE",
"73 0 LINE"
);
},
{
closed = 1;
nodes = (
"556 0 LINE",
"556 122 LINE",
"118 122 LINE",
"118 0 LINE"
);
}
);
width = 586;
}
);
leftMetricsKey = I;
unicode = 004C;
},
{
glyphname = M;
lastChange = "2020-08-30 10:00:41 +0000";
layers = (
{
hints = (
{
origin = "{1, 3}";
target = "{1, 0}";
scale = "{1.03175, 1}";
type = Cap;
name = _cap.serf;
options = 3;
},
{
origin = "{2, 3}";
target = "{2, 0}";
scale = "{1.02381, 1}";
type = Cap;
name = _cap.serf;
options = 3;
},
{
origin = "{1, 2}";
type = Corner;
name = _corner.serfLeft;
},
{
origin = "{2, 1}";
type = Corner;
name = _corner.serfRight;
},
{
origin = "{0, 1}";
type = Corner;
name = _corner.serfLeft2;
options = 1;
},
{
origin = "{0, 3}";
type = Corner;
name = _corner.serfRight2;
}
);
layerId = "D36B0F94-A848-4C2C-9ADF-F92FCBE7F4F5";
paths = (
{
closed = 1;
nodes = (
"855 750 LINE",
"718 750 LINE",
"496 241 LINE",
"277 750 LINE",
"137 750 LINE",
"495 -38 LINE"
);
},
{
closed = 1;
nodes = (
"203 0 LINE",
"203 750 LINE",
"73 750 LINE",
"73 0 LINE"
);
},
{
closed = 1;
nodes = (
"917 0 LINE",
"917 750 LINE",
"788 750 LINE",
"788 0 LINE"
);
}
);
width = 990;
},
{
associatedMasterId = "D36B0F94-A848-4C2C-9ADF-F92FCBE7F4F5";
hints = (
{
origin = "{1, 3}";
target = "{1, 0}";
scale = "{1.07937, 1}";
type = Cap;
name = _cap.serf;
options = 3;
},
{
origin = "{2, 3}";
target = "{2, 0}";
scale = "{1.06349, 1}";
type = Cap;
name = _cap.serf;
options = 3;
},
{
origin = "{1, 2}";
type = Corner;
name = _corner.serfLeft;
},
{
origin = "{2, 1}";
type = Corner;
name = _corner.serfRight;
},
{
origin = "{0, 1}";
type = Corner;
name = _corner.serfLeft2;
options = 1;
},
{
origin = "{0, 3}";
type = Corner;
name = _corner.serfRight2;
}
);
layerId = "65DB6A58-AA00-4C34-BA8A-CE3650B712C8";
name = "Mar 14 20, 13:44";
paths = (
{
closed = 1;
nodes = (
"856 750 LINE",
"719 750 LINE",
"497 241 LINE",
"278 750 LINE",
"138 750 LINE",
"496 -38 LINE"
);
},
{
closed = 1;
nodes = (
"210 0 LINE",
"210 750 LINE",
"74 750 LINE",
"74 0 LINE"
);
},
{
closed = 1;
nodes = (
"918 0 LINE",
"918 750 LINE",
"783 750 LINE",
"783 0 LINE"
);
}
);
width = 990;
}
);
leftMetricsKey = I;
rightMetricsKey = I;
unicode = 004D;
},
{
glyphname = N;
lastChange = "2020-08-30 10:00:41 +0000";
layers = (
{
hints = (
{
origin = "{1, 3}";
target = "{1, 0}";
scale = "{1.07143, 1}";
type = Cap;
name = _cap.serf;
options = 3;
},
{
origin = "{2, 1}";
target = "{2, 2}";
scale = "{1.06349, 1}";
type = Cap;
name = _cap.serf;
options = 3;
},
{
origin = "{1, 2}";
type = Corner;
name = _corner.serfLeft;
},
{
origin = "{2, 0}";
type = Corner;
name = _corner.serfLeft;
},
{
origin = "{0, 5}";
scale = "{1.2, 1}";
type = Corner;
name = _corner.serfRight2;
},
{
origin = "{0, 2}";
scale = "{1.2, 1}";
type = Corner;
name = _corner.serfRight2;
}
);
layerId = "D36B0F94-A848-4C2C-9ADF-F92FCBE7F4F5";
paths = (
{
closed = 1;
nodes = (
"657 0 LINE",
"670 91 LINE",
"195 750 LINE",
"121 750 LINE",
"107 663 LINE",
"587 0 LINE"
);
},
{
closed = 1;
nodes = (
"209 0 LINE",
"209 750 LINE",
"74 750 LINE",
"74 0 LINE"
);
},
{
closed = 1;
nodes = (
"703 0 LINE",
"703 750 LINE",
"569 750 LINE",
"588 0 LINE"
);
}
);
width = 776;
}
);
leftMetricsKey = I;
rightMetricsKey = I;
unicode = 004E;
},
{
glyphname = O;
lastChange = "2020-03-13 12:33:50 +0000";
layers = (
{
background = {
paths = (
{
closed = 1;
nodes = (
"645 -17 OFFCURVE",
"821 159 OFFCURVE",
"821 376 CURVE SMOOTH",
"821 593 OFFCURVE",
"645 769 OFFCURVE",
"428 769 CURVE SMOOTH",
"211 769 OFFCURVE",
"35 593 OFFCURVE",
"35 376 CURVE SMOOTH",
"35 159 OFFCURVE",
"211 -17 OFFCURVE",
"428 -17 CURVE SMOOTH"
);
}
);
};
layerId = "D36B0F94-A848-4C2C-9ADF-F92FCBE7F4F5";
paths = (
{
closed = 1;
nodes = (
"681 -16 OFFCURVE",
"825 180 OFFCURVE",
"825 367 CURVE SMOOTH",
"825 580 OFFCURVE",
"676 768 OFFCURVE",
"430 768 CURVE SMOOTH",
"175 768 OFFCURVE",
"30 562 OFFCURVE",
"30 367 CURVE SMOOTH",
"30 170 OFFCURVE",
"189 -16 OFFCURVE",
"430 -16 CURVE SMOOTH"
);
},
{
closed = 1;
nodes = (
"305 116 OFFCURVE",
"168 204 OFFCURVE",
"168 367 CURVE SMOOTH",
"168 519 OFFCURVE",
"274 637 OFFCURVE",
"426 637 CURVE SMOOTH",
"594 637 OFFCURVE",
"692 519 OFFCURVE",
"692 367 CURVE SMOOTH",
"692 218 OFFCURVE",
"582 116 OFFCURVE",
"431 116 CURVE SMOOTH"
);
}
);
width = 855;
}
);
unicode = 004F;
},
{
glyphname = Oslash;
lastChange = "2020-02-21 13:21:06 +0000";
layers = (
{
layerId = "D36B0F94-A848-4C2C-9ADF-F92FCBE7F4F5";
paths = (
{
closed = 1;
nodes = (
"675 -16 OFFCURVE",
"819 180 OFFCURVE",
"819 367 CURVE SMOOTH",
"819 580 OFFCURVE",
"670 768 OFFCURVE",
"424 768 CURVE SMOOTH",
"169 768 OFFCURVE",
"24 562 OFFCURVE",
"24 367 CURVE SMOOTH",
"24 170 OFFCURVE",
"183 -16 OFFCURVE",
"424 -16 CURVE SMOOTH"
);
},
{
closed = 1;
nodes = (
"299 116 OFFCURVE",
"162 204 OFFCURVE",
"162 367 CURVE SMOOTH",
"162 519 OFFCURVE",
"268 637 OFFCURVE",
"420 637 CURVE SMOOTH",
"588 637 OFFCURVE",
"686 519 OFFCURVE",
"686 367 CURVE SMOOTH",
"686 218 OFFCURVE",
"576 116 OFFCURVE",
"425 116 CURVE SMOOTH"
);
},
{
closed = 1;
nodes = (
"10 21 LINE",
"67 -35 LINE",
"833 731 LINE",
"776 787 LINE"
);
}
);
width = 843;
}
);
unicode = 00D8;
},
{
glyphname = OE;
lastChange = "2020-03-13 12:34:05 +0000";
layers = (
{
hints = (
{
origin = "{1, 0}";
scale = "{0.9365, 1}";
type = Cap;
name = _cap.serf;
options = 3;
},
{
origin = "{3, 0}";
scale = "{0.9365, 1}";
type = Cap;
name = _cap.serf;
options = 3;
},
{
origin = "{4, 0}";
scale = "{0.92857, 1}";
type = Cap;
name = _cap.serf;
options = 3;
}
);
layerId = "D36B0F94-A848-4C2C-9ADF-F92FCBE7F4F5";
paths = (
{
closed = 1;
nodes = (
"503 1 LINE",
"503 119 LINE",
"409 119 LINE SMOOTH",
"293 119 OFFCURVE",
"160 211 OFFCURVE",
"160 367 CURVE SMOOTH",
"160 513 OFFCURVE",
"263 633 OFFCURVE",
"409 633 CURVE SMOOTH",
"554 633 LINE",
"554 750 LINE",
"409 750 LINE SMOOTH",
"168 750 OFFCURVE",
"30 554 OFFCURVE",
"30 367 CURVE SMOOTH",
"30 179 OFFCURVE",
"182 1 OFFCURVE",
"409 1 CURVE SMOOTH"
);
},
{
closed = 1;
nodes = (
"976 1 LINE",
"976 119 LINE",
"537 119 LINE",
"537 1 LINE"
);
},
{
closed = 1;
nodes = (
"588 1 LINE",
"588 750 LINE",
"459 750 LINE",
"459 1 LINE"
);
},
{
closed = 1;
nodes = (
"901 339 LINE",
"901 457 LINE",
"523 457 LINE",
"523 339 LINE"
);
},
{
closed = 1;
nodes = (
"950 633 LINE",
"950 750 LINE",
"491 750 LINE",
"491 633 LINE"
);
}
);
width = 996;
}
);
leftMetricsKey = O;
rightMetricsKey = E;
unicode = 0152;
},
{
glyphname = P;
lastChange = "2020-03-13 12:36:51 +0000";
layers = (
{
hints = (
{
origin = "{1, 3}";
target = "{1, 0}";
scale = "{1.0556, 1}";
type = Cap;
name = _cap.serf;
options = 3;
},
{
origin = "{1, 2}";
type = Corner;
name = _corner.serfLeft;
}
);
layerId = "D36B0F94-A848-4C2C-9ADF-F92FCBE7F4F5";
paths = (
{
closed = 1;
nodes = (
"380 298 LINE SMOOTH",
"506 298 OFFCURVE",
"629 371 OFFCURVE",
"629 523 CURVE SMOOTH",
"629 655 OFFCURVE",
"530 750 OFFCURVE",
"369 750 CURVE SMOOTH",
"122 750 LINE",
"122 629 LINE",
"389 629 LINE SMOOTH",
"457 629 OFFCURVE",
"505 581 OFFCURVE",
"505 530 CURVE SMOOTH",
"505 480 OFFCURVE",
"462 425 OFFCURVE",
"388 425 CURVE SMOOTH",
"122 425 LINE",
"122 298 LINE"
);
},
{
closed = 1;
nodes = (
"206 0 LINE",
"206 750 LINE",
"73 750 LINE",
"73 0 LINE"
);
}
);
width = 669;
}
);
leftMetricsKey = I;
rightMetricsKey = B;
unicode = 0050;
},
{
glyphname = Thorn;
lastChange = "2020-03-13 12:36:51 +0000";
layers = (
{
hints = (
{
origin = "{1, 3}";
scale = "{1.0556, 1}";
type = Cap;
name = _cap.serf;
options = 3;
},
{
origin = "{1, 1}";
target = "{1, 2}";
scale = "{1.0556, 1}";
type = Cap;
name = _cap.serf;
options = 3;
}
);
layerId = "D36B0F94-A848-4C2C-9ADF-F92FCBE7F4F5";
paths = (
{
closed = 1;
nodes = (
"380 148 LINE SMOOTH",
"506 148 OFFCURVE",
"629 221 OFFCURVE",
"629 373 CURVE SMOOTH",
"629 505 OFFCURVE",
"530 600 OFFCURVE",
"369 600 CURVE SMOOTH",
"122 600 LINE",
"122 479 LINE",
"389 479 LINE SMOOTH",
"457 479 OFFCURVE",
"505 431 OFFCURVE",
"505 380 CURVE SMOOTH",
"505 330 OFFCURVE",
"462 275 OFFCURVE",
"388 275 CURVE SMOOTH",
"122 275 LINE",
"122 148 LINE"
);
},
{
closed = 1;
nodes = (
"206 0 LINE",
"206 750 LINE",
"73 750 LINE",
"73 0 LINE"
);
}
);
width = 669;
}
);
leftMetricsKey = I;
rightMetricsKey = P;
unicode = 00DE;
},
{
glyphname = Q;
lastChange = "2020-03-14 04:47:38 +0000";
layers = (
{
background = {
paths = (
{
closed = 1;
nodes = (
"642 -17 OFFCURVE",
"818 159 OFFCURVE",
"818 376 CURVE SMOOTH",
"818 593 OFFCURVE",
"642 769 OFFCURVE",
"425 769 CURVE SMOOTH",
"208 769 OFFCURVE",
"32 593 OFFCURVE",
"32 376 CURVE SMOOTH",
"32 159 OFFCURVE",
"208 -17 OFFCURVE",
"425 -17 CURVE SMOOTH"
);
}
);
};
hints = (
{
origin = "{2, 1}";
target = "{2, 2}";
scale = "{1.03266, 1}";
type = Cap;
name = _cap.serf;
options = 3;
},
{
origin = "{2, 3}";
target = "{2, 0}";
scale = "{1.03284, 1}";
type = Cap;
name = _cap.serf;
options = 3;
}
);
layerId = "D36B0F94-A848-4C2C-9ADF-F92FCBE7F4F5";
paths = (
{
closed = 1;
nodes = (
"662 -15 OFFCURVE",
"816 201 OFFCURVE",
"816 369 CURVE SMOOTH",
"816 583 OFFCURVE",
"667 769 OFFCURVE",
"436 769 CURVE SMOOTH",
"189 769 OFFCURVE",
"30 583 OFFCURVE",
"30 369 CURVE SMOOTH",
"30 161 OFFCURVE",
"196 -15 OFFCURVE",
"431 -15 CURVE SMOOTH"
);
},
{
closed = 1;
nodes = (
"281 111 OFFCURVE",
"164 209 OFFCURVE",
"164 373 CURVE SMOOTH",
"164 531 OFFCURVE",
"277 648 OFFCURVE",
"434 648 CURVE SMOOTH",
"588 648 OFFCURVE",
"695 520 OFFCURVE",
"695 366 CURVE SMOOTH",
"695 224 OFFCURVE",
"579 111 OFFCURVE",
"434 111 CURVE SMOOTH"
);
},
{
closed = 1;
nodes = (
"819 78 LINE",
"523 352 LINE",
"432 259 LINE",
"729 -16 LINE"
);
}
);
width = 895;
},
{
associatedMasterId = "D36B0F94-A848-4C2C-9ADF-F92FCBE7F4F5";
background = {
paths = (
{
closed = 1;
nodes = (
"642 -17 OFFCURVE",
"818 159 OFFCURVE",
"818 376 CURVE SMOOTH",
"818 593 OFFCURVE",
"642 769 OFFCURVE",
"425 769 CURVE SMOOTH",
"208 769 OFFCURVE",
"32 593 OFFCURVE",
"32 376 CURVE SMOOTH",
"32 159 OFFCURVE",
"208 -17 OFFCURVE",
"425 -17 CURVE SMOOTH"
);
}
);
};
hints = (
{
origin = "{2, 1}";
target = "{2, 2}";
scale = "{1.0356, 1}";
type = Cap;
name = _cap.serf;
options = 3;
},
{
origin = "{2, 3}";
target = "{2, 0}";
scale = "{1.0365, 1}";
type = Cap;
name = _cap.serf;
options = 3;
}
);
layerId = "E0F0D4B8-DF5F-4DE8-BB8B-14C024B344B0";
name = "Mar 14 20, 13:47";
paths = (
{
closed = 1;
nodes = (
"682 -15 OFFCURVE",
"823 201 OFFCURVE",
"823 369 CURVE SMOOTH",
"823 583 OFFCURVE",
"667 769 OFFCURVE",
"436 769 CURVE SMOOTH",
"189 769 OFFCURVE",
"30 583 OFFCURVE",
"30 369 CURVE SMOOTH",
"30 151 OFFCURVE",
"186 -15 OFFCURVE",
"431 -15 CURVE SMOOTH"
);
},
{
closed = 1;
nodes = (
"280 113 OFFCURVE",
"168 209 OFFCURVE",
"168 373 CURVE SMOOTH",
"168 527 OFFCURVE",
"281 644 OFFCURVE",
"434 644 CURVE SMOOTH",
"588 644 OFFCURVE",
"694 522 OFFCURVE",
"694 368 CURVE SMOOTH",
"694 226 OFFCURVE",
"578 113 OFFCURVE",
"433 113 CURVE SMOOTH"
);
},
{
closed = 1;
nodes = (
"819 78 LINE",
"523 352 LINE",
"432 259 LINE",
"729 -16 LINE"
);
}
);
width = 895;
}
);
leftMetricsKey = O;
unicode = 0051;
},
{
glyphname = R;
lastChange = "2020-03-13 12:36:51 +0000";
layers = (
{
hints = (
{
origin = "{1, 3}";
target = "{1, 0}";
scale = "{1.0635, 1}";
type = Cap;
name = _cap.serf;
options = 3;
},
{
origin = "{1, 2}";
type = Corner;
name = _corner.serfLeft;
},
{
origin = "{2, 3}";
scale = "{1.25, 1}";
type = Corner;
name = _corner.serfRight2;
},
{
origin = "{2, 0}";
type = Corner;
name = _corner.serfLeft0;
options = 1;
}
);
layerId = "D36B0F94-A848-4C2C-9ADF-F92FCBE7F4F5";
paths = (
{
closed = 1;
nodes = (
"375 317 LINE SMOOTH",
"499 317 OFFCURVE",
"623 381 OFFCURVE",
"623 537 CURVE SMOOTH",
"623 655 OFFCURVE",
"541 750 OFFCURVE",
"356 750 CURVE SMOOTH",
"124 750 LINE",
"124 634 LINE",
"374 634 LINE SMOOTH",
"443 634 OFFCURVE",
"495 589 OFFCURVE",
"495 537 CURVE SMOOTH",
"495 487 OFFCURVE",
"459 438 OFFCURVE",
"371 438 CURVE SMOOTH",
"124 438 LINE",
"124 317 LINE"
);
},
{
closed = 1;
nodes = (
"207 0 LINE",
"207 750 LINE",
"73 750 LINE",
"73 0 LINE"
);
},
{
closed = 1;
nodes = (
"649 0 LINE",
"409 399 LINE",
"261 399 LINE",
"498 0 LINE"
);
}
);
width = 681;
}
);
leftMetricsKey = I;
unicode = 0052;
},
{
glyphname = S;
lastChange = "2020-03-14 07:12:13 +0000";
layers = (
{
hints = (
{
origin = "{0, 15}";
target = "{0, 16}";
scale = "{1.02144, 1}";
type = Cap;
name = _cap.serf;
options = 3;
},
{
origin = "{0, 35}";
target = "{0, 36}";
scale = "{1.1229, 1}";
type = Cap;
name = _cap.serf;
options = 3;
}
);
layerId = "D36B0F94-A848-4C2C-9ADF-F92FCBE7F4F5";
paths = (
{
closed = 1;
nodes = (
"531 -19 OFFCURVE",
"625 91 OFFCURVE",
"625 207 CURVE SMOOTH",
"625 338 OFFCURVE",
"537 386 OFFCURVE",
"428 426 CURVE SMOOTH",
"307 470 LINE SMOOTH",
"267 484 OFFCURVE",
"240 502 OFFCURVE",
"240 548 CURVE SMOOTH",
"240 594 OFFCURVE",
"281 631 OFFCURVE",
"351 631 CURVE SMOOTH",
"406 631 OFFCURVE",
"456 602 OFFCURVE",
"503 560 CURVE",
"595 650 LINE",
"523 710 OFFCURVE",
"467 756 OFFCURVE",
"353 756 CURVE SMOOTH",
"204 756 OFFCURVE",
"106 673 OFFCURVE",
"106 542 CURVE SMOOTH",
"106 451 OFFCURVE",
"169 390 OFFCURVE",
"263 355 CURVE SMOOTH",
"386 309 LINE SMOOTH",
"462 281 OFFCURVE",
"489 246 OFFCURVE",
"489 212 CURVE SMOOTH",
"489 162 OFFCURVE",
"435 110 OFFCURVE",
"356 110 CURVE SMOOTH",
"264 110 OFFCURVE",
"194 169 OFFCURVE",
"135 252 CURVE",
"32 155 LINE",
"119 58 OFFCURVE",
"222 -19 OFFCURVE",
"355 -19 CURVE SMOOTH"
);
}
);
width = 663;
},
{
associatedMasterId = "D36B0F94-A848-4C2C-9ADF-F92FCBE7F4F5";
hints = (
{
origin = "{0, 15}";
target = "{0, 16}";
scale = "{1.02144, 1}";
type = Cap;
name = _cap.serf;
options = 3;
},
{
origin = "{0, 35}";
target = "{0, 36}";
scale = "{1.05065, 1}";
type = Cap;
name = _cap.serf;
options = 3;
}
);
layerId = "C8A8E19E-4294-4C58-A1D5-F316BC251BAE";
name = "Mar 14 20, 14:00";
paths = (
{
closed = 1;
nodes = (
"531 -19 OFFCURVE",
"622 85 OFFCURVE",
"622 201 CURVE SMOOTH",
"622 332 OFFCURVE",
"540 374 OFFCURVE",
"431 418 CURVE SMOOTH",
"314 465 LINE SMOOTH",
"274 481 OFFCURVE",
"244 499 OFFCURVE",
"244 548 CURVE SMOOTH",
"244 594 OFFCURVE",
"281 631 OFFCURVE",
"351 631 CURVE SMOOTH",
"406 631 OFFCURVE",
"456 602 OFFCURVE",
"503 560 CURVE",
"595 650 LINE",
"510 711 OFFCURVE",
"467 756 OFFCURVE",
"353 756 CURVE SMOOTH",
"204 756 OFFCURVE",
"111 666 OFFCURVE",
"111 535 CURVE SMOOTH",
"111 444 OFFCURVE",
"179 388 OFFCURVE",
"273 352 CURVE SMOOTH",
"391 307 LINE SMOOTH",
"467 278 OFFCURVE",
"489 246 OFFCURVE",
"489 212 CURVE SMOOTH",
"489 162 OFFCURVE",
"435 108 OFFCURVE",
"356 108 CURVE SMOOTH",
"264 108 OFFCURVE",
"198 166 OFFCURVE",
"131 244 CURVE",
"32 155 LINE",
"121 61 OFFCURVE",
"222 -19 OFFCURVE",
"355 -19 CURVE SMOOTH"
);
}
);
width = 663;
}
);
unicode = 0053;
},
{
glyphname = T;
lastChange = "2020-02-15 13:46:35 +0000";
layers = (
{
hints = (
{
origin = "{1, 2}";
target = "{1, 3}";
scale = "{0.90476, 1}";
type = Cap;
name = _cap.serf;
options = 3;
},
{
origin = "{1, 0}";
target = "{1, 1}";
scale = "{0.90476, 1}";
type = Cap;
name = _cap.serf;
options = 3;
},
{
origin = "{0, 3}";
target = "{0, 0}";
scale = "{1.07937, 1}";
type = Cap;
name = _cap.serf;
options = 3;
}
);
layerId = "D36B0F94-A848-4C2C-9ADF-F92FCBE7F4F5";
paths = (
{
closed = 1;
nodes = (
"405 0 LINE",
"405 750 LINE",
"269 750 LINE",
"269 0 LINE"
);
},
{
closed = 1;
nodes = (
"658 636 LINE",
"658 750 LINE",
"15 750 LINE",
"15 636 LINE"
);
}
);
width = 673;
}
);
unicode = 0054;
},
{
glyphname = U;
lastChange = "2020-03-13 12:36:51 +0000";
layers = (
{
hints = (
{
origin = "{0, 12}";
target = "{0, 13}";
scale = "{1.1349, 1}";
type = Cap;
name = _cap.serf;
options = 3;
},
{
origin = "{0, 3}";
target = "{0, 4}";
scale = "{1.1429, 1}";
type = Cap;
name = _cap.serf;
options = 3;
}
);
layerId = "D36B0F94-A848-4C2C-9ADF-F92FCBE7F4F5";
paths = (
{
closed = 1;
nodes = (
"608 -11 OFFCURVE",
"692 125 OFFCURVE",
"692 326 CURVE SMOOTH",
"692 750 LINE",
"548 750 LINE",
"548 330 LINE SMOOTH",
"548 229 OFFCURVE",
"531 114 OFFCURVE",
"391 114 CURVE SMOOTH",
"275 114 OFFCURVE",
"218 196 OFFCURVE",
"218 338 CURVE SMOOTH",
"218 750 LINE",
"75 750 LINE",
"75 308 LINE SMOOTH",
"75 107 OFFCURVE",
"207 -11 OFFCURVE",
"391 -11 CURVE SMOOTH"
);
}
);
width = 767;
}
);
leftMetricsKey = I;
rightMetricsKey = I;
unicode = 0055;
},
{
glyphname = V;
lastChange = "2020-03-06 13:21:41 +0000";
layers = (
{
hints = (
{
origin = "{0, 4}";
type = Corner;
name = _corner.serfRight2;
},
{
origin = "{0, 2}";
type = Corner;
name = _corner.serfLeft2;
options = 1;
},
{
origin = "{0, 6}";
target = "{0, 0}";
scale = "{0.9127, 1}";
type = Cap;
name = _cap.serf2;
options = 3;
},
{
origin = "{0, 1}";
type = Corner;
name = _corner.serfRight0;
},
{
origin = "{0, 5}";
type = Corner;
name = _corner.serfLeft0;
options = 1;
}
);
layerId = "D36B0F94-A848-4C2C-9ADF-F92FCBE7F4F5";
paths = (
{
closed = 1;
nodes = (
"447 0 LINE",
"764 750 LINE",
"615 750 LINE",
"393 195 LINE",
"165 750 LINE",
"15 750 LINE",
"332 0 LINE"
);
}
);
width = 780;
}
);
unicode = 0056;
},
{
glyphname = W;
lastChange = "2020-03-14 04:44:38 +0000";
layers = (
{
hints = (
{
origin = "{0, 4}";
type = Corner;
name = _corner.serfRight0;
},
{
origin = "{0, 5}";
type = Corner;
name = _corner.serfLeft2;
options = 1;
},
{
origin = "{0, 10}";
type = Corner;
name = _corner.serfRight2;
},
{
origin = "{0, 11}";
type = Corner;
name = _corner.serfLeft0;
options = 1;
},
{
origin = "{0, 2}";
target = "{0, 3}";
scale = "{1.0794, 1}";
type = Cap;
name = _cap.serf2;
options = 3;
},
{
origin = "{0, 12}";
target = "{0, 0}";
scale = "{1.1667, 1}";
type = Cap;
name = _cap.serf2;
options = 3;
},
{
origin = "{0, 7}";
target = "{0, 8}";
scale = "{1.1746, 1}";
type = Cap;
name = _cap.serf2;
options = 3;
}
);
layerId = "D36B0F94-A848-4C2C-9ADF-F92FCBE7F4F5";
paths = (
{
closed = 1;
nodes = (
"381 0 LINE",
"515 554 LINE",
"635 0 LINE",
"771 0 LINE",
"978 750 LINE",
"819 750 LINE",
"713 224 LINE",
"585 750 LINE",
"437 750 LINE",
"307 200 LINE",
"173 750 LINE",
"22 750 LINE",
"234 0 LINE"
);
}
);
width = 1000;
}
);
unicode = 0057;
},
{
glyphname = X;
lastChange = "2020-03-13 12:39:20 +0000";
layers = (
{
hints = (
{
origin = "{0, 3}";
type = Corner;
name = _corner.serfRight0;
},
{
origin = "{0, 4}";
type = Corner;
name = _corner.serfLeft2;
options = 1;
},
{
origin = "{1, 3}";
type = Corner;
name = _corner.serfRight2;
},
{
origin = "{1, 4}";
type = Corner;
name = _corner.serfLeft0;
options = 1;
},
{
origin = "{1, 0}";
type = Corner;
name = _corner.serfLeft0;
options = 1;
},
{
origin = "{1, 7}";
type = Corner;
name = _corner.serfRight2;
},
{
origin = "{0, 0}";
type = Corner;
name = _corner.serfLeft2;
options = 1;
},
{
origin = "{0, 7}";
type = Corner;
name = _corner.serfRight0;
}
);
layerId = "D36B0F94-A848-4C2C-9ADF-F92FCBE7F4F5";
paths = (
{
closed = 1;
nodes = (
"189 0 LINE",
"407 284 LINE",
"456 350 LINE",
"774 750 LINE",
"607 750 LINE",
"373 450 LINE",
"322 399 LINE",
"22 0 LINE"
);
},
{
closed = 1;
nodes = (
"758 0 LINE",
"473 383 LINE",
"423 433 LINE",
"172 750 LINE",
"22 750 LINE",
"338 317 LINE",
"373 284 LINE",
"590 0 LINE"
);
}
);
width = 796;
}
);
leftMetricsKey = Y;
rightMetricsKey = Y;
unicode = 0058;
},
{
glyphname = Y;
lastChange = "2020-03-13 12:39:13 +0000";
layers = (
{
hints = (
{
origin = "{1, 3}";
target = "{1, 0}";
scale = "{1.15873, 1}";
type = Cap;
name = _cap.serf;
options = 3;
},
{
origin = "{2, 2}";
type = Corner;
name = _corner.serfLeft2;
options = 1;
},
{
origin = "{0, 2}";
type = Corner;
name = _corner.serfRight2;
},
{
origin = "{0, 3}";
type = Corner;
name = _corner.serfLeft0;
options = 1;
},
{
origin = "{2, 1}";
type = Corner;
name = _corner.serfRight0;
}
);
layerId = "D36B0F94-A848-4C2C-9ADF-F92FCBE7F4F5";
paths = (
{
closed = 1;
nodes = (
"443 317 LINE",
"433 399 LINE",
"184 750 LINE",
"22 750 LINE",
"323 317 LINE"
);
},
{
closed = 1;
nodes = (
"458 0 LINE",
"458 450 LINE",
"312 450 LINE",
"312 0 LINE"
);
},
{
closed = 1;
nodes = (
"443 317 LINE",
"744 750 LINE",
"576 750 LINE",
"343 417 LINE",
"343 317 LINE"
);
}
);
width = 766;
}
);
unicode = 0059;
},
{
glyphname = Z;
lastChange = "2020-03-06 13:21:51 +0000";
layers = (
{
hints = (
{
origin = "{2, 2}";
target = "{2, 3}";
scale = "{0.9048, 1}";
type = Cap;
name = _cap.serf;
options = 3;
},
{
origin = "{1, 0}";
target = "{1, 1}";
scale = "{0.9841, 1}";
type = Cap;
name = _cap.serf;
options = 3;
}
);
layerId = "D36B0F94-A848-4C2C-9ADF-F92FCBE7F4F5";
paths = (
{
closed = 1;
nodes = (
"191 1 LINE",
"675 718 LINE",
"675 751 LINE",
"541 751 LINE",
"58 35 LINE",
"58 1 LINE"
);
},
{
closed = 1;
nodes = (
"692 1 LINE",
"692 125 LINE",
"191 125 LINE",
"191 1 LINE"
);
},
{
closed = 1;
nodes = (
"558 637 LINE",
"558 751 LINE",
"58 751 LINE",
"58 637 LINE"
);
}
);
width = 750;
}
);
unicode = 005A;
},
{
glyphname = a;
lastChange = "2020-11-22 14:36:15 +0000";
layers = (
{
hints = (
{
origin = "{2, 1}";
type = Corner;
name = _corner.serfRight;
},
{
origin = "{2, 0}";
type = Corner;
name = _corner.serfLeft;
}
);
layerId = "D36B0F94-A848-4C2C-9ADF-F92FCBE7F4F5";
paths = (
{
closed = 1;
nodes = (
"468 -13 OFFCURVE",
"509 182 OFFCURVE",
"509 229 CURVE SMOOTH",
"509 287 OFFCURVE",
"450 472 OFFCURVE",
"280 472 CURVE SMOOTH",
"149 472 OFFCURVE",
"35 376 OFFCURVE",
"35 229 CURVE SMOOTH",
"35 81 OFFCURVE",
"133 -13 OFFCURVE",
"280 -13 CURVE SMOOTH"
);
},
{
closed = 1;
nodes = (
"219 93 OFFCURVE",
"155 143 OFFCURVE",
"155 229 CURVE SMOOTH",
"155 307 OFFCURVE",
"214 364 OFFCURVE",
"295 364 CURVE SMOOTH",
"380 364 OFFCURVE",
"437 306 OFFCURVE",
"437 226 CURVE SMOOTH",
"437 156 OFFCURVE",
"379 93 OFFCURVE",
"295 93 CURVE SMOOTH"
);
},
{
closed = 1;
nodes = (
"565 0 LINE",
"565 460 LINE",
"439 460 LINE",
"439 349 LINE",
"481 298 LINE",
"481 165 LINE",
"439 133 LINE",
"439 0 LINE"
);
}
);
width = 633;
}
);
leftMetricsKey = o;
rightMetricsKey = l;
unicode = 0061;
},
{
glyphname = ae;
lastChange = "2020-03-13 12:32:29 +0000";
layers = (
{
hints = (
{
origin = "{3, 0}";
type = Corner;
name = _corner.serfRight;
},
{
origin = "{3, 7}";
scale = "{0.84891, 1}";
type = Cap;
name = _cap.serf;
options = 3;
},
{
origin = "{0, 2}";
scale = "{0.8367, 1}";
type = Cap;
name = _cap.serf;
options = 3;
}
);
layerId = "D36B0F94-A848-4C2C-9ADF-F92FCBE7F4F5";
paths = (
{
closed = 1;
nodes = (
"742 -22 OFFCURVE",
"806 18 OFFCURVE",
"852 86 CURVE",
"769 151 LINE",
"741 110 OFFCURVE",
"708 87 OFFCURVE",
"646 87 CURVE SMOOTH",
"573 87 OFFCURVE",
"511 128 OFFCURVE",
"512 204 CURVE SMOOTH",
"513 266 LINE SMOOTH",
"514 325 OFFCURVE",
"569 380 OFFCURVE",
"641 380 CURVE SMOOTH",
"703 380 OFFCURVE",
"757 338 OFFCURVE",
"762 282 CURVE",
"493 282 LINE",
"490 189 LINE",
"879 189 LINE",
"899 342 OFFCURVE",
"816 481 OFFCURVE",
"640 481 CURVE SMOOTH",
"503 481 OFFCURVE",
"392 377 OFFCURVE",
"391 229 CURVE SMOOTH",
"390 91 OFFCURVE",
"490 -22 OFFCURVE",
"646 -22 CURVE SMOOTH"
);
},
{
closed = 1;
nodes = (
"428 -13 OFFCURVE",
"506 82 OFFCURVE",
"506 182 CURVE SMOOTH",
"506 224 OFFCURVE",
"534 239 OFFCURVE",
"446 296 CURVE",
"370 299 OFFCURVE",
"337 306 OFFCURVE",
"225 299 CURVE SMOOTH",
"127 293 OFFCURVE",
"35 247 OFFCURVE",
"35 139 CURVE SMOOTH",
"35 51 OFFCURVE",
"105 -13 OFFCURVE",
"236 -13 CURVE SMOOTH"
);
},
{
closed = 1;
nodes = (
"199 80 OFFCURVE",
"171 103 OFFCURVE",
"171 139 CURVE SMOOTH",
"171 165 OFFCURVE",
"191 188 OFFCURVE",
"227 191 CURVE SMOOTH",
"298 197 OFFCURVE",
"393 193 OFFCURVE",
"433 193 CURVE",
"433 145 OFFCURVE",
"391 216 OFFCURVE",
"391 167 CURVE SMOOTH",
"391 123 OFFCURVE",
"350 80 OFFCURVE",
"246 80 CURVE SMOOTH"
);
},
{
closed = 1;
nodes = (
"512 120 LINE",
"512 260 LINE SMOOTH",
"512 402 OFFCURVE",
"386 478 OFFCURVE",
"271 478 CURVE SMOOTH",
"236 478 OFFCURVE",
"154 478 OFFCURVE",
"51 393 CURVE",
"122 313 LINE",
"152 367 OFFCURVE",
"233 379 OFFCURVE",
"280 379 CURVE SMOOTH",
"335 379 OFFCURVE",
"391 346 OFFCURVE",
"391 260 CURVE SMOOTH",
"391 120 LINE"
);
}
);
width = 912;
}
);
leftMetricsKey = a;
rightMetricsKey = e;
unicode = 00E6;
},
{
glyphname = b;
lastChange = "2020-11-22 14:36:15 +0000";
layers = (
{
hints = (
{
origin = "{0, 5}";
scale = "{0.98413, 1}";
type = Cap;
name = _cap.serf;
options = 3;
},
{
origin = "{0, 7}";
type = Corner;
name = _corner.serfRight;
}
);
layerId = "D36B0F94-A848-4C2C-9ADF-F92FCBE7F4F5";
paths = (
{
closed = 1;
nodes = (
"192 0 LINE",
"192 125 LINE",
"146 169 LINE",
"146 309 LINE",
"192 358 LINE",
"192 750 LINE",
"68 750 LINE",
"68 0 LINE"
);
},
{
closed = 1;
nodes = (
"484 -13 OFFCURVE",
"592 81 OFFCURVE",
"592 229 CURVE SMOOTH",
"592 376 OFFCURVE",
"480 472 OFFCURVE",
"338 472 CURVE SMOOTH",
"174 472 OFFCURVE",
"98 337 OFFCURVE",
"98 229 CURVE SMOOTH",
"98 132 OFFCURVE",
"177 -13 OFFCURVE",
"338 -13 CURVE SMOOTH"
);
},
{
closed = 1;
nodes = (
"249 93 OFFCURVE",
"188 156 OFFCURVE",
"188 226 CURVE SMOOTH",
"188 306 OFFCURVE",
"248 364 OFFCURVE",
"330 364 CURVE SMOOTH",
"411 364 OFFCURVE",
"471 307 OFFCURVE",
"471 229 CURVE SMOOTH",
"471 143 OFFCURVE",
"407 93 OFFCURVE",
"330 93 CURVE SMOOTH"
);
}
);
width = 627;
}
);
leftMetricsKey = l;
rightMetricsKey = o;
unicode = 0062;
},
{
glyphname = c;
lastChange = "2020-03-14 04:32:00 +0000";
layers = (
{
background = {
paths = (
{
closed = 1;
nodes = (
"423 -18 OFFCURVE",
"535 94 OFFCURVE",
"535 231 CURVE SMOOTH",
"535 367 OFFCURVE",
"423 479 OFFCURVE",
"287 479 CURVE SMOOTH",
"150 479 OFFCURVE",
"38 367 OFFCURVE",
"38 231 CURVE SMOOTH",
"38 94 OFFCURVE",
"150 -18 OFFCURVE",
"287 -18 CURVE SMOOTH"
);
}
);
};
hints = (
{
origin = "{0, 15}";
target = "{0, 16}";
scale = "{0.8649, 1}";
type = Cap;
name = _cap.serf;
options = 3;
},
{
origin = "{0, 2}";
target = "{0, 3}";
scale = "{0.8231, 1}";
type = Cap;
name = _cap.serf;
options = 3;
}
);
layerId = "D36B0F94-A848-4C2C-9ADF-F92FCBE7F4F5";
paths = (
{
closed = 1;
nodes = (
"387 -21 OFFCURVE",
"430 24 OFFCURVE",
"480 83 CURVE",
"400 149 LINE",
"356 105 OFFCURVE",
"336 92 OFFCURVE",
"287 92 CURVE SMOOTH",
"208 92 OFFCURVE",
"153 147 OFFCURVE",
"153 231 CURVE SMOOTH",
"153 314 OFFCURVE",
"212 368 OFFCURVE",
"287 368 CURVE SMOOTH",
"342 368 OFFCURVE",
"377 344 OFFCURVE",
"404 300 CURVE",
"484 374 LINE",
"432 417 OFFCURVE",
"394 475 OFFCURVE",
"276 475 CURVE SMOOTH",
"145 475 OFFCURVE",
"35 377 OFFCURVE",
"35 218 CURVE SMOOTH",
"35 86 OFFCURVE",
"145 -21 OFFCURVE",
"274 -21 CURVE SMOOTH"
);
}
);
width = 513;
},
{
associatedMasterId = "D36B0F94-A848-4C2C-9ADF-F92FCBE7F4F5";
hints = (
{
origin = "{0, 15}";
target = "{0, 16}";
scale = "{0.8649, 1}";
type = Cap;
name = _cap.serf;
options = 3;
},
{
origin = "{0, 2}";
target = "{0, 3}";
scale = "{0.8231, 1}";
type = Cap;
name = _cap.serf;
options = 3;
}
);
layerId = "3B95969C-0BF4-4B72-88E8-62789C49FD87";
name = "Feb 15 20, 16:57";
paths = (
{
closed = 1;
nodes = (
"400 -13 OFFCURVE",
"471 30 OFFCURVE",
"521 89 CURVE",
"441 155 LINE",
"397 111 OFFCURVE",
"350 92 OFFCURVE",
"292 92 CURVE SMOOTH",
"213 92 OFFCURVE",
"143 142 OFFCURVE",
"143 231 CURVE SMOOTH",
"143 314 OFFCURVE",
"207 367 OFFCURVE",
"292 367 CURVE SMOOTH",
"347 367 OFFCURVE",
"397 350 OFFCURVE",
"441 310 CURVE",
"521 384 LINE",
"465 437 OFFCURVE",
"391 471 OFFCURVE",
"292 471 CURVE SMOOTH",
"142 471 OFFCURVE",
"25 377 OFFCURVE",
"25 229 CURVE SMOOTH",
"25 83 OFFCURVE",
"136 -13 OFFCURVE",
"292 -13 CURVE SMOOTH"
);
}
);
width = 560;
}
);
leftMetricsKey = o;
unicode = 0063;
},
{
glyphname = d;
lastChange = "2020-03-14 04:32:00 +0000";
layers = (
{
background = {
paths = (
{
closed = 1;
nodes = (
"430 -18 OFFCURVE",
"542 94 OFFCURVE",
"542 231 CURVE SMOOTH",
"542 367 OFFCURVE",
"430 479 OFFCURVE",
"294 479 CURVE SMOOTH",
"157 479 OFFCURVE",
"45 367 OFFCURVE",
"45 231 CURVE SMOOTH",
"45 94 OFFCURVE",
"157 -18 OFFCURVE",
"294 -18 CURVE SMOOTH"
);
}
);
};
hints = (
{
origin = "{2, 1}";
target = "{2, 2}";
scale = "{0.96032, 1}";
type = Cap;
name = _cap.serf;
options = 3;
},
{
origin = "{2, 0}";
type = Corner;
name = _corner.serfLeft;
}
);
layerId = "D36B0F94-A848-4C2C-9ADF-F92FCBE7F4F5";
paths = (
{
closed = 1;
nodes = (
"451 -14 OFFCURVE",
"529 131 OFFCURVE",
"530 228 CURVE SMOOTH",
"531 338 OFFCURVE",
"453 477 OFFCURVE",
"291 477 CURVE SMOOTH",
"147 477 OFFCURVE",
"35 376 OFFCURVE",
"35 228 CURVE SMOOTH",
"35 82 OFFCURVE",
"142 -14 OFFCURVE",
"291 -14 CURVE SMOOTH"
);
},
{
closed = 1;
nodes = (
"219 93 OFFCURVE",
"155 143 OFFCURVE",
"156 228 CURVE SMOOTH",
"157 308 OFFCURVE",
"216 364 OFFCURVE",
"297 364 CURVE SMOOTH",
"380 364 OFFCURVE",
"437 305 OFFCURVE",
"438 226 CURVE SMOOTH",
"439 156 OFFCURVE",
"378 93 OFFCURVE",
"297 93 CURVE SMOOTH"
);
},
{
closed = 1;
nodes = (
"555 0 LINE",
"555 750 LINE",
"434 750 LINE",
"434 355 LINE",
"483 308 LINE",
"483 169 LINE",
"434 125 LINE",
"434 0 LINE"
);
}
);
width = 627;
}
);
leftMetricsKey = o;
rightMetricsKey = I;
unicode = 0064;
},
{
glyphname = eth;
lastChange = "2020-02-21 13:40:17 +0000";
layers = (
{
hints = (
{
origin = "{2, 3}";
scale = "{0.98211, 1}";
type = Cap;
name = _cap.serf;
options = 3;
}
);
layerId = "D36B0F94-A848-4C2C-9ADF-F92FCBE7F4F5";
paths = (
{
closed = 1;
nodes = (
"441 -14 OFFCURVE",
"544 91 OFFCURVE",
"545 228 CURVE SMOOTH",
"546 367 OFFCURVE",
"404 473 OFFCURVE",
"274 473 CURVE SMOOTH",
"141 473 OFFCURVE",
"25 376 OFFCURVE",
"25 228 CURVE SMOOTH",
"25 82 OFFCURVE",
"132 -14 OFFCURVE",
"281 -14 CURVE SMOOTH"
);
},
{
closed = 1;
nodes = (
"205 98 OFFCURVE",
"144 148 OFFCURVE",
"145 231 CURVE SMOOTH",
"146 311 OFFCURVE",
"206 364 OFFCURVE",
"287 364 CURVE SMOOTH",
"370 364 OFFCURVE",
"420 305 OFFCURVE",
"421 226 CURVE SMOOTH",
"422 156 OFFCURVE",
"364 98 OFFCURVE",
"283 98 CURVE SMOOTH"
);
},
{
closed = 1;
nodes = (
"545 228 LINE",
"545 448 OFFCURVE",
"386 631 OFFCURVE",
"233 756 CURVE",
"146 668 LINE",
"269 582 OFFCURVE",
"379 463 OFFCURVE",
"405 334 CURVE"
);
},
{
closed = 1;
nodes = (
"100 544 LINE",
"123 493 LINE",
"496 658 LINE",
"473 708 LINE"
);
}
);
width = 600;
}
);
unicode = 00F0;
},
{
glyphname = e;
lastChange = "2020-03-14 04:48:47 +0000";
layers = (
{
background = {
paths = (
{
closed = 1;
nodes = (
"422 -18 OFFCURVE",
"534 94 OFFCURVE",
"534 231 CURVE SMOOTH",
"534 367 OFFCURVE",
"422 479 OFFCURVE",
"286 479 CURVE SMOOTH",
"149 479 OFFCURVE",
"37 367 OFFCURVE",
"37 231 CURVE SMOOTH",
"37 94 OFFCURVE",
"149 -18 OFFCURVE",
"286 -18 CURVE SMOOTH"
);
}
);
};
hints = (
{
origin = "{0, 2}";
target = "{0, 3}";
scale = "{0.8367, 1}";
type = Cap;
name = _cap.serf;
options = 3;
}
);
layerId = "D36B0F94-A848-4C2C-9ADF-F92FCBE7F4F5";
paths = (
{
closed = 1;
nodes = (
"386 -22 OFFCURVE",
"450 18 OFFCURVE",
"496 86 CURVE",
"413 151 LINE",
"385 110 OFFCURVE",
"352 87 OFFCURVE",
"290 87 CURVE SMOOTH",
"217 87 OFFCURVE",
"155 128 OFFCURVE",
"156 204 CURVE SMOOTH",
"157 266 LINE SMOOTH",
"158 325 OFFCURVE",
"208 380 OFFCURVE",
"280 380 CURVE SMOOTH",
"342 380 OFFCURVE",
"401 338 OFFCURVE",
"406 282 CURVE",
"137 282 LINE",
"134 189 LINE",
"523 189 LINE",
"543 342 OFFCURVE",
"455 481 OFFCURVE",
"279 481 CURVE SMOOTH",
"137 481 OFFCURVE",
"36 377 OFFCURVE",
"35 229 CURVE SMOOTH",
"34 91 OFFCURVE",
"134 -22 OFFCURVE",
"290 -22 CURVE SMOOTH"
);
}
);
width = 556;
}
);
leftMetricsKey = o;
unicode = 0065;
},
{
glyphname = f;
lastChange = "2020-03-14 04:30:47 +0000";
layers = (
{
hints = (
{
origin = "{1, 0}";
scale = "{0.8651, 1}";
type = Cap;
name = _cap.serf;
options = 3;
},
{
origin = "{1, 2}";
scale = "{0.8651, 1}";
type = Cap;
name = _cap.serf;
options = 3;
},
{
origin = "{0, 4}";
scale = "{1.0253, 1}";
type = Cap;
name = _cap.serf;
options = 3;
},
{
origin = "{0, 9}";
scale = "{0.9127, 1}";
type = Cap;
name = _cap.serf;
options = 3;
}
);
layerId = "D36B0F94-A848-4C2C-9ADF-F92FCBE7F4F5";
paths = (
{
closed = 1;
nodes = (
"218 0 LINE",
"218 575 LINE SMOOTH",
"218 609 OFFCURVE",
"243 638 OFFCURVE",
"296 632 CURVE",
"289 761 LINE",
"176 769 OFFCURVE",
"103 706 OFFCURVE",
"103 608 CURVE SMOOTH",
"103 0 LINE"
);
},
{
closed = 1;
nodes = (
"320 349 LINE",
"320 458 LINE",
"25 458 LINE",
"25 349 LINE"
);
}
);
width = 345;
},
{
associatedMasterId = "D36B0F94-A848-4C2C-9ADF-F92FCBE7F4F5";
hints = (
{
origin = "{1, 0}";
scale = "{0.8651, 1}";
type = Cap;
name = _cap.serf;
options = 3;
},
{
origin = "{1, 2}";
scale = "{0.8651, 1}";
type = Cap;
name = _cap.serf;
options = 3;
},
{
origin = "{0, 4}";
scale = "{1.0253, 1}";
type = Cap;
name = _cap.serf;
options = 3;
},
{
origin = "{0, 9}";
scale = "{0.99206, 1}";
type = Cap;
name = _cap.serf;
options = 3;
}
);
layerId = "E2685E3D-EA68-434F-AB51-C27B09C4EFC1";
name = "Mar 14 20, 13:30";
paths = (
{
closed = 1;
nodes = (
"224 0 LINE",
"224 575 LINE SMOOTH",
"224 609 OFFCURVE",
"243 638 OFFCURVE",
"296 632 CURVE",
"289 761 LINE",
"176 769 OFFCURVE",
"99 706 OFFCURVE",
"99 608 CURVE SMOOTH",
"99 0 LINE"
);
},
{
closed = 1;
nodes = (
"320 349 LINE",
"320 458 LINE",
"25 458 LINE",
"25 349 LINE"
);
}
);
width = 345;
}
);
unicode = 0066;
},
{
glyphname = g;
lastChange = "2020-03-14 04:32:00 +0000";
layers = (
{
hints = (
{
origin = "{0, 15}";
target = "{0, 16}";
scale = "{0.93832, 1}";
type = Cap;
name = _cap.serf;
options = 3;
},
{
origin = "{0, 3}";
type = Corner;
name = _corner.serfRight;
}
);
layerId = "D36B0F94-A848-4C2C-9ADF-F92FCBE7F4F5";
paths = (
{
closed = 1;
nodes = (
"456 -299 OFFCURVE",
"560 -205 OFFCURVE",
"560 -37 CURVE SMOOTH",
"559 460 LINE",
"434 460 LINE",
"434 355 LINE",
"481 308 LINE",
"481 169 LINE",
"434 125 LINE",
"434 -56 LINE SMOOTH",
"434 -145 OFFCURVE",
"378 -183 OFFCURVE",
"295 -183 CURVE SMOOTH",
"228 -183 OFFCURVE",
"192 -149 OFFCURVE",
"154 -89 CURVE",
"61 -162 LINE",
"130 -258 OFFCURVE",
"222 -299 OFFCURVE",
"292 -299 CURVE SMOOTH"
);
},
{
closed = 1;
nodes = (
"450 -14 OFFCURVE",
"529 130 OFFCURVE",
"529 228 CURVE SMOOTH",
"529 338 OFFCURVE",
"452 470 OFFCURVE",
"289 470 CURVE SMOOTH",
"148 470 OFFCURVE",
"34 376 OFFCURVE",
"35 228 CURVE SMOOTH",
"36 82 OFFCURVE",
"141 -14 OFFCURVE",
"289 -14 CURVE SMOOTH"
);
},
{
closed = 1;
nodes = (
"220 93 OFFCURVE",
"156 142 OFFCURVE",
"156 228 CURVE SMOOTH",
"156 308 OFFCURVE",
"216 364 OFFCURVE",
"295 364 CURVE SMOOTH",
"378 364 OFFCURVE",
"437 305 OFFCURVE",
"437 226 CURVE SMOOTH",
"437 148 OFFCURVE",
"388 93 OFFCURVE",
"295 93 CURVE SMOOTH"
);
}
);
width = 631;
},
{
associatedMasterId = "D36B0F94-A848-4C2C-9ADF-F92FCBE7F4F5";
hints = (
{
origin = "{0, 15}";
target = "{0, 16}";
scale = "{0.8397, 1}";
type = Cap;
name = _cap.serf;
options = 3;
},
{
origin = "{0, 3}";
type = Corner;
name = _corner.serfRight;
}
);
layerId = "ADA48B2C-8B6F-4EC8-B9FD-AEDDC48A5964";
name = "Feb 15 20, 10:44";
paths = (
{
closed = 1;
nodes = (
"462 -327 OFFCURVE",
"569 -230 OFFCURVE",
"569 -67 CURVE SMOOTH",
"568 460 LINE",
"438 460 LINE",
"438 355 LINE",
"485 308 LINE",
"485 169 LINE",
"438 125 LINE",
"438 -81 LINE SMOOTH",
"438 -170 OFFCURVE",
"381 -209 OFFCURVE",
"295 -209 CURVE SMOOTH",
"228 -209 OFFCURVE",
"163 -171 OFFCURVE",
"125 -111 CURVE",
"40 -174 LINE",
"97 -270 OFFCURVE",
"201 -327 OFFCURVE",
"298 -327 CURVE SMOOTH"
);
},
{
closed = 1;
nodes = (
"454 -14 OFFCURVE",
"533 130 OFFCURVE",
"533 228 CURVE SMOOTH",
"533 338 OFFCURVE",
"456 470 OFFCURVE",
"293 470 CURVE SMOOTH",
"152 470 OFFCURVE",
"38 376 OFFCURVE",
"39 228 CURVE SMOOTH",
"40 82 OFFCURVE",
"145 -14 OFFCURVE",
"293 -14 CURVE SMOOTH"
);
},
{
closed = 1;
nodes = (
"224 93 OFFCURVE",
"160 142 OFFCURVE",
"160 228 CURVE SMOOTH",
"160 308 OFFCURVE",
"220 364 OFFCURVE",
"299 364 CURVE SMOOTH",
"382 364 OFFCURVE",
"441 305 OFFCURVE",
"441 226 CURVE SMOOTH",
"441 148 OFFCURVE",
"392 93 OFFCURVE",
"299 93 CURVE SMOOTH"
);
}
);
width = 625;
},
{
associatedMasterId = "D36B0F94-A848-4C2C-9ADF-F92FCBE7F4F5";
hints = (
{
origin = "{0, 15}";
target = "{0, 16}";
scale = "{0.93705, 1}";
type = Cap;
name = _cap.serf;
options = 3;
},
{
origin = "{0, 3}";
type = Corner;
name = _corner.serfRight;
}
);
layerId = "747FAE5F-4209-4D28-9D31-A24385592EDA";
name = "Feb 16 20, 16:39";
paths = (
{
closed = 1;
nodes = (
"461 -300 OFFCURVE",
"570 -205 OFFCURVE",
"570 -37 CURVE SMOOTH",
"569 460 LINE",
"439 460 LINE",
"439 355 LINE",
"486 308 LINE",
"486 169 LINE",
"439 125 LINE",
"439 -55 LINE SMOOTH",
"439 -144 OFFCURVE",
"383 -180 OFFCURVE",
"300 -180 CURVE SMOOTH",
"233 -180 OFFCURVE",
"172 -135 OFFCURVE",
"134 -75 CURVE",
"41 -148 LINE",
"110 -244 OFFCURVE",
"200 -300 OFFCURVE",
"297 -300 CURVE SMOOTH"
);
},
{
closed = 1;
nodes = (
"455 -14 OFFCURVE",
"534 130 OFFCURVE",
"534 228 CURVE SMOOTH",
"534 338 OFFCURVE",
"457 470 OFFCURVE",
"294 470 CURVE SMOOTH",
"153 470 OFFCURVE",
"39 376 OFFCURVE",
"40 228 CURVE SMOOTH",
"41 82 OFFCURVE",
"146 -14 OFFCURVE",
"294 -14 CURVE SMOOTH"
);
},
{
closed = 1;
nodes = (
"225 93 OFFCURVE",
"161 142 OFFCURVE",
"161 228 CURVE SMOOTH",
"161 308 OFFCURVE",
"221 364 OFFCURVE",
"300 364 CURVE SMOOTH",
"383 364 OFFCURVE",
"442 305 OFFCURVE",
"442 226 CURVE SMOOTH",
"442 148 OFFCURVE",
"393 93 OFFCURVE",
"300 93 CURVE SMOOTH"
);
}
);
width = 626;
}
);
leftMetricsKey = o;
rightMetricsKey = I;
unicode = 0067;
},
{
glyphname = h;
lastChange = "2020-11-22 14:36:15 +0000";
layers = (
{
hints = (
{
origin = "{0, 17}";
target = "{0, 0}";
scale = "{1.0317, 1}";
type = Cap;
name = _cap.serf;
options = 3;
},
{
origin = "{1, 3}";
target = "{1, 0}";
scale = "{0.99206, 1}";
type = Cap;
name = _cap.serf;
options = 3;
},
{
origin = "{1, 1}";
target = "{1, 2}";
scale = "{0.99206, 1}";
type = Cap;
name = _cap.serf;
options = 3;
}
);
layerId = "D36B0F94-A848-4C2C-9ADF-F92FCBE7F4F5";
paths = (
{
closed = 1;
nodes = (
"542 0 LINE",
"542 269 LINE SMOOTH",
"542 379 OFFCURVE",
"465 470 OFFCURVE",
"332 470 CURVE SMOOTH",
"248 470 OFFCURVE",
"154 412 OFFCURVE",
"154 329 CURVE SMOOTH",
"154 25 LINE",
"193 25 LINE",
"193 230 LINE SMOOTH",
"193 319 OFFCURVE",
"248 362 OFFCURVE",
"312 362 CURVE SMOOTH",
"383 362 OFFCURVE",
"412 299 OFFCURVE",
"412 238 CURVE SMOOTH",
"412 0 LINE"
);
},
{
closed = 1;
nodes = (
"193 0 LINE",
"193 750 LINE",
"68 750 LINE",
"68 0 LINE"
);
}
);
width = 611;
}
);
leftMetricsKey = l;
rightMetricsKey = l;
unicode = 0068;
},
{
glyphname = i;
lastChange = "2020-03-14 04:29:28 +0000";
layers = (
{
hints = (
{
origin = "{0, 1}";
target = "{0, 2}";
scale = "{1.0159, 1}";
type = Cap;
name = _cap.serf;
options = 3;
},
{
origin = "{0, 3}";
target = "{0, 0}";
scale = "{1.0159, 1}";
type = Cap;
name = _cap.serf;
options = 3;
}
);
layerId = "D36B0F94-A848-4C2C-9ADF-F92FCBE7F4F5";
paths = (
{
closed = 1;
nodes = (
"210 0 LINE",
"210 460 LINE",
"82 460 LINE",
"82 0 LINE"
);
},
{
closed = 1;
nodes = (
"190 544 OFFCURVE",
"223 577 OFFCURVE",
"223 621 CURVE SMOOTH",
"223 662 OFFCURVE",
"190 697 OFFCURVE",
"147 697 CURVE SMOOTH",
"104 697 OFFCURVE",
"70 662 OFFCURVE",
"70 621 CURVE SMOOTH",
"70 577 OFFCURVE",
"104 544 OFFCURVE",
"147 544 CURVE SMOOTH"
);
}
);
width = 292;
}
);
unicode = 0069;
},
{
glyphname = idotless;
lastChange = "2020-02-16 09:02:01 +0000";
layers = (
{
hints = (
{
origin = "{0, 1}";
scale = "{1.0159, 1}";
type = Cap;
name = _cap.serf;
options = 3;
},
{
origin = "{0, 3}";
scale = "{1.0159, 1}";
type = Cap;
name = _cap.serf;
options = 3;
}
);
layerId = "D36B0F94-A848-4C2C-9ADF-F92FCBE7F4F5";
paths = (
{
closed = 1;
nodes = (
"190 0 LINE",
"190 460 LINE",
"62 460 LINE",
"62 0 LINE"
);
}
);
width = 252;
}
);
unicode = 0131;
},
{
glyphname = iacute;
lastChange = "2020-02-16 06:41:49 +0000";
layers = (
{
components = (
{
name = acutecomb;
transform = "{1, 0, 0, 1, -176, -280}";
}
);
hints = (
{
origin = "{0, 1}";
scale = "{1.0159, 1}";
type = Cap;
name = _cap.serf;
options = 3;
},
{
origin = "{0, 3}";
scale = "{1.0159, 1}";
type = Cap;
name = _cap.serf;
options = 3;
}
);
layerId = "D36B0F94-A848-4C2C-9ADF-F92FCBE7F4F5";
paths = (
{
closed = 1;
nodes = (
"190 0 LINE",
"190 460 LINE",
"62 460 LINE",
"62 0 LINE"
);
}
);
width = 252;
}
);
unicode = 00ED;
},
{
glyphname = icircumflex;
lastChange = "2020-02-16 06:42:51 +0000";
layers = (
{
components = (
{
name = circumflexcomb;
transform = "{1, 0, 0, 1, -86, -280}";
}
);
hints = (
{
origin = "{0, 1}";
scale = "{1.0159, 1}";
type = Cap;
name = _cap.serf;
options = 3;
},
{
origin = "{0, 3}";
scale = "{1.0159, 1}";
type = Cap;
name = _cap.serf;
options = 3;
}
);
layerId = "D36B0F94-A848-4C2C-9ADF-F92FCBE7F4F5";
paths = (
{
closed = 1;
nodes = (
"190 0 LINE",
"190 460 LINE",
"62 460 LINE",
"62 0 LINE"
);
}
);
width = 252;
}
);
unicode = 00EE;
},
{
glyphname = idieresis;
lastChange = "2020-02-16 06:43:26 +0000";
layers = (
{
components = (
{
name = dieresiscomb;
transform = "{1, 0, 0, 1, -162, -280}";
}
);
hints = (
{
origin = "{0, 1}";
scale = "{1.0159, 1}";
type = Cap;
name = _cap.serf;
options = 3;
},
{
origin = "{0, 3}";
scale = "{1.0159, 1}";
type = Cap;
name = _cap.serf;
options = 3;
}
);
layerId = "D36B0F94-A848-4C2C-9ADF-F92FCBE7F4F5";
paths = (
{
closed = 1;
nodes = (
"191 0 LINE",
"191 460 LINE",
"63 460 LINE",
"63 0 LINE"
);
}
);
width = 252;
}
);
unicode = 00EF;
},
{
glyphname = igrave;
lastChange = "2020-02-16 06:44:01 +0000";
layers = (
{
components = (
{
name = gravecomb;
transform = "{1, 0, 0, 1, -138, -280}";
}
);
hints = (
{
origin = "{0, 1}";
scale = "{1.0159, 1}";
type = Cap;
name = _cap.serf;
options = 3;
},
{
origin = "{0, 3}";
scale = "{1.0159, 1}";
type = Cap;
name = _cap.serf;
options = 3;
}
);
layerId = "D36B0F94-A848-4C2C-9ADF-F92FCBE7F4F5";
paths = (
{
closed = 1;
nodes = (
"190 0 LINE",
"190 460 LINE",
"62 460 LINE",
"62 0 LINE"
);
}
);
width = 252;
}
);
unicode = 00EC;
},
{
glyphname = j;
lastChange = "2020-03-14 04:32:00 +0000";
layers = (
{
hints = (
{
origin = "{0, 3}";
target = "{0, 4}";
scale = "{1.0317, 1}";
type = Cap;
name = _cap.serf;
options = 3;
},
{
origin = "{0, 8}";
target = "{0, 9}";
scale = "{1.04, 1}";
type = Cap;
name = _cap.serf;
options = 3;
}
);
layerId = "D36B0F94-A848-4C2C-9ADF-F92FCBE7F4F5";
paths = (
{
closed = 1;
nodes = (
"176 -252 OFFCURVE",
"208 -194 OFFCURVE",
"208 -80 CURVE SMOOTH",
"208 460 LINE",
"78 460 LINE",
"78 -93 LINE SMOOTH",
"78 -153 OFFCURVE",
"42 -198 OFFCURVE",
"-6 -246 CURVE",
"92 -333 LINE"
);
},
{
closed = 1;
nodes = (
"185 543 OFFCURVE",
"219 576 OFFCURVE",
"219 620 CURVE SMOOTH",
"219 661 OFFCURVE",
"185 696 OFFCURVE",
"143 696 CURVE SMOOTH",
"101 696 OFFCURVE",
"67 661 OFFCURVE",
"67 620 CURVE SMOOTH",
"67 576 OFFCURVE",
"101 543 OFFCURVE",
"143 543 CURVE SMOOTH"
);
}
);
width = 291;
}
);
rightMetricsKey = i;
unicode = 006A;
},
{
glyphname = k;
lastChange = "2020-11-22 14:36:15 +0000";
layers = (
{
hints = (
{
origin = "{2, 1}";
target = "{2, 2}";
scale = "{1.00794, 1}";
type = Cap;
name = _cap.serf;
options = 3;
},
{
origin = "{2, 3}";
target = "{2, 0}";
scale = "{1.00794, 1}";
type = Cap;
name = _cap.serf;
options = 3;
},
{
origin = "{0, 2}";
type = Corner;
name = _corner.serfLeft2;
options = 1;
},
{
origin = "{0, 1}";
scale = "{0.5, 1}";
type = Corner;
name = _corner.serfRight0;
},
{
origin = "{1, 0}";
scale = "{0.5, 1}";
type = Corner;
name = _corner.serfLeft0;
options = 1;
},
{
origin = "{1, 3}";
type = Corner;
name = _corner.serfRight2;
}
);
layerId = "D36B0F94-A848-4C2C-9ADF-F92FCBE7F4F5";
paths = (
{
closed = 1;
nodes = (
"184 87 LINE",
"505 460 LINE",
"353 460 LINE",
"107 176 LINE",
"113 87 LINE"
);
},
{
closed = 1;
nodes = (
"513 0 LINE",
"320 256 LINE",
"182 256 LINE",
"368 0 LINE"
);
},
{
closed = 1;
nodes = (
"195 0 LINE",
"195 750 LINE",
"68 750 LINE",
"68 0 LINE"
);
}
);
width = 543;
}
);
leftMetricsKey = l;
unicode = 006B;
},
{
glyphname = l;
lastChange = "2020-11-22 14:35:03 +0000";
layers = (
{
hints = (
{
origin = "{0, 1}";
target = "{0, 2}";
scale = "{1.03175, 1}";
type = Cap;
name = _cap.serf;
options = 3;
},
{
origin = "{0, 3}";
target = "{0, 0}";
scale = "{1.03175, 1}";
type = Cap;
name = _cap.serf;
options = 3;
}
);
layerId = "D36B0F94-A848-4C2C-9ADF-F92FCBE7F4F5";
paths = (
{
closed = 1;
nodes = (
"199 0 LINE",
"199 750 LINE",
"69 750 LINE",
"69 0 LINE"
);
}
);
width = 268;
},
{
associatedMasterId = "D36B0F94-A848-4C2C-9ADF-F92FCBE7F4F5";
hints = (
{
origin = "{0, 1}";
target = "{0, 2}";
scale = "{0.98413, 1}";
type = Cap;
name = _cap.serf;
options = 3;
},
{
origin = "{0, 3}";
target = "{0, 0}";
scale = "{0.98413, 1}";
type = Cap;
name = _cap.serf;
options = 3;
}
);
layerId = "8F69562D-3A07-4850-98B4-02C3BCEDAB9D";
name = "Nov 22 20, 23:35";
paths = (
{
closed = 1;
nodes = (
"196 0 LINE",
"196 750 LINE",
"72 750 LINE",
"72 0 LINE"
);
}
);
width = 268;
}
);
unicode = 006C;
},
{
glyphname = m;
lastChange = "2020-11-22 14:36:15 +0000";
layers = (
{
hints = (
{
origin = "{1, 3}";
target = "{1, 0}";
scale = "{1.0476, 1}";
type = Cap;
name = _cap.serf;
options = 3;
},
{
origin = "{2, 17}";
target = "{2, 0}";
scale = "{1.0238, 1}";
type = Cap;
name = _cap.serf;
options = 3;
},
{
origin = "{0, 17}";
target = "{0, 0}";
scale = "{1.0317, 1}";
type = Cap;
name = _cap.serf;
options = 3;
},
{
origin = "{1, 2}";
type = Corner;
name = _corner.serfLeft;
}
);
layerId = "D36B0F94-A848-4C2C-9ADF-F92FCBE7F4F5";
paths = (
{
closed = 1;
nodes = (
"789 0 LINE",
"789 269 LINE SMOOTH",
"789 379 OFFCURVE",
"735 470 OFFCURVE",
"603 470 CURVE SMOOTH",
"519 470 OFFCURVE",
"449 412 OFFCURVE",
"449 329 CURVE SMOOTH",
"449 25 LINE",
"493 25 LINE",
"493 230 LINE SMOOTH",
"493 319 OFFCURVE",
"524 362 OFFCURVE",
"577 362 CURVE SMOOTH",
"636 362 OFFCURVE",
"659 314 OFFCURVE",
"659 238 CURVE SMOOTH",
"659 0 LINE"
);
},
{
closed = 1;
nodes = (
"201 0 LINE",
"201 460 LINE",
"69 460 LINE",
"69 0 LINE"
);
},
{
closed = 1;
nodes = (
"493 0 LINE",
"493 269 LINE SMOOTH",
"493 379 OFFCURVE",
"435 470 OFFCURVE",
"303 470 CURVE SMOOTH",
"219 470 OFFCURVE",
"156 412 OFFCURVE",
"156 329 CURVE SMOOTH",
"156 14 LINE",
"200 14 LINE",
"200 230 LINE SMOOTH",
"200 319 OFFCURVE",
"231 362 OFFCURVE",
"284 362 CURVE SMOOTH",
"352 362 OFFCURVE",
"364 299 OFFCURVE",
"364 238 CURVE SMOOTH",
"364 0 LINE"
);
}
);
width = 858;
}
);
leftMetricsKey = l;
rightMetricsKey = l;
unicode = 006D;
},
{
glyphname = n;
lastChange = "2020-11-22 14:36:15 +0000";
layers = (
{
hints = (
{
origin = "{0, 17}";
target = "{0, 0}";
scale = "{1.0317, 1}";
type = Cap;
name = _cap.serf;
options = 3;
},
{
origin = "{1, 3}";
target = "{1, 0}";
scale = "{1.0238, 1}";
type = Cap;
name = _cap.serf;
options = 3;
},
{
origin = "{1, 2}";
type = Corner;
name = _corner.serfLeft;
}
);
layerId = "D36B0F94-A848-4C2C-9ADF-F92FCBE7F4F5";
paths = (
{
closed = 1;
nodes = (
"542 0 LINE",
"542 269 LINE SMOOTH",
"542 379 OFFCURVE",
"464 470 OFFCURVE",
"332 470 CURVE SMOOTH",
"247 470 OFFCURVE",
"155 412 OFFCURVE",
"155 329 CURVE SMOOTH",
"155 25 LINE",
"198 25 LINE",
"198 230 LINE SMOOTH",
"198 319 OFFCURVE",
"247 362 OFFCURVE",
"312 362 CURVE SMOOTH",
"383 362 OFFCURVE",
"412 299 OFFCURVE",
"412 238 CURVE SMOOTH",
"412 0 LINE"
);
},
{
closed = 1;
nodes = (
"198 0 LINE",
"198 460 LINE",
"69 460 LINE",
"69 0 LINE"
);
}
);
width = 611;
}
);
leftMetricsKey = l;
rightMetricsKey = l;
unicode = 006E;
},
{
glyphname = o;
lastChange = "2020-03-14 04:30:15 +0000";
layers = (
{
layerId = "D36B0F94-A848-4C2C-9ADF-F92FCBE7F4F5";
paths = (
{
closed = 1;
nodes = (
"446 -12 OFFCURVE",
"535 110 OFFCURVE",
"535 230 CURVE SMOOTH",
"535 374 OFFCURVE",
"426 475 OFFCURVE",
"285 475 CURVE SMOOTH",
"136 475 OFFCURVE",
"35 366 OFFCURVE",
"35 230 CURVE SMOOTH",
"35 92 OFFCURVE",
"135 -12 OFFCURVE",
"285 -12 CURVE SMOOTH"
);
},
{
closed = 1;
nodes = (
"215 103 OFFCURVE",
"156 150 OFFCURVE",
"156 230 CURVE SMOOTH",
"156 303 OFFCURVE",
"211 358 OFFCURVE",
"285 358 CURVE SMOOTH",
"364 358 OFFCURVE",
"417 302 OFFCURVE",
"417 227 CURVE SMOOTH",
"417 153 OFFCURVE",
"363 103 OFFCURVE",
"285 103 CURVE SMOOTH"
);
}
);
width = 570;
}
);
unicode = 006F;
},
{
glyphname = oslash;
lastChange = "2020-03-14 04:32:00 +0000";
layers = (
{
layerId = "D36B0F94-A848-4C2C-9ADF-F92FCBE7F4F5";
paths = (
{
closed = 1;
nodes = (
"526 437 LINE",
"490 473 LINE",
"43 26 LINE",
"79 -10 LINE"
);
},
{
closed = 1;
nodes = (
"446 -12 OFFCURVE",
"535 110 OFFCURVE",
"535 230 CURVE SMOOTH",
"535 374 OFFCURVE",
"426 475 OFFCURVE",
"285 475 CURVE SMOOTH",
"136 475 OFFCURVE",
"35 366 OFFCURVE",
"35 230 CURVE SMOOTH",
"35 92 OFFCURVE",
"135 -12 OFFCURVE",
"285 -12 CURVE SMOOTH"
);
},
{
closed = 1;
nodes = (
"215 103 OFFCURVE",
"156 150 OFFCURVE",
"156 230 CURVE SMOOTH",
"156 303 OFFCURVE",
"211 358 OFFCURVE",
"285 358 CURVE SMOOTH",
"364 358 OFFCURVE",
"417 302 OFFCURVE",
"417 227 CURVE SMOOTH",
"417 153 OFFCURVE",
"363 103 OFFCURVE",
"285 103 CURVE SMOOTH"
);
}
);
width = 570;
}
);
leftMetricsKey = o;
rightMetricsKey = o;
unicode = 00F8;
},
{
glyphname = oe;
lastChange = "2020-03-14 04:32:00 +0000";
layers = (
{
hints = (
{
origin = "{0, 2}";
scale = "{0.8367, 1}";
type = Cap;
name = _cap.serf;
options = 3;
}
);
layerId = "D36B0F94-A848-4C2C-9ADF-F92FCBE7F4F5";
paths = (
{
closed = 1;
nodes = (
"769 -22 OFFCURVE",
"833 18 OFFCURVE",
"879 86 CURVE",
"796 151 LINE",
"768 110 OFFCURVE",
"735 87 OFFCURVE",
"673 87 CURVE SMOOTH",
"600 87 OFFCURVE",
"538 128 OFFCURVE",
"539 204 CURVE SMOOTH",
"540 266 LINE SMOOTH",
"541 325 OFFCURVE",
"596 380 OFFCURVE",
"668 380 CURVE SMOOTH",
"730 380 OFFCURVE",
"784 338 OFFCURVE",
"789 282 CURVE",
"520 282 LINE",
"517 189 LINE",
"906 189 LINE",
"926 342 OFFCURVE",
"843 481 OFFCURVE",
"667 481 CURVE SMOOTH",
"530 481 OFFCURVE",
"419 377 OFFCURVE",
"418 229 CURVE SMOOTH",
"417 91 OFFCURVE",
"517 -22 OFFCURVE",
"673 -22 CURVE SMOOTH"
);
},
{
closed = 1;
nodes = (
"446 -12 OFFCURVE",
"535 110 OFFCURVE",
"535 230 CURVE SMOOTH",
"535 374 OFFCURVE",
"426 475 OFFCURVE",
"285 475 CURVE SMOOTH",
"136 475 OFFCURVE",
"35 366 OFFCURVE",
"35 230 CURVE SMOOTH",
"35 92 OFFCURVE",
"135 -12 OFFCURVE",
"285 -12 CURVE SMOOTH"
);
},
{
closed = 1;
nodes = (
"215 103 OFFCURVE",
"156 150 OFFCURVE",
"156 230 CURVE SMOOTH",
"156 303 OFFCURVE",
"211 358 OFFCURVE",
"285 358 CURVE SMOOTH",
"364 358 OFFCURVE",
"417 302 OFFCURVE",
"417 227 CURVE SMOOTH",
"417 153 OFFCURVE",
"363 103 OFFCURVE",
"285 103 CURVE SMOOTH"
);
}
);
width = 934;
}
);
leftMetricsKey = o;
unicode = 0153;
},
{
glyphname = p;
lastChange = "2020-03-14 04:32:00 +0000";
layers = (
{
hints = (
{
origin = "{0, 6}";
type = Corner;
name = _corner.serfLeft;
},
{
origin = "{0, 7}";
scale = "{0.99206, 1}";
type = Cap;
name = _cap.serf;
options = 3;
}
);
layerId = "D36B0F94-A848-4C2C-9ADF-F92FCBE7F4F5";
paths = (
{
closed = 1;
nodes = (
"197 -291 LINE",
"197 125 LINE",
"150 168 LINE",
"150 309 LINE",
"197 357 LINE",
"197 460 LINE",
"72 460 LINE",
"72 -291 LINE"
);
},
{
closed = 1;
nodes = (
"494 -15 OFFCURVE",
"595 81 OFFCURVE",
"595 228 CURVE SMOOTH",
"595 375 OFFCURVE",
"491 472 OFFCURVE",
"349 472 CURVE SMOOTH",
"198 472 OFFCURVE",
"102 337 OFFCURVE",
"102 228 CURVE SMOOTH",
"102 131 OFFCURVE",
"196 -15 OFFCURVE",
"346 -15 CURVE SMOOTH"
);
},
{
closed = 1;
nodes = (
"254 92 OFFCURVE",
"194 156 OFFCURVE",
"194 225 CURVE SMOOTH",
"194 306 OFFCURVE",
"251 363 OFFCURVE",
"336 363 CURVE SMOOTH",
"416 363 OFFCURVE",
"474 307 OFFCURVE",
"475 228 CURVE SMOOTH",
"476 142 OFFCURVE",
"412 92 OFFCURVE",
"336 92 CURVE SMOOTH"
);
}
);
width = 630;
},
{
associatedMasterId = "D36B0F94-A848-4C2C-9ADF-F92FCBE7F4F5";
hints = (
{
origin = "{1, 7}";
target = "{1, 0}";
scale = "{1.02381, 1}";
type = Cap;
name = _cap.serf;
options = 3;
},
{
origin = "{1, 6}";
type = Corner;
name = _corner.serfLeft;
}
);
layerId = "7F2CBC77-0231-46D1-97DE-5B1E7BD0769B";
name = "Feb 15 20, 17:22";
paths = (
{
closed = 1;
nodes = (
"484 -15 OFFCURVE",
"585 81 OFFCURVE",
"585 228 CURVE SMOOTH",
"585 375 OFFCURVE",
"481 472 OFFCURVE",
"339 472 CURVE SMOOTH",
"178 472 OFFCURVE",
"92 337 OFFCURVE",
"92 228 CURVE SMOOTH",
"92 131 OFFCURVE",
"176 -15 OFFCURVE",
"336 -15 CURVE SMOOTH"
);
},
{
closed = 1;
nodes = (
"187 -321 LINE",
"187 125 LINE",
"140 168 LINE",
"140 309 LINE",
"187 357 LINE",
"187 460 LINE",
"58 460 LINE",
"58 -321 LINE"
);
},
{
closed = 1;
nodes = (
"244 92 OFFCURVE",
"184 156 OFFCURVE",
"184 225 CURVE SMOOTH",
"184 306 OFFCURVE",
"241 363 OFFCURVE",
"326 363 CURVE SMOOTH",
"406 363 OFFCURVE",
"464 307 OFFCURVE",
"465 228 CURVE SMOOTH",
"466 142 OFFCURVE",
"402 92 OFFCURVE",
"326 92 CURVE SMOOTH"
);
}
);
width = 610;
}
);
leftMetricsKey = I;
rightMetricsKey = o;
unicode = 0070;
},
{
glyphname = thorn;
lastChange = "2020-03-14 04:31:10 +0000";
layers = (
{
hints = (
{
origin = "{0, 5}";
scale = "{0.99206, 1}";
type = Cap;
name = _cap.serf;
options = 3;
},
{
origin = "{0, 7}";
scale = "{0.99206, 1}";
type = Cap;
name = _cap.serf;
options = 3;
}
);
layerId = "D36B0F94-A848-4C2C-9ADF-F92FCBE7F4F5";
paths = (
{
closed = 1;
nodes = (
"177 -291 LINE",
"177 125 LINE",
"130 168 LINE",
"130 309 LINE",
"177 357 LINE",
"177 750 LINE",
"52 750 LINE",
"52 -291 LINE"
);
},
{
closed = 1;
nodes = (
"474 -15 OFFCURVE",
"575 81 OFFCURVE",
"575 228 CURVE SMOOTH",
"575 375 OFFCURVE",
"471 472 OFFCURVE",
"329 472 CURVE SMOOTH",
"178 472 OFFCURVE",
"82 337 OFFCURVE",
"82 228 CURVE SMOOTH",
"82 131 OFFCURVE",
"176 -15 OFFCURVE",
"326 -15 CURVE SMOOTH"
);
},
{
closed = 1;
nodes = (
"234 92 OFFCURVE",
"174 156 OFFCURVE",
"174 225 CURVE SMOOTH",
"174 306 OFFCURVE",
"231 363 OFFCURVE",
"316 363 CURVE SMOOTH",
"396 363 OFFCURVE",
"454 307 OFFCURVE",
"455 228 CURVE SMOOTH",
"456 142 OFFCURVE",
"392 92 OFFCURVE",
"316 92 CURVE SMOOTH"
);
}
);
width = 600;
}
);
unicode = 00FE;
},
{
glyphname = q;
lastChange = "2020-03-14 04:32:00 +0000";
layers = (
{
hints = (
{
origin = "{2, 7}";
target = "{2, 0}";
scale = "{1.00794, 1}";
type = Cap;
name = _cap.serf;
options = 3;
},
{
origin = "{2, 1}";
type = Corner;
name = _corner.serfRight;
}
);
layerId = "D36B0F94-A848-4C2C-9ADF-F92FCBE7F4F5";
paths = (
{
closed = 1;
nodes = (
"440 -14 OFFCURVE",
"528 131 OFFCURVE",
"529 228 CURVE SMOOTH",
"530 337 OFFCURVE",
"441 472 OFFCURVE",
"290 472 CURVE SMOOTH",
"147 472 OFFCURVE",
"35 375 OFFCURVE",
"35 228 CURVE SMOOTH",
"35 81 OFFCURVE",
"143 -14 OFFCURVE",
"290 -14 CURVE SMOOTH"
);
},
{
closed = 1;
nodes = (
"219 93 OFFCURVE",
"155 142 OFFCURVE",
"156 228 CURVE SMOOTH",
"157 307 OFFCURVE",
"214 363 OFFCURVE",
"296 363 CURVE SMOOTH",
"379 363 OFFCURVE",
"437 306 OFFCURVE",
"438 225 CURVE SMOOTH",
"439 155 OFFCURVE",
"377 93 OFFCURVE",
"296 93 CURVE SMOOTH"
);
},
{
closed = 1;
nodes = (
"561 -291 LINE",
"561 460 LINE",
"434 460 LINE",
"434 357 LINE",
"481 309 LINE",
"481 168 LINE",
"434 125 LINE",
"434 -291 LINE"
);
}
);
width = 633;
},
{
associatedMasterId = "D36B0F94-A848-4C2C-9ADF-F92FCBE7F4F5";
hints = (
{
origin = "{2, 7}";
target = "{2, 0}";
scale = "{1.0397, 1}";
type = Cap;
name = _cap.serf;
options = 3;
},
{
origin = "{2, 1}";
type = Corner;
name = _corner.serfRight;
}
);
layerId = "2F48C4A3-0C52-46B0-A819-1EA1E53E0F8A";
name = "Feb 15 20, 17:21";
paths = (
{
closed = 1;
nodes = (
"439 -14 OFFCURVE",
"518 131 OFFCURVE",
"519 228 CURVE SMOOTH",
"520 337 OFFCURVE",
"441 472 OFFCURVE",
"280 472 CURVE SMOOTH",
"137 472 OFFCURVE",
"25 375 OFFCURVE",
"25 228 CURVE SMOOTH",
"25 81 OFFCURVE",
"133 -14 OFFCURVE",
"280 -14 CURVE SMOOTH"
);
},
{
closed = 1;
nodes = (
"209 93 OFFCURVE",
"145 142 OFFCURVE",
"146 228 CURVE SMOOTH",
"147 307 OFFCURVE",
"204 363 OFFCURVE",
"286 363 CURVE SMOOTH",
"369 363 OFFCURVE",
"427 306 OFFCURVE",
"428 225 CURVE SMOOTH",
"429 155 OFFCURVE",
"367 93 OFFCURVE",
"286 93 CURVE SMOOTH"
);
},
{
closed = 1;
nodes = (
"555 -321 LINE",
"555 460 LINE",
"424 460 LINE",
"424 357 LINE",
"471 309 LINE",
"471 168 LINE",
"424 125 LINE",
"424 -321 LINE"
);
}
);
width = 613;
}
);
leftMetricsKey = o;
rightMetricsKey = d;
unicode = 0071;
},
{
glyphname = r;
lastChange = "2020-03-14 10:44:02 +0000";
layers = (
{
hints = (
{
origin = "{1, 3}";
target = "{1, 0}";
scale = "{0.98413, 1}";
type = Cap;
name = _cap.serf;
options = 3;
},
{
origin = "{0, 7}";
target = "{0, 8}";
scale = "{0.9444, 1}";
type = Cap;
name = _cap.serf;
options = 3;
},
{
origin = "{1, 2}";
type = Corner;
name = _corner.serfLeft;
}
);
layerId = "D36B0F94-A848-4C2C-9ADF-F92FCBE7F4F5";
paths = (
{
closed = 1;
nodes = (
"182 25 LINE",
"182 231 LINE SMOOTH",
"182 297 OFFCURVE",
"254 355 OFFCURVE",
"317 355 CURVE SMOOTH",
"338 355 OFFCURVE",
"346 352 OFFCURVE",
"354 350 CURVE",
"354 469 LINE",
"344 470 OFFCURVE",
"333 472 OFFCURVE",
"323 472 CURVE SMOOTH",
"238 472 OFFCURVE",
"141 413 OFFCURVE",
"141 329 CURVE SMOOTH",
"141 25 LINE"
);
},
{
closed = 1;
nodes = (
"182 0 LINE",
"182 460 LINE",
"58 460 LINE",
"58 0 LINE"
);
}
);
width = 369;
},
{
associatedMasterId = "D36B0F94-A848-4C2C-9ADF-F92FCBE7F4F5";
hints = (
{
origin = "{1, 3}";
target = "{1, 0}";
scale = "{1.01587, 1}";
type = Cap;
name = _cap.serf;
options = 3;
},
{
origin = "{0, 7}";
target = "{0, 8}";
scale = "{0.9444, 1}";
type = Cap;
name = _cap.serf;
options = 3;
},
{
origin = "{1, 2}";
type = Corner;
name = _corner.serfLeft;
}
);
layerId = "4B7AB78A-E445-4B11-A85C-CE4DC5213DA5";
name = "Mar 14 20, 19:43";
paths = (
{
closed = 1;
nodes = (
"186 25 LINE",
"186 231 LINE SMOOTH",
"186 297 OFFCURVE",
"254 355 OFFCURVE",
"317 355 CURVE SMOOTH",
"338 355 OFFCURVE",
"346 352 OFFCURVE",
"354 350 CURVE",
"354 469 LINE",
"344 470 OFFCURVE",
"333 472 OFFCURVE",
"323 472 CURVE SMOOTH",
"238 472 OFFCURVE",
"145 413 OFFCURVE",
"145 329 CURVE SMOOTH",
"145 25 LINE"
);
},
{
closed = 1;
nodes = (
"186 0 LINE",
"186 460 LINE",
"58 460 LINE",
"58 0 LINE"
);
}
);
width = 369;
}
);
unicode = 0072;
},
{
glyphname = s;
lastChange = "2020-03-14 04:48:26 +0000";
layers = (
{
hints = (
{
origin = "{0, 33}";
target = "{0, 34}";
scale = "{0.88846, 1}";
type = Cap;
name = _cap.serf;
options = 3;
},
{
origin = "{0, 14}";
target = "{0, 15}";
scale = "{0.79887, 1}";
type = Cap;
name = _cap.serf;
options = 3;
}
);
layerId = "D36B0F94-A848-4C2C-9ADF-F92FCBE7F4F5";
paths = (
{
closed = 1;
nodes = (
"344 -15 OFFCURVE",
"426 29 OFFCURVE",
"426 143 CURVE SMOOTH",
"426 220 OFFCURVE",
"365 268 OFFCURVE",
"276 294 CURVE SMOOTH",
"201 317 OFFCURVE",
"187 327 OFFCURVE",
"187 351 CURVE SMOOTH",
"187 372 OFFCURVE",
"204 383 OFFCURVE",
"232 383 CURVE SMOOTH",
"271 383 OFFCURVE",
"294 364 OFFCURVE",
"326 335 CURVE",
"392 411 LINE",
"323 462 OFFCURVE",
"289 479 OFFCURVE",
"233 479 CURVE SMOOTH",
"137 479 OFFCURVE",
"80 419 OFFCURVE",
"80 337 CURVE SMOOTH",
"80 265 OFFCURVE",
"122 229 OFFCURVE",
"215 204 CURVE SMOOTH",
"277 187 OFFCURVE",
"317 174 OFFCURVE",
"317 141 CURVE SMOOTH",
"317 107 OFFCURVE",
"291 90 OFFCURVE",
"240 90 CURVE SMOOTH",
"189 90 OFFCURVE",
"148 121 OFFCURVE",
"97 170 CURVE",
"23 86 LINE",
"88 28 OFFCURVE",
"159 -15 OFFCURVE",
"240 -15 CURVE SMOOTH"
);
}
);
width = 451;
},
{
associatedMasterId = "D36B0F94-A848-4C2C-9ADF-F92FCBE7F4F5";
hints = (
{
origin = "{0, 39}";
target = "{0, 40}";
scale = "{0.8631, 1}";
type = Cap;
name = _cap.serf;
options = 3;
},
{
origin = "{0, 17}";
target = "{0, 18}";
scale = "{0.797, 1}";
type = Cap;
name = _cap.serf;
options = 3;
}
);
layerId = "2D0B2E87-4A1D-4D58-9886-ABA8C949FAD2";
name = "Feb 15 20, 17:10";
paths = (
{
closed = 1;
nodes = (
"373 -8 OFFCURVE",
"506 26 OFFCURVE",
"506 146 CURVE SMOOTH",
"506 199 OFFCURVE",
"473 244 OFFCURVE",
"400 259 CURVE",
"376 265 OFFCURVE",
"252 289 OFFCURVE",
"211 298 CURVE SMOOTH",
"188 304 OFFCURVE",
"167 305 OFFCURVE",
"167 323 CURVE SMOOTH",
"167 342 OFFCURVE",
"204 363 OFFCURVE",
"261 363 CURVE SMOOTH",
"315 363 OFFCURVE",
"380 350 OFFCURVE",
"443 302 CURVE",
"505 381 LINE",
"440 430 OFFCURVE",
"369 465 OFFCURVE",
"265 465 CURVE SMOOTH",
"138 465 OFFCURVE",
"46 401 OFFCURVE",
"46 317 CURVE SMOOTH",
"46 246 OFFCURVE",
"88 213 OFFCURVE",
"164 198 CURVE SMOOTH",
"242 181 OFFCURVE",
"275 174 OFFCURVE",
"350 161 CURVE",
"364 158 OFFCURVE",
"376 154 OFFCURVE",
"376 141 CURVE SMOOTH",
"376 125 OFFCURVE",
"364 101 OFFCURVE",
"279 101 CURVE SMOOTH",
"198 101 OFFCURVE",
"135 132 OFFCURVE",
"88 160 CURVE",
"30 68 LINE",
"91 25 OFFCURVE",
"175 -8 OFFCURVE",
"274 -8 CURVE SMOOTH"
);
}
);
width = 536;
}
);
unicode = 0073;
},
{
glyphname = germandbls;
lastChange = "2020-11-22 14:35:52 +0000";
layers = (
{
hints = (
{
origin = "{0, 42}";
target = "{0, 0}";
scale = "{0.99206, 1}";
type = Cap;
name = _cap.serf;
options = 3;
},
{
origin = "{0, 11}";
target = "{0, 12}";
scale = "{0.83333, 1}";
type = Cap;
name = _cap.serf;
options = 3;
},
{
origin = "{0, 22}";
target = "{0, 23}";
scale = "{0.91404, 1}";
type = Cap;
name = _cap.serf;
options = 3;
}
);
layerId = "D36B0F94-A848-4C2C-9ADF-F92FCBE7F4F5";
paths = (
{
closed = 1;
nodes = (
"197 0 LINE",
"197 512 LINE SMOOTH",
"197 593 OFFCURVE",
"246 646 OFFCURVE",
"310 646 CURVE SMOOTH",
"387 646 OFFCURVE",
"423 593 OFFCURVE",
"423 548 CURVE SMOOTH",
"423 496 OFFCURVE",
"386 441 OFFCURVE",
"304 441 CURVE SMOOTH",
"259 441 LINE",
"259 336 LINE",
"350 336 LINE SMOOTH",
"447 336 OFFCURVE",
"493 270 OFFCURVE",
"493 222 CURVE SMOOTH",
"493 145 OFFCURVE",
"435 98 OFFCURVE",
"376 98 CURVE SMOOTH",
"348 98 OFFCURVE",
"313 109 OFFCURVE",
"282 128 CURVE",
"242 20 LINE",
"293 -1 OFFCURVE",
"343 -11 OFFCURVE",
"388 -11 CURVE SMOOTH",
"521 -11 OFFCURVE",
"617 87 OFFCURVE",
"617 219 CURVE SMOOTH",
"617 328 OFFCURVE",
"546 394 OFFCURVE",
"489 421 CURVE",
"519 453 OFFCURVE",
"546 501 OFFCURVE",
"546 550 CURVE SMOOTH",
"546 668 OFFCURVE",
"455 759 OFFCURVE",
"319 759 CURVE SMOOTH",
"167 759 OFFCURVE",
"72 656 OFFCURVE",
"72 494 CURVE SMOOTH",
"72 0 LINE"
);
}
);
width = 657;
},
{
associatedMasterId = "D36B0F94-A848-4C2C-9ADF-F92FCBE7F4F5";
hints = (
{
origin = "{0, 42}";
target = "{0, 0}";
scale = "{1.03175, 1}";
type = Cap;
name = _cap.serf;
options = 3;
},
{
origin = "{0, 11}";
target = "{0, 12}";
scale = "{0.88889, 1}";
type = Cap;
name = _cap.serf;
options = 3;
},
{
origin = "{0, 22}";
target = "{0, 23}";
scale = "{1.04407, 1}";
type = Cap;
name = _cap.serf;
options = 3;
}
);
layerId = "72644580-6251-4337-8192-36D03ED432BD";
name = "Mar 13 20, 23:10";
paths = (
{
closed = 1;
nodes = (
"203 0 LINE",
"203 507 LINE SMOOTH",
"203 588 OFFCURVE",
"249 633 OFFCURVE",
"313 633 CURVE SMOOTH",
"379 633 OFFCURVE",
"415 593 OFFCURVE",
"415 548 CURVE SMOOTH",
"415 496 OFFCURVE",
"388 455 OFFCURVE",
"306 455 CURVE SMOOTH",
"261 455 LINE",
"261 343 LINE",
"352 343 LINE SMOOTH",
"449 343 OFFCURVE",
"477 292 OFFCURVE",
"477 245 CURVE SMOOTH",
"477 189 OFFCURVE",
"436 160 OFFCURVE",
"377 160 CURVE SMOOTH",
"349 160 OFFCURVE",
"317 166 OFFCURVE",
"286 185 CURVE",
"245 60 LINE",
"296 39 OFFCURVE",
"346 29 OFFCURVE",
"391 29 CURVE SMOOTH",
"524 29 OFFCURVE",
"620 107 OFFCURVE",
"620 239 CURVE SMOOTH",
"620 348 OFFCURVE",
"555 402 OFFCURVE",
"498 429 CURVE",
"528 461 OFFCURVE",
"549 501 OFFCURVE",
"549 550 CURVE SMOOTH",
"549 668 OFFCURVE",
"458 762 OFFCURVE",
"322 762 CURVE SMOOTH",
"160 762 OFFCURVE",
"73 656 OFFCURVE",
"73 494 CURVE SMOOTH",
"73 0 LINE"
);
}
);
width = 660;
},
{
associatedMasterId = "D36B0F94-A848-4C2C-9ADF-F92FCBE7F4F5";
hints = (
{
origin = "{0, 42}";
target = "{0, 0}";
scale = "{1.03175, 1}";
type = Cap;
name = _cap.serf;
options = 3;
},
{
origin = "{0, 11}";
target = "{0, 12}";
scale = "{0.84127, 1}";
type = Cap;
name = _cap.serf;
options = 3;
},
{
origin = "{0, 22}";
target = "{0, 23}";
scale = "{0.95884, 1}";
type = Cap;
name = _cap.serf;
options = 3;
}
);
layerId = "91388C46-4C44-4026-B16E-07CE5B7DFBDA";
name = "Nov 22 20, 23:26";
paths = (
{
closed = 1;
nodes = (
"203 0 LINE",
"203 507 LINE SMOOTH",
"203 588 OFFCURVE",
"249 638 OFFCURVE",
"313 638 CURVE SMOOTH",
"379 638 OFFCURVE",
"419 593 OFFCURVE",
"419 548 CURVE SMOOTH",
"419 496 OFFCURVE",
"388 455 OFFCURVE",
"306 455 CURVE SMOOTH",
"261 455 LINE",
"261 349 LINE",
"352 349 LINE SMOOTH",
"449 349 OFFCURVE",
"486 292 OFFCURVE",
"486 245 CURVE SMOOTH",
"486 189 OFFCURVE",
"435 149 OFFCURVE",
"376 149 CURVE SMOOTH",
"348 149 OFFCURVE",
"316 155 OFFCURVE",
"285 174 CURVE",
"245 60 LINE",
"296 39 OFFCURVE",
"346 29 OFFCURVE",
"391 29 CURVE SMOOTH",
"524 29 OFFCURVE",
"620 107 OFFCURVE",
"620 239 CURVE SMOOTH",
"620 348 OFFCURVE",
"555 402 OFFCURVE",
"498 429 CURVE",
"528 461 OFFCURVE",
"549 501 OFFCURVE",
"549 550 CURVE SMOOTH",
"549 668 OFFCURVE",
"458 762 OFFCURVE",
"322 762 CURVE SMOOTH",
"160 762 OFFCURVE",
"73 656 OFFCURVE",
"73 494 CURVE SMOOTH",
"73 0 LINE"
);
}
);
width = 660;
}
);
leftMetricsKey = I;
rightMetricsKey = B;
unicode = 00DF;
},
{
glyphname = t;
lastChange = "2020-03-14 10:57:25 +0000";
layers = (
{
hints = (
{
origin = "{0, 1}";
target = "{0, 2}";
scale = "{0.96032, 1}";
type = Cap;
name = _cap.serf;
options = 3;
},
{
origin = "{0, 3}";
target = "{0, 0}";
scale = "{0.96032, 1}";
type = Cap;
name = _cap.serf;
options = 3;
},
{
origin = "{1, 2}";
target = "{1, 3}";
scale = "{0.8889, 1}";
type = Cap;
name = _cap.serf;
options = 3;
},
{
origin = "{1, 0}";
target = "{1, 1}";
scale = "{0.8889, 1}";
type = Cap;
name = _cap.serf;
options = 3;
}
);
layerId = "D36B0F94-A848-4C2C-9ADF-F92FCBE7F4F5";
paths = (
{
closed = 1;
nodes = (
"219 0 LINE",
"219 607 LINE",
"98 607 LINE",
"98 0 LINE"
);
},
{
closed = 1;
nodes = (
"314 348 LINE",
"314 460 LINE",
"20 460 LINE",
"20 348 LINE"
);
}
);
width = 334;
},
{
associatedMasterId = "D36B0F94-A848-4C2C-9ADF-F92FCBE7F4F5";
hints = (
{
origin = "{0, 1}";
target = "{0, 2}";
scale = "{0.97619, 1}";
type = Cap;
name = _cap.serf;
options = 3;
},
{
origin = "{0, 3}";
target = "{0, 0}";
scale = "{0.97619, 1}";
type = Cap;
name = _cap.serf;
options = 3;
},
{
origin = "{1, 2}";
target = "{1, 3}";
scale = "{0.8889, 1}";
type = Cap;
name = _cap.serf;
options = 3;
},
{
origin = "{1, 0}";
target = "{1, 1}";
scale = "{0.8889, 1}";
type = Cap;
name = _cap.serf;
options = 3;
}
);
layerId = "5DE7386F-BA7F-4782-B0F7-F73093CAFFCF";
name = "Mar 14 20, 13:42";
paths = (
{
closed = 1;
nodes = (
"221 0 LINE",
"221 607 LINE",
"98 607 LINE",
"98 0 LINE"
);
},
{
closed = 1;
nodes = (
"314 348 LINE",
"314 460 LINE",
"20 460 LINE",
"20 348 LINE"
);
}
);
width = 334;
}
);
unicode = 0074;
},
{
glyphname = u;
lastChange = "2020-11-22 14:36:15 +0000";
layers = (
{
hints = (
{
origin = "{0, 15}";
target = "{0, 16}";
type = Cap;
name = _cap.serf;
options = 3;
},
{
origin = "{0, 6}";
target = "{0, 7}";
scale = "{0.98413, 1}";
type = Cap;
name = _cap.serf;
options = 3;
},
{
origin = "{1, 0}";
type = Corner;
name = _corner.serfLeft;
}
);
layerId = "D36B0F94-A848-4C2C-9ADF-F92FCBE7F4F5";
paths = (
{
closed = 1;
nodes = (
"383 -9 OFFCURVE",
"451 80 OFFCURVE",
"465 170 CURVE SMOOTH",
"476 242 OFFCURVE",
"496 286 OFFCURVE",
"496 333 CURVE SMOOTH",
"496 460 LINE",
"372 460 LINE",
"372 205 LINE SMOOTH",
"372 153 OFFCURVE",
"346 109 OFFCURVE",
"284 109 CURVE SMOOTH",
"218 109 OFFCURVE",
"194 159 OFFCURVE",
"194 211 CURVE SMOOTH",
"194 460 LINE",
"68 460 LINE",
"68 203 LINE SMOOTH",
"68 94 OFFCURVE",
"121 -9 OFFCURVE",
"271 -9 CURVE SMOOTH"
);
},
{
closed = 1;
nodes = (
"496 0 LINE",
"496 460 LINE",
"375 460 LINE",
"375 349 LINE",
"417 298 LINE",
"417 165 LINE",
"394 133 LINE",
"394 0 LINE"
);
}
);
width = 564;
}
);
leftMetricsKey = l;
rightMetricsKey = l;
unicode = 0075;
},
{
glyphname = v;
lastChange = "2020-03-13 13:34:33 +0000";
layers = (
{
hints = (
{
origin = "{0, 4}";
type = Corner;
name = _corner.serfRight2;
},
{
origin = "{0, 5}";
type = Corner;
name = _corner.serfLeft0;
options = 1;
},
{
origin = "{0, 1}";
type = Corner;
name = _corner.serfRight0;
},
{
origin = "{0, 2}";
type = Corner;
name = _corner.serfLeft2;
options = 1;
},
{
origin = "{0, 6}";
target = "{0, 0}";
type = Cap;
name = _cap.serf2;
options = 2;
}
);
layerId = "D36B0F94-A848-4C2C-9ADF-F92FCBE7F4F5";
paths = (
{
closed = 1;
nodes = (
"348 0 LINE",
"562 460 LINE",
"438 460 LINE",
"291 136 LINE",
"152 460 LINE",
"22 460 LINE",
"221 0 LINE"
);
}
);
width = 584;
}
);
unicode = 0076;
},
{
glyphname = w;
lastChange = "2020-03-13 12:23:24 +0000";
layers = (
{
hints = (
{
origin = "{0, 12}";
target = "{0, 0}";
scale = "{1.01587, 1}";
type = Cap;
name = _cap.serf2;
options = 3;
},
{
origin = "{0, 2}";
target = "{0, 3}";
scale = "{1.0397, 1}";
type = Cap;
name = _cap.serf2;
options = 3;
},
{
origin = "{0, 7}";
target = "{0, 8}";
scale = "{0.8413, 1}";
type = Cap;
name = _cap.serf2;
options = 3;
},
{
origin = "{0, 4}";
type = Corner;
name = _corner.serfRight0;
},
{
origin = "{0, 5}";
type = Corner;
name = _corner.serfLeft2;
options = 1;
},
{
origin = "{0, 10}";
type = Corner;
name = _corner.serfRight2;
},
{
origin = "{0, 11}";
type = Corner;
name = _corner.serfLeft0;
options = 1;
}
);
layerId = "D36B0F94-A848-4C2C-9ADF-F92FCBE7F4F5";
paths = (
{
closed = 1;
nodes = (
"316 0 LINE",
"406 291 LINE",
"482 0 LINE",
"613 0 LINE",
"778 460 LINE",
"669 460 LINE",
"551 137 LINE",
"464 460 LINE",
"358 460 LINE",
"261 139 LINE",
"147 460 LINE",
"22 460 LINE",
"188 0 LINE"
);
}
);
width = 800;
}
);
leftMetricsKey = v;
rightMetricsKey = v;
unicode = 0077;
},
{
glyphname = x;
lastChange = "2020-03-06 13:26:40 +0000";
layers = (
{
hints = (
{
origin = "{0, 3}";
scale = "{0.5, 1}";
type = Corner;
name = _corner.serfRight0;
},
{
origin = "{0, 4}";
scale = "{1, 0.97}";
type = Corner;
name = _corner.serfLeft2;
options = 1;
},
{
origin = "{1, 4}";
scale = "{0.5, 1}";
type = Corner;
name = _corner.serfLeft0;
options = 1;
},
{
origin = "{1, 3}";
scale = "{1, 0.96}";
type = Corner;
name = _corner.serfRight2;
},
{
origin = "{0, 7}";
scale = "{0.5, 1}";
type = Corner;
name = _corner.serfRight0;
},
{
origin = "{0, 0}";
scale = "{0.98, 0.97}";
type = Corner;
name = _corner.serfLeft2;
options = 1;
},
{
origin = "{1, 7}";
type = Corner;
name = _corner.serfRight2;
},
{
origin = "{1, 0}";
scale = "{0.5, 1}";
type = Corner;
name = _corner.serfLeft0;
options = 1;
}
);
layerId = "D36B0F94-A848-4C2C-9ADF-F92FCBE7F4F5";
paths = (
{
closed = 1;
nodes = (
"170 0 LINE",
"301 171 LINE",
"344 222 LINE",
"526 460 LINE",
"386 460 LINE",
"261 298 LINE",
"220 250 LINE",
"31 0 LINE"
);
},
{
closed = 1;
nodes = (
"522 0 LINE",
"326 258 LINE",
"286 303 LINE",
"167 460 LINE",
"30 460 LINE",
"212 221 LINE",
"256 169 LINE",
"384 0 LINE"
);
}
);
width = 554;
},
{
associatedMasterId = "D36B0F94-A848-4C2C-9ADF-F92FCBE7F4F5";
hints = (
{
origin = "{0, 3}";
scale = "{0.5, 1}";
type = Corner;
name = _corner.serfRight0;
},
{
origin = "{0, 4}";
type = Corner;
name = _corner.serfLeft2;
options = 1;
},
{
origin = "{1, 4}";
scale = "{0.5, 1}";
type = Corner;
name = _corner.serfLeft0;
options = 1;
},
{
origin = "{1, 3}";
type = Corner;
name = _corner.serfRight2;
},
{
origin = "{0, 7}";
scale = "{0.5, 1}";
type = Corner;
name = _corner.serfRight0;
},
{
origin = "{0, 0}";
type = Corner;
name = _corner.serfLeft2;
options = 1;
},
{
origin = "{1, 7}";
type = Corner;
name = _corner.serfRight2;
},
{
origin = "{1, 0}";
scale = "{0.5, 1}";
type = Corner;
name = _corner.serfLeft0;
options = 1;
}
);
layerId = "1FB68150-4A37-4C03-8836-3E0BBE2B7883";
name = "Feb 15 20, 10:43";
paths = (
{
closed = 1;
nodes = (
"167 0 LINE",
"298 171 LINE",
"341 222 LINE",
"523 460 LINE",
"386 460 LINE",
"261 298 LINE",
"220 250 LINE",
"31 0 LINE"
);
},
{
closed = 1;
nodes = (
"522 0 LINE",
"326 258 LINE",
"286 303 LINE",
"167 460 LINE",
"33 460 LINE",
"215 221 LINE",
"259 169 LINE",
"387 0 LINE"
);
}
);
width = 554;
}
);
unicode = 0078;
},
{
glyphname = y;
lastChange = "2020-03-13 12:32:29 +0000";
layers = (
{
hints = (
{
origin = "{0, 1}";
type = Corner;
name = _corner.serfRight0;
},
{
origin = "{0, 2}";
type = Corner;
name = _corner.serfLeft2;
options = 1;
},
{
origin = "{1, 1}";
type = Corner;
name = _corner.serfRight2;
},
{
origin = "{1, 2}";
type = Corner;
name = _corner.serfLeft0;
options = 1;
},
{
origin = "{0, 0}";
type = Corner;
name = _corner.serfLeft2;
options = 1;
},
{
origin = "{0, 3}";
type = Corner;
name = _corner.serfRight0;
}
);
layerId = "D36B0F94-A848-4C2C-9ADF-F92FCBE7F4F5";
paths = (
{
closed = 1;
nodes = (
"198 -292 LINE",
"580 460 LINE",
"446 460 LINE",
"64 -292 LINE"
);
},
{
closed = 1;
nodes = (
"375 69 LINE",
"163 460 LINE",
"22 460 LINE",
"277 -11 LINE"
);
}
);
width = 602;
}
);
leftMetricsKey = v;
rightMetricsKey = v;
unicode = 0079;
},
{
glyphname = z;
lastChange = "2020-03-06 13:26:50 +0000";
layers = (
{
hints = (
{
origin = "{2, 2}";
target = "{2, 3}";
scale = "{0.8889, 1}";
type = Cap;
name = _cap.serf;
options = 3;
},
{
origin = "{1, 0}";
target = "{1, 1}";
scale = "{0.881, 1}";
type = Cap;
name = _cap.serf;
options = 3;
}
);
layerId = "D36B0F94-A848-4C2C-9ADF-F92FCBE7F4F5";
paths = (
{
closed = 1;
nodes = (
"148 0 LINE",
"462 426 LINE",
"462 460 LINE",
"340 460 LINE",
"27 32 LINE",
"27 0 LINE"
);
},
{
closed = 1;
nodes = (
"460 0 LINE",
"460 111 LINE",
"109 111 LINE",
"31 0 LINE"
);
},
{
closed = 1;
nodes = (
"365 348 LINE",
"453 460 LINE",
"25 460 LINE",
"25 348 LINE"
);
}
);
width = 487;
}
);
unicode = 007A;
},
{
glyphname = a.ss01;
lastChange = "2020-11-22 15:51:48 +0000";
layers = (
{
hints = (
{
origin = "{0, 0}";
type = Corner;
name = _corner.serfLeft;
},
{
origin = "{0, 0}";
type = Corner;
name = _corner.serfRight;
},
{
origin = "{0, 7}";
target = "{0, 8}";
scale = "{0.84891, 1}";
type = Cap;
name = _cap.serf;
options = 3;
}
);
layerId = "D36B0F94-A848-4C2C-9ADF-F92FCBE7F4F5";
paths = (
{
closed = 1;
nodes = (
"517 0 LINE",
"517 260 LINE SMOOTH",
"517 402 OFFCURVE",
"386 478 OFFCURVE",
"271 478 CURVE SMOOTH",
"236 478 OFFCURVE",
"154 478 OFFCURVE",
"51 393 CURVE",
"122 313 LINE",
"152 367 OFFCURVE",
"233 379 OFFCURVE",
"280 379 CURVE SMOOTH",
"335 379 OFFCURVE",
"391 346 OFFCURVE",
"391 260 CURVE SMOOTH",
"391 0 LINE"
);
},
{
closed = 1;
nodes = (
"428 -13 OFFCURVE",
"476 135 OFFCURVE",
"476 182 CURVE SMOOTH",
"476 224 OFFCURVE",
"534 239 OFFCURVE",
"446 296 CURVE",
"370 299 OFFCURVE",
"337 306 OFFCURVE",
"225 299 CURVE SMOOTH",
"127 293 OFFCURVE",
"35 247 OFFCURVE",
"35 139 CURVE SMOOTH",
"35 51 OFFCURVE",
"105 -13 OFFCURVE",
"212 -13 CURVE SMOOTH"
);
},
{
closed = 1;
nodes = (
"190 80 OFFCURVE",
"171 103 OFFCURVE",
"171 139 CURVE SMOOTH",
"171 165 OFFCURVE",
"191 188 OFFCURVE",
"227 191 CURVE SMOOTH",
"298 197 OFFCURVE",
"393 193 OFFCURVE",
"433 193 CURVE",
"433 145 OFFCURVE",
"391 216 OFFCURVE",
"391 167 CURVE SMOOTH",
"391 123 OFFCURVE",
"350 80 OFFCURVE",
"246 80 CURVE SMOOTH"
);
}
);
width = 585;
}
);
leftMetricsKey = a;
rightMetricsKey = a;
},
{
glyphname = f_f;
lastChange = "2020-03-06 13:19:10 +0000";
layers = (
{
hints = (
{
origin = "{2, 0}";
scale = "{0.8651, 1}";
type = Cap;
name = _cap.serf;
options = 3;
},
{
origin = "{2, 2}";
scale = "{0.8651, 1}";
type = Cap;
name = _cap.serf;
options = 3;
},
{
origin = "{1, 4}";
scale = "{1.0253, 1}";
type = Cap;
name = _cap.serf;
options = 3;
},
{
origin = "{1, 9}";
scale = "{0.99206, 1}";
type = Cap;
name = _cap.serf;
options = 3;
},
{
origin = "{0, 4}";
scale = "{1.0253, 1}";
type = Cap;
name = _cap.serf;
options = 3;
},
{
origin = "{0, 9}";
scale = "{0.99206, 1}";
type = Cap;
name = _cap.serf;
options = 3;
}
);
layerId = "D36B0F94-A848-4C2C-9ADF-F92FCBE7F4F5";
paths = (
{
closed = 1;
nodes = (
"469 0 LINE",
"469 575 LINE SMOOTH",
"469 609 OFFCURVE",
"488 638 OFFCURVE",
"541 632 CURVE",
"534 761 LINE",
"421 769 OFFCURVE",
"344 706 OFFCURVE",
"344 608 CURVE SMOOTH",
"344 0 LINE"
);
},
{
closed = 1;
nodes = (
"224 0 LINE",
"224 575 LINE SMOOTH",
"224 609 OFFCURVE",
"243 638 OFFCURVE",
"296 632 CURVE",
"289 761 LINE",
"176 769 OFFCURVE",
"99 706 OFFCURVE",
"99 608 CURVE SMOOTH",
"99 0 LINE"
);
},
{
closed = 1;
nodes = (
"565 349 LINE",
"565 458 LINE",
"25 458 LINE",
"25 349 LINE"
);
}
);
width = 590;
}
);
leftMetricsKey = f;
rightMetricsKey = f;
},
{
glyphname = f_f_i;
lastChange = "2020-03-14 06:14:49 +0000";
layers = (
{
hints = (
{
origin = "{1, 4}";
scale = "{1.0253, 1}";
type = Cap;
name = _cap.serf;
options = 3;
},
{
origin = "{1, 9}";
scale = "{0.99206, 1}";
type = Cap;
name = _cap.serf;
options = 3;
},
{
origin = "{2, 2}";
scale = "{0.8651, 1}";
type = Cap;
name = _cap.serf;
options = 3;
},
{
origin = "{0, 7}";
scale = "{1.02292, 1}";
type = Cap;
name = _cap.serf;
options = 3;
},
{
origin = "{0, 15}";
scale = "{0.99206, 1}";
type = Cap;
name = _cap.serf;
options = 3;
},
{
origin = "{3, 1}";
scale = "{1.0159, 1}";
type = Cap;
name = _cap.serf;
options = 3;
},
{
origin = "{3, 3}";
scale = "{1.0159, 1}";
type = Cap;
name = _cap.serf;
options = 3;
}
);
layerId = "D36B0F94-A848-4C2C-9ADF-F92FCBE7F4F5";
paths = (
{
closed = 1;
nodes = (
"469 0 LINE",
"469 566 LINE SMOOTH",
"469 604 OFFCURVE",
"492 630 OFFCURVE",
"528 630 CURVE SMOOTH",
"559 630 OFFCURVE",
"577 613 OFFCURVE",
"608 574 CURVE",
"704 660 LINE",
"671 686 OFFCURVE",
"613 757 OFFCURVE",
"521 757 CURVE SMOOTH",
"433 757 OFFCURVE",
"344 704 OFFCURVE",
"344 565 CURVE SMOOTH",
"344 0 LINE"
);
},
{
closed = 1;
nodes = (
"224 0 LINE",
"224 575 LINE SMOOTH",
"224 609 OFFCURVE",
"243 638 OFFCURVE",
"296 632 CURVE",
"289 761 LINE",
"176 769 OFFCURVE",
"99 706 OFFCURVE",
"99 608 CURVE SMOOTH",
"99 0 LINE"
);
},
{
closed = 1;
nodes = (
"675 349 LINE",
"675 458 LINE",
"25 458 LINE",
"25 349 LINE"
);
},
{
closed = 1;
nodes = (
"710 0 LINE",
"710 458 LINE",
"582 458 LINE",
"582 0 LINE"
);
}
);
width = 792;
}
);
leftMetricsKey = f;
rightMetricsKey = i;
},
{
glyphname = f_f_l;
lastChange = "2020-11-22 15:51:48 +0000";
layers = (
{
hints = (
{
origin = "{0, 8}";
type = Corner;
name = _corner.serfRight2;
},
{
origin = "{0, 15}";
scale = "{0.99206, 1}";
type = Cap;
name = _cap.serf;
options = 3;
},
{
origin = "{3, 3}";
scale = "{1.0317, 1}";
type = Cap;
name = _cap.serf;
options = 3;
},
{
origin = "{2, 0}";
scale = "{0.8651, 1}";
type = Cap;
name = _cap.serf;
options = 3;
},
{
origin = "{2, 2}";
scale = "{0.8651, 1}";
type = Cap;
name = _cap.serf;
options = 3;
},
{
origin = "{1, 4}";
scale = "{1.0253, 1}";
type = Cap;
name = _cap.serf;
options = 3;
},
{
origin = "{1, 9}";
scale = "{0.99206, 1}";
type = Cap;
name = _cap.serf;
options = 3;
}
);
layerId = "D36B0F94-A848-4C2C-9ADF-F92FCBE7F4F5";
paths = (
{
closed = 1;
nodes = (
"469 0 LINE",
"469 575 LINE SMOOTH",
"469 630 OFFCURVE",
"505 661 OFFCURVE",
"560 661 CURVE SMOOTH",
"621 661 OFFCURVE",
"694 620 OFFCURVE",
"743 564 CURVE",
"743 744 LINE",
"682 765 OFFCURVE",
"613 780 OFFCURVE",
"545 780 CURVE SMOOTH",
"445 780 OFFCURVE",
"344 724 OFFCURVE",
"344 602 CURVE SMOOTH",
"344 0 LINE"
);
},
{
closed = 1;
nodes = (
"224 0 LINE",
"224 575 LINE SMOOTH",
"224 609 OFFCURVE",
"243 638 OFFCURVE",
"296 632 CURVE",
"289 761 LINE",
"176 769 OFFCURVE",
"99 706 OFFCURVE",
"99 608 CURVE SMOOTH",
"99 0 LINE"
);
},
{
closed = 1;
nodes = (
"565 349 LINE",
"565 458 LINE",
"25 458 LINE",
"25 349 LINE"
);
},
{
closed = 1;
nodes = (
"743 0 LINE",
"743 731 LINE",
"613 731 LINE",
"613 0 LINE"
);
}
);
width = 819;
}
);
leftMetricsKey = f;
rightMetricsKey = l;
},
{
glyphname = f_i;
lastChange = "2020-03-14 06:14:49 +0000";
layers = (
{
hints = (
{
origin = "{0, 2}";
scale = "{0.8651, 1}";
type = Cap;
name = _cap.serf;
options = 3;
},
{
origin = "{1, 7}";
scale = "{1.02292, 1}";
type = Cap;
name = _cap.serf;
options = 3;
},
{
origin = "{1, 15}";
scale = "{0.99206, 1}";
type = Cap;
name = _cap.serf;
options = 3;
},
{
origin = "{2, 1}";
target = "{2, 2}";
scale = "{1.0159, 1}";
type = Cap;
name = _cap.serf;
options = 3;
},
{
origin = "{2, 3}";
target = "{2, 0}";
scale = "{1.0159, 1}";
type = Cap;
name = _cap.serf;
options = 3;
}
);
layerId = "D36B0F94-A848-4C2C-9ADF-F92FCBE7F4F5";
paths = (
{
closed = 1;
nodes = (
"430 349 LINE",
"430 458 LINE",
"25 458 LINE",
"25 349 LINE"
);
},
{
closed = 1;
nodes = (
"224 0 LINE",
"224 566 LINE SMOOTH",
"224 604 OFFCURVE",
"247 630 OFFCURVE",
"283 630 CURVE SMOOTH",
"314 630 OFFCURVE",
"332 613 OFFCURVE",
"363 574 CURVE",
"459 660 LINE",
"426 686 OFFCURVE",
"368 757 OFFCURVE",
"276 757 CURVE SMOOTH",
"188 757 OFFCURVE",
"99 704 OFFCURVE",
"99 565 CURVE SMOOTH",
"99 0 LINE"
);
},
{
closed = 1;
nodes = (
"465 0 LINE",
"465 458 LINE",
"337 458 LINE",
"337 0 LINE"
);
}
);
width = 547;
},
{
associatedMasterId = "D36B0F94-A848-4C2C-9ADF-F92FCBE7F4F5";
hints = (
{
origin = "{0, 2}";
scale = "{0.8651, 1}";
type = Cap;
name = _cap.serf;
options = 3;
},
{
origin = "{1, 4}";
scale = "{1.0253, 1}";
type = Cap;
name = _cap.serf;
options = 3;
},
{
origin = "{1, 9}";
scale = "{0.99206, 1}";
type = Cap;
name = _cap.serf;
options = 3;
},
{
origin = "{2, 1}";
target = "{2, 2}";
scale = "{1.0159, 1}";
type = Cap;
name = _cap.serf;
options = 3;
},
{
origin = "{2, 3}";
target = "{2, 0}";
scale = "{1.0159, 1}";
type = Cap;
name = _cap.serf;
options = 3;
}
);
layerId = "A5F73C3B-AEF2-46E0-841A-D505C3244BD1";
name = "Mar 6 20, 22:10";
paths = (
{
closed = 1;
nodes = (
"430 349 LINE",
"430 458 LINE",
"25 458 LINE",
"25 349 LINE"
);
},
{
closed = 1;
nodes = (
"224 0 LINE",
"224 575 LINE SMOOTH",
"224 609 OFFCURVE",
"243 638 OFFCURVE",
"296 632 CURVE",
"289 761 LINE",
"176 769 OFFCURVE",
"99 706 OFFCURVE",
"99 608 CURVE SMOOTH",
"99 0 LINE"
);
},
{
closed = 1;
nodes = (
"465 0 LINE",
"465 458 LINE",
"337 458 LINE",
"337 0 LINE"
);
}
);
width = 597;
}
);
leftMetricsKey = f;
rightMetricsKey = i;
},
{
glyphname = f_l;
lastChange = "2020-11-22 15:51:48 +0000";
layers = (
{
hints = (
{
origin = "{0, 0}";
scale = "{0.8651, 1}";
type = Cap;
name = _cap.serf;
options = 3;
},
{
origin = "{0, 2}";
scale = "{0.8651, 1}";
type = Cap;
name = _cap.serf;
options = 3;
},
{
origin = "{1, 15}";
scale = "{0.99206, 1}";
type = Cap;
name = _cap.serf;
options = 3;
},
{
origin = "{2, 3}";
target = "{2, 0}";
scale = "{1.0317, 1}";
type = Cap;
name = _cap.serf;
options = 3;
},
{
origin = "{1, 8}";
type = Corner;
name = _corner.serfRight2;
}
);
layerId = "D36B0F94-A848-4C2C-9ADF-F92FCBE7F4F5";
paths = (
{
closed = 1;
nodes = (
"320 349 LINE",
"320 458 LINE",
"25 458 LINE",
"25 349 LINE"
);
},
{
closed = 1;
nodes = (
"224 0 LINE",
"224 575 LINE SMOOTH",
"224 630 OFFCURVE",
"260 661 OFFCURVE",
"315 661 CURVE SMOOTH",
"376 661 OFFCURVE",
"449 620 OFFCURVE",
"498 564 CURVE",
"498 744 LINE",
"437 765 OFFCURVE",
"368 780 OFFCURVE",
"300 780 CURVE SMOOTH",
"200 780 OFFCURVE",
"99 724 OFFCURVE",
"99 602 CURVE SMOOTH",
"99 0 LINE"
);
},
{
closed = 1;
nodes = (
"498 0 LINE",
"498 731 LINE",
"368 731 LINE",
"368 0 LINE"
);
}
);
width = 574;
},
{
associatedMasterId = "D36B0F94-A848-4C2C-9ADF-F92FCBE7F4F5";
hints = (
{
origin = "{0, 0}";
scale = "{0.8651, 1}";
type = Cap;
name = _cap.serf;
options = 3;
},
{
origin = "{0, 2}";
scale = "{0.8651, 1}";
type = Cap;
name = _cap.serf;
options = 3;
},
{
origin = "{1, 4}";
scale = "{1.0253, 1}";
type = Cap;
name = _cap.serf;
options = 3;
},
{
origin = "{1, 9}";
scale = "{0.99206, 1}";
type = Cap;
name = _cap.serf;
options = 3;
},
{
origin = "{2, 1}";
target = "{2, 2}";
scale = "{1.0317, 1}";
type = Cap;
name = _cap.serf;
options = 3;
},
{
origin = "{2, 3}";
target = "{2, 0}";
scale = "{1.0317, 1}";
type = Cap;
name = _cap.serf;
options = 3;
}
);
layerId = "3F4D6671-90B4-47F8-B94F-19500776AA9E";
name = "Mar 6 20, 22:14";
paths = (
{
closed = 1;
nodes = (
"320 349 LINE",
"320 458 LINE",
"25 458 LINE",
"25 349 LINE"
);
},
{
closed = 1;
nodes = (
"224 0 LINE",
"224 575 LINE SMOOTH",
"224 609 OFFCURVE",
"243 638 OFFCURVE",
"296 632 CURVE",
"289 761 LINE",
"176 769 OFFCURVE",
"99 706 OFFCURVE",
"99 608 CURVE SMOOTH",
"99 0 LINE"
);
},
{
closed = 1;
nodes = (
"498 0 LINE",
"498 750 LINE",
"368 750 LINE",
"368 0 LINE"
);
}
);
width = 601;
}
);
leftMetricsKey = f;
rightMetricsKey = l;
},
{
glyphname = uni4E09;
lastChange = "2019-01-25 12:40:08 +0000";
layers = (
{
hints = (
{
origin = "{0, 2}";
type = Corner;
name = _corner.serfRight;
},
{
origin = "{0, 0}";
type = Corner;
name = _corner.serfRight;
},
{
origin = "{0, 3}";
type = Corner;
name = _corner.serfLeft;
},
{
origin = "{0, 1}";
type = Corner;
name = _corner.serfLeft;
},
{
origin = "{1, 2}";
type = Corner;
name = _corner.serfRight;
},
{
origin = "{1, 0}";
type = Corner;
name = _corner.serfRight;
},
{
origin = "{1, 3}";
type = Corner;
name = _corner.serfLeft;
},
{
origin = "{1, 1}";
type = Corner;
name = _corner.serfLeft;
},
{
origin = "{2, 2}";
type = Corner;
name = _corner.serfRight;
},
{
origin = "{2, 0}";
type = Corner;
name = _corner.serfRight;
},
{
origin = "{2, 3}";
type = Corner;
name = _corner.serfLeft;
},
{
origin = "{2, 1}";
type = Corner;
name = _corner.serfLeft;
}
);
layerId = "D36B0F94-A848-4C2C-9ADF-F92FCBE7F4F5";
paths = (
{
closed = 1;
nodes = (
"849 617 LINE",
"849 746 LINE",
"151 746 LINE",
"151 617 LINE"
);
},
{
closed = 1;
nodes = (
"768 319 LINE",
"768 451 LINE",
"232 451 LINE",
"232 319 LINE"
);
},
{
closed = 1;
nodes = (
"909 0 LINE",
"909 136 LINE",
"91 136 LINE",
"91 0 LINE"
);
}
);
width = 1000;
}
);
unicode = 4E09;
},
{
glyphname = uni4E0A;
lastChange = "2019-01-25 12:39:51 +0000";
layers = (
{
hints = (
{
origin = "{0, 1}";
type = Corner;
name = _corner.serfRight;
},
{
origin = "{0, 2}";
type = Corner;
name = _corner.serfLeft;
},
{
origin = "{1, 3}";
type = Corner;
name = _corner.serfLeft;
},
{
origin = "{1, 1}";
type = Corner;
name = _corner.serfLeft;
},
{
origin = "{2, 1}";
type = Corner;
name = _corner.serfLeft;
},
{
origin = "{2, 0}";
type = Corner;
name = _corner.serfRight;
},
{
origin = "{1, 0}";
type = Corner;
name = _corner.serfRight;
},
{
origin = "{1, 2}";
type = Corner;
name = _corner.serfRight;
}
);
layerId = "D36B0F94-A848-4C2C-9ADF-F92FCBE7F4F5";
paths = (
{
closed = 1;
nodes = (
"543 -4 LINE",
"543 781 LINE",
"411 781 LINE",
"411 -4 LINE"
);
},
{
closed = 1;
nodes = (
"918 -33 LINE",
"918 91 LINE",
"82 91 LINE",
"82 -33 LINE"
);
},
{
closed = 1;
nodes = (
"839 364 LINE",
"839 488 LINE",
"468 488 LINE",
"468 364 LINE"
);
}
);
width = 1000;
}
);
unicode = 4E0A;
},
{
glyphname = uni4E2D;
lastChange = "2019-01-23 04:18:46 +0000";
layers = (
{
hints = (
{
origin = "{4, 0}";
type = Corner;
name = _corner.serfLeft;
options = 1;
},
{
origin = "{4, 3}";
type = Corner;
name = _corner.serfRight;
},
{
origin = "{1, 3}";
type = Corner;
name = _corner.serfRight;
},
{
origin = "{0, 3}";
type = Corner;
name = _corner.serfRight;
},
{
origin = "{0, 1}";
type = Corner;
name = _corner.serfRight;
},
{
origin = "{4, 1}";
type = Corner;
name = _corner.serfRight;
},
{
origin = "{0, 0}";
type = Corner;
name = _corner.serfLeft;
options = 1;
},
{
origin = "{1, 0}";
type = Corner;
name = _corner.serfLeft;
options = 1;
},
{
origin = "{3, 2}";
type = Corner;
name = _corner.serfLeft;
options = 1;
},
{
origin = "{0, 2}";
type = Corner;
name = _corner.serfLeft;
options = 1;
}
);
layerId = "D36B0F94-A848-4C2C-9ADF-F92FCBE7F4F5";
paths = (
{
closed = 1;
nodes = (
"560 -77 LINE",
"560 827 LINE",
"436 827 LINE",
"436 -77 LINE"
);
},
{
closed = 1;
nodes = (
"244 169 LINE",
"244 638 LINE",
"124 638 LINE",
"124 169 LINE"
);
},
{
closed = 1;
nodes = (
"865 231 LINE",
"865 344 LINE",
"124 344 LINE",
"124 231 LINE"
);
},
{
closed = 1;
nodes = (
"865 526 LINE",
"865 638 LINE",
"124 638 LINE",
"124 526 LINE"
);
},
{
closed = 1;
nodes = (
"865 169 LINE",
"865 638 LINE",
"744 638 LINE",
"744 169 LINE"
);
}
);
width = 1000;
}
);
unicode = 4E2D;
},
{
glyphname = uni4E38;
lastChange = "2019-01-31 13:23:02 +0000";
layers = (
{
hints = (
{
origin = "{0, 5}";
type = Corner;
name = _corner.serfRight;
},
{
origin = "{3, 14}";
type = Corner;
name = _corner.serfRight;
},
{
origin = "{3, 3}";
type = Corner;
name = _corner.serfRight;
},
{
origin = "{1, 7}";
type = Corner;
name = _corner.serfRight;
},
{
origin = "{1, 3}";
type = Corner;
name = _corner.serfRight;
},
{
origin = "{0, 12}";
type = Corner;
name = _corner.serfRight;
},
{
origin = "{0, 6}";
type = Corner;
name = _corner.serfLeft;
},
{
origin = "{2, 3}";
type = Corner;
name = _corner.serfLeft;
},
{
origin = "{1, 4}";
type = Corner;
name = _corner.serfLeft;
},
{
origin = "{1, 0}";
type = Corner;
name = _corner.serfLeft;
},
{
origin = "{0, 13}";
type = Corner;
name = _corner.serfLeft;
},
{
origin = "{3, 4}";
type = Corner;
name = _corner.serfLeft;
},
{
origin = "{2, 2}";
type = Corner;
name = _corner.serfRight;
}
);
layerId = "D36B0F94-A848-4C2C-9ADF-F92FCBE7F4F5";
paths = (
{
closed = 1;
nodes = (
"365 93 OFFCURVE",
"485 270 OFFCURVE",
"485 537 CURVE SMOOTH",
"485 601 OFFCURVE",
"485 753 OFFCURVE",
"485 828 CURVE",
"365 828 LINE",
"365 758 OFFCURVE",
"365 600 OFFCURVE",
"365 541 CURVE SMOOTH",
"365 304 OFFCURVE",
"248 156 OFFCURVE",
"29 23 CURVE",
"102 -78 LINE"
);
},
{
closed = 1;
nodes = (
"531 229 LINE",
"397 309 OFFCURVE",
"337 341 OFFCURVE",
"231 397 CURVE",
"175 299 LINE",
"288 241 OFFCURVE",
"348 206 OFFCURVE",
"458 127 CURVE"
);
},
{
closed = 1;
nodes = (
"704 504 LINE",
"704 616 LINE",
"139 616 LINE",
"139 504 LINE"
);
},
{
closed = 1;
nodes = (
"803 -37 LINE SMOOTH",
"891 -37 OFFCURVE",
"941 23 OFFCURVE",
"965 151 CURVE",
"853 179 LINE",
"841 108 OFFCURVE",
"829 74 OFFCURVE",
"778 74 CURVE SMOOTH",
"738 74 LINE SMOOTH",
"702 74 OFFCURVE",
"683 93 OFFCURVE",
"684 125 CURVE SMOOTH",
"688 252 OFFCURVE",
"707 398 OFFCURVE",
"725 616 CURVE",
"600 616 LINE",
"585 388 OFFCURVE",
"574 273 OFFCURVE",
"562 151 CURVE SMOOTH",
"547 0 OFFCURVE",
"639 -37 OFFCURVE",
"719 -37 CURVE SMOOTH"
);
}
);
width = 1000;
}
);
unicode = 4E38;
},
{
glyphname = uni4E8C;
lastChange = "2019-01-25 12:40:20 +0000";
layers = (
{
hints = (
{
origin = "{0, 2}";
type = Corner;
name = _corner.serfRight;
},
{
origin = "{0, 0}";
type = Corner;
name = _corner.serfRight;
},
{
origin = "{0, 3}";
type = Corner;
name = _corner.serfLeft;
options = 1;
},
{
origin = "{0, 1}";
type = Corner;
name = _corner.serfLeft;
options = 1;
},
{
origin = "{1, 2}";
type = Corner;
name = _corner.serfRight;
},
{
origin = "{1, 0}";
type = Corner;
name = _corner.serfRight;
},
{
origin = "{1, 3}";
type = Corner;
name = _corner.serfLeft;
options = 1;
},
{
origin = "{1, 1}";
type = Corner;
name = _corner.serfLeft;
options = 1;
}
);
layerId = "D36B0F94-A848-4C2C-9ADF-F92FCBE7F4F5";
paths = (
{
closed = 1;
nodes = (
"821 547 LINE",
"821 683 LINE",
"179 683 LINE",
"179 547 LINE"
);
},
{
closed = 1;
nodes = (
"909 50 LINE",
"909 186 LINE",
"91 186 LINE",
"91 50 LINE"
);
}
);
width = 1000;
}
);
unicode = 4E8C;
},
{
glyphname = uni4EAC;
lastChange = "2019-01-25 16:13:21 +0000";
layers = (
{
hints = (
{
origin = "{0, 2}";
type = Corner;
name = _corner.serfRight;
},
{
origin = "{0, 0}";
type = Corner;
name = _corner.serfRight;
},
{
origin = "{9, 1}";
type = Corner;
name = _corner.serfRight;
},
{
origin = "{8, 1}";
type = Corner;
name = _corner.serfRight;
},
{
origin = "{4, 3}";
type = Corner;
name = _corner.serfRight;
},
{
origin = "{8, 3}";
type = Corner;
name = _corner.serfRight;
},
{
origin = "{0, 3}";
type = Corner;
name = _corner.serfLeft;
options = 1;
},
{
origin = "{9, 2}";
type = Corner;
name = _corner.serfLeft;
options = 1;
},
{
origin = "{0, 1}";
type = Corner;
name = _corner.serfLeft;
options = 1;
},
{
origin = "{4, 2}";
type = Corner;
name = _corner.serfLeft;
options = 1;
},
{
origin = "{4, 0}";
type = Corner;
name = _corner.serfLeft;
options = 1;
},
{
origin = "{8, 0}";
type = Corner;
name = _corner.serfLeft;
options = 1;
},
{
origin = "{3, 0}";
type = Corner;
name = _corner.serfLeft;
options = 1;
},
{
origin = "{1, 3}";
type = Corner;
name = _corner.serfLeft;
options = 1;
},
{
origin = "{1, 7}";
type = Corner;
name = _corner.serfLeft;
options = 1;
},
{
origin = "{6, 4}";
type = Corner;
name = _corner.serfLeft;
options = 1;
},
{
origin = "{6, 0}";
type = Corner;
name = _corner.serfLeft;
options = 1;
},
{
origin = "{2, 3}";
type = Corner;
name = _corner.serfLeft;
options = 1;
},
{
origin = "{1, 6}";
type = Corner;
name = _corner.serfRight;
},
{
origin = "{1, 2}";
type = Corner;
name = _corner.serfRight;
},
{
origin = "{2, 2}";
type = Corner;
name = _corner.serfRight;
},
{
origin = "{6, 7}";
type = Corner;
name = _corner.serfRight;
},
{
origin = "{6, 3}";
type = Corner;
name = _corner.serfRight;
}
);
layerId = "D36B0F94-A848-4C2C-9ADF-F92FCBE7F4F5";
paths = (
{
closed = 1;
nodes = (
"911 604 LINE",
"911 709 LINE",
"109 709 LINE",
"109 604 LINE"
);
},
{
closed = 1;
nodes = (
"227 -7 OFFCURVE",
"299 44 OFFCURVE",
"371 118 CURVE",
"305 186 LINE",
"239 125 OFFCURVE",
"183 81 OFFCURVE",
"83 18 CURVE",
"147 -66 LINE"
);
},
{
closed = 1;
nodes = (
"551 -76 LINE",
"551 24 LINE",
"375 24 LINE",
"375 -76 LINE"
);
},
{
closed = 1;
nodes = (
"574 -76 LINE",
"574 313 LINE",
"459 313 LINE",
"459 -76 LINE"
);
},
{
closed = 1;
nodes = (
"335 223 LINE",
"335 552 LINE",
"224 552 LINE",
"224 223 LINE"
);
},
{
closed = 1;
nodes = (
"782 260 LINE",
"782 354 LINE",
"238 354 LINE",
"238 260 LINE"
);
},
{
closed = 1;
nodes = (
"909 18 LINE",
"817 89 OFFCURVE",
"764 139 OFFCURVE",
"714 187 CURVE",
"642 122 LINE",
"697 68 OFFCURVE",
"760 5 OFFCURVE",
"831 -60 CURVE"
);
},
{
closed = 1;
nodes = (
"782 455 LINE",
"782 552 LINE",
"238 552 LINE",
"238 455 LINE"
);
},
{
closed = 1;
nodes = (
"802 223 LINE",
"802 552 LINE",
"691 552 LINE",
"691 223 LINE"
);
},
{
closed = 1;
nodes = (
"556 650 LINE",
"556 832 LINE",
"443 832 LINE",
"443 650 LINE"
);
}
);
width = 1000;
}
);
unicode = 4EAC;
},
{
glyphname = uni4EBA;
lastChange = "2019-01-26 13:10:09 +0000";
layers = (
{
hints = (
{
origin = "{1, 7}";
type = Corner;
name = _corner.serfRight;
},
{
origin = "{0, 2}";
type = Corner;
name = _corner.serfRight;
},
{
origin = "{0, 6}";
type = Corner;
name = _corner.serfRight;
},
{
origin = "{0, 7}";
type = Corner;
name = _corner.serfLeft;
options = 1;
},
{
origin = "{1, 0}";
type = Corner;
name = _corner.serfLeft;
options = 1;
},
{
origin = "{0, 3}";
type = Corner;
name = _corner.serfLeft;
options = 1;
}
);
layerId = "D36B0F94-A848-4C2C-9ADF-F92FCBE7F4F5";
paths = (
{
closed = 1;
nodes = (
"421 180 OFFCURVE",
"534 370 OFFCURVE",
"579 782 CURVE",
"433 799 LINE",
"411 445 OFFCURVE",
"316 254 OFFCURVE",
"40 66 CURVE",
"136 -43 LINE"
);
},
{
closed = 1;
nodes = (
"964 75 LINE",
"752 180 OFFCURVE",
"601 321 OFFCURVE",
"517 573 CURVE",
"412 527 LINE",
"501 235 OFFCURVE",
"667 77 OFFCURVE",
"884 -48 CURVE"
);
}
);
width = 1000;
}
);
unicode = 4EBA;
},
{
glyphname = uni4ECA;
lastChange = "2019-01-26 12:39:15 +0000";
layers = (
{
hints = (
{
origin = "{0, 3}";
type = Corner;
name = _corner.serfLeft;
options = 1;
},
{
origin = "{0, 7}";
type = Corner;
name = _corner.serfLeft;
options = 1;
},
{
origin = "{4, 0}";
type = Corner;
name = _corner.serfLeft;
options = 1;
},
{
origin = "{0, 2}";
type = Corner;
name = _corner.serfRight;
},
{
origin = "{4, 7}";
type = Corner;
name = _corner.serfRight;
},
{
origin = "{0, 6}";
type = Corner;
name = _corner.serfRight;
},
{
origin = "{3, 0}";
type = Corner;
name = _corner.serfRight;
},
{
origin = "{2, 0}";
type = Corner;
name = _corner.serfRight;
},
{
origin = "{2, 2}";
type = Corner;
name = _corner.serfRight;
},
{
origin = "{1, 2}";
type = Corner;
name = _corner.serfRight;
},
{
origin = "{1, 3}";
type = Corner;
name = _corner.serfLeft;
options = 1;
},
{
origin = "{2, 3}";
type = Corner;
name = _corner.serfLeft;
options = 1;
},
{
origin = "{2, 1}";
type = Corner;
name = _corner.serfLeft;
options = 1;
},
{
origin = "{3, 3}";
type = Corner;
name = _corner.serfLeft;
options = 1;
}
);
layerId = "D36B0F94-A848-4C2C-9ADF-F92FCBE7F4F5";
paths = (
{
closed = 1;
nodes = (
"294 479 OFFCURVE",
"407 575 OFFCURVE",
"565 789 CURVE",
"461 847 LINE",
"334 671 OFFCURVE",
"224 566 OFFCURVE",
"39 453 CURVE",
"107 354 LINE"
);
},
{
closed = 1;
nodes = (
"652 248 LINE",
"697 356 LINE",
"218 356 LINE",
"218 248 LINE"
);
},
{
closed = 1;
nodes = (
"801 318 LINE",
"705 383 LINE",
"411 -12 LINE",
"507 -79 LINE"
);
},
{
closed = 1;
nodes = (
"676 437 LINE",
"676 545 LINE",
"313 545 LINE",
"313 437 LINE"
);
},
{
closed = 1;
nodes = (
"966 471 LINE",
"764 571 OFFCURVE",
"633 667 OFFCURVE",
"518 786 CURVE",
"456 707 LINE",
"562 587 OFFCURVE",
"704 480 OFFCURVE",
"895 366 CURVE"
);
}
);
width = 1000;
},
{
associatedMasterId = "D36B0F94-A848-4C2C-9ADF-F92FCBE7F4F5";
hints = (
{
origin = "{0, 3}";
type = Corner;
name = _corner.serfLeft;
options = 1;
},
{
origin = "{0, 7}";
type = Corner;
name = _corner.serfLeft;
options = 1;
},
{
origin = "{4, 0}";
type = Corner;
name = _corner.serfLeft;
options = 1;
},
{
origin = "{0, 2}";
type = Corner;
name = _corner.serfRight;
},
{
origin = "{4, 7}";
type = Corner;
name = _corner.serfRight;
},
{
origin = "{0, 6}";
type = Corner;
name = _corner.serfRight;
},
{
origin = "{3, 0}";
type = Corner;
name = _corner.serfRight;
},
{
origin = "{2, 0}";
type = Corner;
name = _corner.serfRight;
},
{
origin = "{2, 2}";
type = Corner;
name = _corner.serfRight;
},
{
origin = "{1, 2}";
type = Corner;
name = _corner.serfRight;
},
{
origin = "{1, 3}";
type = Corner;
name = _corner.serfLeft;
options = 1;
},
{
origin = "{2, 3}";
type = Corner;
name = _corner.serfLeft;
options = 1;
},
{
origin = "{2, 1}";
type = Corner;
name = _corner.serfLeft;
options = 1;
},
{
origin = "{3, 3}";
type = Corner;
name = _corner.serfLeft;
options = 1;
}
);
layerId = "4CC6941A-B60B-4572-B8B7-86EE5F58635D";
name = "Jan 26 19, 21:38";
paths = (
{
closed = 1;
nodes = (
"305 477 OFFCURVE",
"431 580 OFFCURVE",
"571 798 CURVE",
"461 847 LINE",
"352 667 OFFCURVE",
"251 577 OFFCURVE",
"39 453 CURVE",
"107 354 LINE"
);
},
{
closed = 1;
nodes = (
"652 248 LINE",
"697 356 LINE",
"218 356 LINE",
"218 248 LINE"
);
},
{
closed = 1;
nodes = (
"801 318 LINE",
"705 383 LINE",
"411 -12 LINE",
"507 -79 LINE"
);
},
{
closed = 1;
nodes = (
"676 437 LINE",
"676 545 LINE",
"313 545 LINE",
"313 437 LINE"
);
},
{
closed = 1;
nodes = (
"966 471 LINE",
"754 565 OFFCURVE",
"640 660 OFFCURVE",
"521 789 CURVE",
"459 710 LINE",
"558 591 OFFCURVE",
"694 474 OFFCURVE",
"895 366 CURVE"
);
}
);
width = 1000;
}
);
unicode = 4ECA;
},
{
glyphname = uni4ED8;
lastChange = "2019-01-21 04:42:20 +0000";
layers = (
{
components = (
{
alignment = -1;
name = _part.Ten;
piece = {
" R_L" = 79.89317;
Haba = 187.4503;
Takasa = 352.84341;
};
transform = "{1, 0, 0, 1, -23, -92}";
}
);
hints = (
{
origin = "{4, 2}";
type = Corner;
name = _corner.serfRight;
},
{
origin = "{4, 0}";
type = Corner;
name = _corner.serfRight;
},
{
origin = "{3, 1}";
type = Corner;
name = _corner.serfRight;
},
{
origin = "{2, 2}";
type = Corner;
name = _corner.serfRight;
},
{
origin = "{1, 3}";
type = Corner;
name = _corner.serfRight;
},
{
origin = "{0, 6}";
type = Corner;
name = _corner.serfRight;
},
{
origin = "{0, 2}";
type = Corner;
name = _corner.serfRight;
},
{
origin = "{4, 3}";
type = Corner;
name = _corner.serfLeft;
},
{
origin = "{4, 1}";
type = Corner;
name = _corner.serfLeft;
},
{
origin = "{3, 2}";
type = Corner;
name = _corner.serfLeft;
},
{
origin = "{2, 3}";
type = Corner;
name = _corner.serfLeft;
},
{
origin = "{1, 0}";
type = Corner;
name = _corner.serfLeft;
},
{
origin = "{0, 3}";
type = Corner;
name = _corner.serfLeft;
},
{
origin = "{0, 7}";
type = Corner;
name = _corner.serfLeft;
},
{
origin = "{1, 1}";
type = Corner;
name = _corner.serfRight;
},
{
origin = "{3, 0}";
type = Corner;
name = _corner.serfLeft;
}
);
layerId = "D36B0F94-A848-4C2C-9ADF-F92FCBE7F4F5";
paths = (
{
closed = 1;
nodes = (
"222 461 OFFCURVE",
"363 642 OFFCURVE",
"435 786 CURVE",
"329 840 LINE",
"264 708 OFFCURVE",
"155 538 OFFCURVE",
"25 419 CURVE",
"108 345 LINE"
);
},
{
closed = 1;
nodes = (
"306 -85 LINE",
"306 570 LINE",
"190 570 LINE",
"190 -85 LINE"
);
},
{
closed = 1;
nodes = (
"796 -65 LINE",
"796 41 LINE",
"589 41 LINE",
"589 -65 LINE"
);
},
{
closed = 1;
nodes = (
"808 -65 LINE",
"808 819 LINE",
"686 819 LINE",
"686 -65 LINE"
);
},
{
closed = 1;
nodes = (
"965 474 LINE",
"965 592 LINE",
"364 592 LINE",
"364 474 LINE"
);
}
);
width = 1000;
}
);
unicode = 4ED8;
},
{
glyphname = uni4F1D;
lastChange = "2019-01-25 06:09:34 +0000";
layers = (
{
hints = (
{
origin = "{5, 2}";
type = Corner;
name = _corner.serfRight;
},
{
origin = "{5, 3}";
type = Corner;
name = _corner.serfLeft;
},
{
origin = "{5, 6}";
type = Corner;
name = _corner.serfRight;
},
{
origin = "{5, 7}";
type = Corner;
name = _corner.serfLeft;
},
{
origin = "{6, 0}";
type = Corner;
name = _corner.serfLeft;
},
{
origin = "{6, 1}";
type = Corner;
name = _corner.serfRight;
},
{
origin = "{6, 3}";
type = Corner;
name = _corner.serfRight;
},
{
origin = "{3, 0}";
type = Corner;
name = _corner.serfRight;
},
{
origin = "{3, 2}";
type = Corner;
name = _corner.serfRight;
},
{
origin = "{4, 0}";
type = Corner;
name = _corner.serfRight;
},
{
origin = "{4, 2}";
type = Corner;
name = _corner.serfRight;
},
{
origin = "{3, 3}";
type = Corner;
name = _corner.serfLeft;
},
{
origin = "{4, 3}";
type = Corner;
name = _corner.serfLeft;
},
{
origin = "{3, 1}";
type = Corner;
name = _corner.serfLeft;
},
{
origin = "{4, 1}";
type = Corner;
name = _corner.serfLeft;
},
{
origin = "{0, 7}";
type = Corner;
name = _corner.serfLeft;
},
{
origin = "{0, 6}";
type = Corner;
name = _corner.serfRight;
},
{
origin = "{2, 3}";
type = Corner;
name = _corner.serfRight;
},
{
origin = "{2, 7}";
type = Corner;
name = _corner.serfRight;
},
{
origin = "{2, 4}";
type = Corner;
name = _corner.serfLeft;
},
{
origin = "{2, 0}";
type = Corner;
name = _corner.serfLeft;
}
);
layerId = "D36B0F94-A848-4C2C-9ADF-F92FCBE7F4F5";
paths = (
{
closed = 1;
nodes = (
"521 -16 OFFCURVE",
"684 10 OFFCURVE",
"868 39 CURVE",
"835 132 LINE",
"671 114 OFFCURVE",
"508 97 OFFCURVE",
"343 81 CURVE",
"357 -37 LINE"
);
},
{
closed = 1;
nodes = (
"581 158 OFFCURVE",
"614 248 OFFCURVE",
"657 397 CURVE",
"521 407 LINE",
"492 260 OFFCURVE",
"467 168 OFFCURVE",
"424 32 CURVE",
"532 19 LINE"
);
},
{
closed = 1;
nodes = (
"952 -36 LINE",
"925 46 OFFCURVE",
"853 179 OFFCURVE",
"799 266 CURVE",
"711 224 LINE",
"751 149 OFFCURVE",
"819 15 OFFCURVE",
"847 -79 CURVE"
);
},
{
closed = 1;
nodes = (
"942 380 LINE",
"942 494 LINE",
"323 494 LINE",
"323 380 LINE"
);
},
{
closed = 1;
nodes = (
"856 623 LINE",
"856 734 LINE",
"421 734 LINE",
"421 623 LINE"
);
},
{
closed = 1;
nodes = (
"219 443 OFFCURVE",
"339 634 OFFCURVE",
"395 784 CURVE",
"288 829 LINE",
"237 691 OFFCURVE",
"146 510 OFFCURVE",
"30 378 CURVE",
"117 316 LINE"
);
},
{
closed = 1;
nodes = (
"279 -85 LINE",
"279 546 LINE",
"168 546 LINE",
"168 -85 LINE"
);
}
);
width = 1000;
}
);
unicode = 4F1D;
},
{
glyphname = uni4FC2;
lastChange = "2019-01-26 15:51:55 +0000";
layers = (
{
hints = (
{
origin = "{9, 3}";
type = Corner;
name = _corner.serfLeft;
},
{
origin = "{9, 6}";
type = Corner;
name = _corner.serfRight;
},
{
origin = "{9, 7}";
type = Corner;
name = _corner.serfLeft;
},
{
origin = "{10, 1}";
type = Corner;
name = _corner.serfRight;
},
{
origin = "{10, 3}";
type = Corner;
name = _corner.serfRight;
},
{
origin = "{0, 7}";
type = Corner;
name = _corner.serfLeft;
options = 1;
},
{
origin = "{1, 0}";
type = Corner;
name = _corner.serfLeft;
options = 1;
},
{
origin = "{4, 0}";
type = Corner;
name = _corner.serfLeft;
options = 1;
},
{
origin = "{7, 0}";
type = Corner;
name = _corner.serfLeft;
options = 1;
},
{
origin = "{7, 4}";
type = Corner;
name = _corner.serfLeft;
options = 1;
},
{
origin = "{5, 3}";
type = Corner;
name = _corner.serfLeft;
options = 1;
},
{
origin = "{8, 3}";
type = Corner;
name = _corner.serfLeft;
options = 1;
},
{
origin = "{8, 7}";
type = Corner;
name = _corner.serfLeft;
options = 1;
},
{
origin = "{8, 2}";
type = Corner;
name = _corner.serfRight;
},
{
origin = "{6, 2}";
type = Corner;
name = _corner.serfRight;
},
{
origin = "{5, 2}";
type = Corner;
name = _corner.serfRight;
},
{
origin = "{3, 3}";
type = Corner;
name = _corner.serfRight;
},
{
origin = "{7, 3}";
type = Corner;
name = _corner.serfRight;
},
{
origin = "{7, 7}";
type = Corner;
name = _corner.serfRight;
},
{
origin = "{4, 3}";
type = Corner;
name = _corner.serfRight;
},
{
origin = "{4, 7}";
type = Corner;
name = _corner.serfRight;
},
{
origin = "{4, 4}";
type = Corner;
name = _corner.serfLeft;
options = 1;
},
{
origin = "{0, 3}";
type = Corner;
name = _corner.serfLeft;
options = 1;
},
{
origin = "{0, 2}";
type = Corner;
name = _corner.serfRight;
},
{
origin = "{0, 6}";
type = Corner;
name = _corner.serfRight;
},
{
origin = "{2, 6}";
type = Corner;
name = _corner.serfRight;
},
{
origin = "{3, 4}";
type = Corner;
name = _corner.serfLeft;
options = 1;
},
{
origin = "{2, 7}";
type = Corner;
name = _corner.serfLeft;
options = 1;
},
{
origin = "{1, 3}";
type = Corner;
name = _corner.serfRight;
},
{
origin = "{10, 0}";
type = Corner;
name = _corner.serfLeft;
options = 1;
},
{
origin = "{9, 2}";
type = Corner;
name = _corner.serfRight;
}
);
layerId = "D36B0F94-A848-4C2C-9ADF-F92FCBE7F4F5";
paths = (
{
closed = 1;
nodes = (
"458 31 OFFCURVE",
"493 94 OFFCURVE",
"529 172 CURVE",
"441 214 LINE",
"408 140 OFFCURVE",
"371 83 OFFCURVE",
"316 13 CURVE",
"406 -48 LINE"
);
},
{
closed = 1;
nodes = (
"673 -76 LINE",
"673 320 LINE",
"566 320 LINE",
"566 -76 LINE"
);
},
{
closed = 1;
nodes = (
"468 266 OFFCURVE",
"658 280 OFFCURVE",
"852 295 CURVE",
"826 385 LINE",
"664 373 OFFCURVE",
"466 363 OFFCURVE",
"324 357 CURVE",
"331 254 LINE"
);
},
{
closed = 1;
nodes = (
"605 446 LINE",
"536 502 OFFCURVE",
"469 548 OFFCURVE",
"390 597 CURVE",
"333 514 LINE",
"408 469 OFFCURVE",
"473 421 OFFCURVE",
"533 366 CURVE"
);
},
{
closed = 1;
nodes = (
"931 25 LINE",
"873 95 OFFCURVE",
"832 152 OFFCURVE",
"791 219 CURVE",
"709 176 LINE",
"749 102 OFFCURVE",
"781 45 OFFCURVE",
"834 -35 CURVE"
);
},
{
closed = 1;
nodes = (
"605 365 OFFCURVE",
"755 501 OFFCURVE",
"844 597 CURVE",
"757 665 LINE",
"677 570 OFFCURVE",
"533 431 OFFCURVE",
"417 340 CURVE",
"493 285 LINE"
);
},
{
closed = 1;
nodes = (
"565 541 OFFCURVE",
"615 602 OFFCURVE",
"665 670 CURVE",
"562 736 LINE",
"528 668 OFFCURVE",
"481 597 OFFCURVE",
"416 518 CURVE",
"492 462 LINE"
);
},
{
closed = 1;
nodes = (
"949 258 LINE",
"919 336 OFFCURVE",
"881 413 OFFCURVE",
"839 489 CURVE",
"755 453 LINE",
"796 373 OFFCURVE",
"827 303 OFFCURVE",
"853 226 CURVE"
);
},
{
closed = 1;
nodes = (
"516 658 OFFCURVE",
"733 692 OFFCURVE",
"855 724 CURVE",
"827 818 LINE",
"711 786 OFFCURVE",
"513 755 OFFCURVE",
"354 746 CURVE",
"366 648 LINE"
);
},
{
closed = 1;
nodes = (
"233 449 OFFCURVE",
"348 639 OFFCURVE",
"404 789 CURVE",
"300 829 LINE",
"249 691 OFFCURVE",
"156 510 OFFCURVE",
"40 378 CURVE",
"124 314 LINE"
);
},
{
closed = 1;
nodes = (
"288 -85 LINE",
"288 546 LINE",
"178 546 LINE",
"178 -85 LINE"
);
}
);
width = 1000;
},
{
associatedMasterId = "D36B0F94-A848-4C2C-9ADF-F92FCBE7F4F5";
hints = (
{
origin = "{9, 3}";
type = Corner;
name = _corner.serfLeft;
},
{
origin = "{9, 6}";
type = Corner;
name = _corner.serfRight;
},
{
origin = "{9, 7}";
type = Corner;
name = _corner.serfLeft;
},
{
origin = "{10, 1}";
type = Corner;
name = _corner.serfRight;
},
{
origin = "{10, 3}";
type = Corner;
name = _corner.serfRight;
},
{
origin = "{0, 7}";
type = Corner;
name = _corner.serfLeft;
options = 1;
},
{
origin = "{1, 0}";
type = Corner;
name = _corner.serfLeft;
options = 1;
},
{
origin = "{4, 0}";
type = Corner;
name = _corner.serfLeft;
options = 1;
},
{
origin = "{7, 0}";
type = Corner;
name = _corner.serfLeft;
options = 1;
},
{
origin = "{7, 4}";
type = Corner;
name = _corner.serfLeft;
options = 1;
},
{
origin = "{5, 3}";
type = Corner;
name = _corner.serfLeft;
options = 1;
},
{
origin = "{8, 3}";
type = Corner;
name = _corner.serfLeft;
options = 1;
},
{
origin = "{8, 7}";
type = Corner;
name = _corner.serfLeft;
options = 1;
},
{
origin = "{8, 2}";
type = Corner;
name = _corner.serfRight;
},
{
origin = "{6, 2}";
type = Corner;
name = _corner.serfRight;
},
{
origin = "{5, 2}";
type = Corner;
name = _corner.serfRight;
},
{
origin = "{3, 3}";
type = Corner;
name = _corner.serfRight;
},
{
origin = "{7, 3}";
type = Corner;
name = _corner.serfRight;
},
{
origin = "{7, 7}";
type = Corner;
name = _corner.serfRight;
},
{
origin = "{4, 3}";
type = Corner;
name = _corner.serfRight;
},
{
origin = "{4, 7}";
type = Corner;
name = _corner.serfRight;
},
{
origin = "{4, 4}";
type = Corner;
name = _corner.serfLeft;
options = 1;
},
{
origin = "{0, 3}";
type = Corner;
name = _corner.serfLeft;
options = 1;
},
{
origin = "{0, 2}";
type = Corner;
name = _corner.serfRight;
},
{
origin = "{0, 6}";
type = Corner;
name = _corner.serfRight;
},
{
origin = "{2, 6}";
type = Corner;
name = _corner.serfRight;
},
{
origin = "{3, 4}";
type = Corner;
name = _corner.serfLeft;
options = 1;
},
{
origin = "{2, 7}";
type = Corner;
name = _corner.serfLeft;
options = 1;
},
{
origin = "{1, 3}";
type = Corner;
name = _corner.serfRight;
},
{
origin = "{10, 0}";
type = Corner;
name = _corner.serfLeft;
options = 1;
},
{
origin = "{9, 2}";
type = Corner;
name = _corner.serfRight;
}
);
layerId = "021C9037-2BFD-4662-AF2F-B7DFBD5B3AD2";
name = "Jan 26 19, 23:10";
paths = (
{
closed = 1;
nodes = (
"458 31 OFFCURVE",
"493 94 OFFCURVE",
"529 172 CURVE",
"441 214 LINE",
"408 140 OFFCURVE",
"371 83 OFFCURVE",
"316 13 CURVE",
"406 -48 LINE"
);
},
{
closed = 1;
nodes = (
"673 -76 LINE",
"673 320 LINE",
"566 320 LINE",
"566 -76 LINE"
);
},
{
closed = 1;
nodes = (
"468 266 OFFCURVE",
"658 280 OFFCURVE",
"852 295 CURVE",
"826 385 LINE",
"664 373 OFFCURVE",
"466 363 OFFCURVE",
"324 357 CURVE",
"331 254 LINE"
);
},
{
closed = 1;
nodes = (
"605 446 LINE",
"536 502 OFFCURVE",
"469 548 OFFCURVE",
"390 597 CURVE",
"333 514 LINE",
"408 469 OFFCURVE",
"473 421 OFFCURVE",
"533 366 CURVE"
);
},
{
closed = 1;
nodes = (
"931 25 LINE",
"873 95 OFFCURVE",
"832 152 OFFCURVE",
"791 219 CURVE",
"709 176 LINE",
"749 102 OFFCURVE",
"781 45 OFFCURVE",
"834 -35 CURVE"
);
},
{
closed = 1;
nodes = (
"605 365 OFFCURVE",
"737 482 OFFCURVE",
"826 578 CURVE",
"739 646 LINE",
"659 551 OFFCURVE",
"533 431 OFFCURVE",
"417 340 CURVE",
"493 285 LINE"
);
},
{
closed = 1;
nodes = (
"565 541 OFFCURVE",
"615 602 OFFCURVE",
"665 670 CURVE",
"562 736 LINE",
"528 668 OFFCURVE",
"481 597 OFFCURVE",
"416 518 CURVE",
"492 462 LINE"
);
},
{
closed = 1;
nodes = (
"949 258 LINE",
"919 336 OFFCURVE",
"881 413 OFFCURVE",
"839 489 CURVE",
"755 453 LINE",
"796 373 OFFCURVE",
"827 303 OFFCURVE",
"853 226 CURVE"
);
},
{
closed = 1;
nodes = (
"516 658 OFFCURVE",
"733 692 OFFCURVE",
"855 724 CURVE",
"827 818 LINE",
"711 786 OFFCURVE",
"513 755 OFFCURVE",
"354 746 CURVE",
"366 648 LINE"
);
},
{
closed = 1;
nodes = (
"235 448 OFFCURVE",
"350 638 OFFCURVE",
"406 788 CURVE",
"300 829 LINE",
"249 691 OFFCURVE",
"156 510 OFFCURVE",
"40 378 CURVE",
"126 313 LINE"
);
},
{
closed = 1;
nodes = (
"288 -85 LINE",
"288 546 LINE",
"178 546 LINE",
"178 -85 LINE"
);
}
);
width = 1000;
}
);
unicode = 4FC2;
},
{
glyphname = uni5149;
lastChange = "2019-01-23 04:36:52 +0000";
layers = (
{
hints = (
{
origin = "{4, 2}";
type = Corner;
name = _corner.serfLeft;
options = 1;
},
{
origin = "{4, 1}";
type = Corner;
name = _corner.serfRight;
},
{
origin = "{3, 0}";
type = Corner;
name = _corner.serfRight;
},
{
origin = "{3, 2}";
type = Corner;
name = _corner.serfRight;
},
{
origin = "{1, 6}";
type = Corner;
name = _corner.serfRight;
},
{
origin = "{2, 3}";
type = Corner;
name = _corner.serfRight;
},
{
origin = "{2, 7}";
type = Corner;
name = _corner.serfRight;
},
{
origin = "{5, 2}";
type = Corner;
name = _corner.serfRight;
},
{
origin = "{5, 6}";
type = Corner;
name = _corner.serfRight;
},
{
origin = "{5, 3}";
type = Corner;
name = _corner.serfLeft;
options = 1;
},
{
origin = "{5, 7}";
type = Corner;
name = _corner.serfLeft;
options = 1;
},
{
origin = "{2, 0}";
type = Corner;
name = _corner.serfLeft;
options = 1;
},
{
origin = "{2, 4}";
type = Corner;
name = _corner.serfLeft;
options = 1;
},
{
origin = "{3, 3}";
type = Corner;
name = _corner.serfLeft;
options = 1;
},
{
origin = "{3, 1}";
type = Corner;
name = _corner.serfLeft;
options = 1;
},
{
origin = "{0, 4}";
type = Corner;
name = _corner.serfLeft;
options = 1;
},
{
origin = "{1, 7}";
type = Corner;
name = _corner.serfLeft;
options = 1;
},
{
origin = "{0, 3}";
type = Corner;
name = _corner.serfRight;
}
);
layerId = "D36B0F94-A848-4C2C-9ADF-F92FCBE7F4F5";
paths = (
{
closed = 1;
nodes = (
"810 -39 LINE SMOOTH",
"894 -39 OFFCURVE",
"921 32 OFFCURVE",
"957 117 CURVE",
"851 153 LINE",
"839 114 OFFCURVE",
"822 73 OFFCURVE",
"795 73 CURVE SMOOTH",
"704 73 LINE SMOOTH",
"663 73 OFFCURVE",
"645 90 OFFCURVE",
"645 127 CURVE SMOOTH",
"645 420 LINE",
"528 419 LINE",
"528 112 LINE SMOOTH",
"528 13 OFFCURVE",
"582 -39 OFFCURVE",
"678 -39 CURVE SMOOTH"
);
},
{
closed = 1;
nodes = (
"364 41 OFFCURVE",
"460 157 OFFCURVE",
"485 417 CURVE",
"364 424 LINE",
"352 220 OFFCURVE",
"274 116 OFFCURVE",
"67 34 CURVE",
"136 -69 LINE"
);
},
{
closed = 1;
nodes = (
"387 569 LINE",
"338 641 OFFCURVE",
"301 695 OFFCURVE",
"251 762 CURVE",
"161 703 LINE",
"211 643 OFFCURVE",
"251 588 OFFCURVE",
"299 515 CURVE"
);
},
{
closed = 1;
nodes = (
"908 358 LINE",
"908 475 LINE",
"100 475 LINE",
"100 358 LINE"
);
},
{
closed = 1;
nodes = (
"566 430 LINE",
"566 807 LINE",
"436 807 LINE",
"436 430 LINE"
);
},
{
closed = 1;
nodes = (
"762 589 OFFCURVE",
"808 646 OFFCURVE",
"856 710 CURVE",
"761 769 LINE",
"720 694 OFFCURVE",
"680 641 OFFCURVE",
"618 571 CURVE",
"689 513 LINE"
);
}
);
width = 1000;
}
);
unicode = 5149;
},
{
glyphname = uni5175;
lastChange = "2019-01-26 16:55:22 +0000";
layers = (
{
hints = (
{
origin = "{6, 3}";
type = Corner;
name = _corner.serfLeft;
options = 1;
},
{
origin = "{2, 2}";
type = Corner;
name = _corner.serfLeft;
options = 1;
},
{
origin = "{1, 3}";
type = Corner;
name = _corner.serfLeft;
options = 1;
},
{
origin = "{0, 7}";
type = Corner;
name = _corner.serfLeft;
options = 1;
},
{
origin = "{0, 3}";
type = Corner;
name = _corner.serfLeft;
options = 1;
},
{
origin = "{3, 4}";
type = Corner;
name = _corner.serfLeft;
options = 1;
},
{
origin = "{3, 0}";
type = Corner;
name = _corner.serfLeft;
options = 1;
},
{
origin = "{1, 1}";
type = Corner;
name = _corner.serfLeft;
options = 1;
},
{
origin = "{5, 1}";
type = Corner;
name = _corner.serfLeft;
options = 1;
},
{
origin = "{6, 2}";
type = Corner;
name = _corner.serfRight;
},
{
origin = "{1, 2}";
type = Corner;
name = _corner.serfRight;
},
{
origin = "{0, 6}";
type = Corner;
name = _corner.serfRight;
},
{
origin = "{0, 2}";
type = Corner;
name = _corner.serfRight;
},
{
origin = "{3, 7}";
type = Corner;
name = _corner.serfRight;
},
{
origin = "{3, 3}";
type = Corner;
name = _corner.serfRight;
},
{
origin = "{1, 0}";
type = Corner;
name = _corner.serfRight;
},
{
origin = "{5, 0}";
type = Corner;
name = _corner.serfRight;
}
);
layerId = "D36B0F94-A848-4C2C-9ADF-F92FCBE7F4F5";
paths = (
{
closed = 1;
nodes = (
"232 -40 OFFCURVE",
"312 -11 OFFCURVE",
"446 55 CURVE",
"394 151 LINE",
"268 92 OFFCURVE",
"197 64 OFFCURVE",
"71 28 CURVE",
"110 -77 LINE"
);
},
{
closed = 1;
nodes = (
"948 177 LINE",
"948 283 LINE",
"62 283 LINE",
"62 177 LINE"
);
},
{
closed = 1;
nodes = (
"381 203 LINE",
"381 687 LINE",
"263 687 LINE",
"263 203 LINE"
);
},
{
closed = 1;
nodes = (
"923 29 LINE",
"810 69 OFFCURVE",
"710 108 OFFCURVE",
"621 150 CURVE",
"573 53 LINE",
"667 7 OFFCURVE",
"760 -32 OFFCURVE",
"880 -77 CURVE"
);
},
{
closed = 1;
nodes = (
"700 203 LINE",
"700 512 LINE",
"589 512 LINE",
"589 203 LINE"
);
},
{
closed = 1;
nodes = (
"848 456 LINE",
"848 563 LINE",
"314 563 LINE",
"314 456 LINE"
);
},
{
closed = 1;
nodes = (
"464 612 OFFCURVE",
"582 642 OFFCURVE",
"747 697 CURVE",
"696 811 LINE",
"556 751 OFFCURVE",
"429 709 OFFCURVE",
"302 679 CURVE",
"330 584 LINE"
);
}
);
width = 1000;
}
);
unicode = 5175;
},
{
glyphname = uni51FA;
lastChange = "2019-01-25 15:58:15 +0000";
layers = (
{
hints = (
{
origin = "{2, 3}";
type = Corner;
name = _corner.serfLeft;
options = 1;
},
{
origin = "{5, 3}";
type = Corner;
name = _corner.serfRight;
},
{
origin = "{5, 1}";
type = Corner;
name = _corner.serfRight;
},
{
origin = "{6, 3}";
type = Corner;
name = _corner.serfRight;
},
{
origin = "{6, 1}";
type = Corner;
name = _corner.serfRight;
},
{
origin = "{0, 1}";
type = Corner;
name = _corner.serfRight;
},
{
origin = "{3, 1}";
type = Corner;
name = _corner.serfRight;
},
{
origin = "{1, 1}";
type = Corner;
name = _corner.serfRight;
},
{
origin = "{3, 3}";
type = Corner;
name = _corner.serfRight;
},
{
origin = "{1, 3}";
type = Corner;
name = _corner.serfRight;
},
{
origin = "{1, 0}";
type = Corner;
name = _corner.serfLeft;
options = 1;
},
{
origin = "{1, 2}";
type = Corner;
name = _corner.serfLeft;
options = 1;
},
{
origin = "{3, 0}";
type = Corner;
name = _corner.serfLeft;
options = 1;
},
{
origin = "{3, 2}";
type = Corner;
name = _corner.serfLeft;
options = 1;
},
{
origin = "{0, 2}";
type = Corner;
name = _corner.serfLeft;
options = 1;
},
{
origin = "{6, 2}";
type = Corner;
name = _corner.serfLeft;
options = 1;
},
{
origin = "{5, 2}";
type = Corner;
name = _corner.serfLeft;
options = 1;
},
{
origin = "{5, 0}";
type = Corner;
name = _corner.serfLeft;
options = 1;
},
{
origin = "{6, 0}";
type = Corner;
name = _corner.serfLeft;
options = 1;
}
);
layerId = "D36B0F94-A848-4C2C-9ADF-F92FCBE7F4F5";
paths = (
{
closed = 1;
nodes = (
"562 30 LINE",
"562 814 LINE",
"437 814 LINE",
"437 30 LINE"
);
},
{
closed = 1;
nodes = (
"244 -77 LINE",
"244 306 LINE",
"122 306 LINE",
"122 -77 LINE"
);
},
{
closed = 1;
nodes = (
"822 -19 LINE",
"822 102 LINE",
"160 102 LINE",
"160 -19 LINE"
);
},
{
closed = 1;
nodes = (
"275 380 LINE",
"275 718 LINE",
"158 718 LINE",
"158 380 LINE"
);
},
{
closed = 1;
nodes = (
"817 380 LINE",
"817 494 LINE",
"188 494 LINE",
"188 380 LINE"
);
},
{
closed = 1;
nodes = (
"878 -77 LINE",
"878 306 LINE",
"757 306 LINE",
"757 -77 LINE"
);
},
{
closed = 1;
nodes = (
"848 380 LINE",
"848 718 LINE",
"729 718 LINE",
"729 380 LINE"
);
}
);
width = 1000;
}
);
unicode = 51FA;
},
{
glyphname = uni5206;
lastChange = "2019-01-26 16:21:33 +0000";
layers = (
{
hints = (
{
origin = "{4, 0}";
type = Corner;
name = _corner.serfLeft;
options = 1;
},
{
origin = "{4, 4}";
type = Corner;
name = _corner.serfLeft;
options = 1;
},
{
origin = "{0, 3}";
type = Corner;
name = _corner.serfLeft;
options = 1;
},
{
origin = "{0, 7}";
type = Corner;
name = _corner.serfLeft;
options = 1;
},
{
origin = "{3, 3}";
type = Corner;
name = _corner.serfLeft;
options = 1;
},
{
origin = "{1, 7}";
type = Corner;
name = _corner.serfLeft;
options = 1;
},
{
origin = "{2, 13}";
type = Corner;
name = _corner.serfLeft;
options = 1;
},
{
origin = "{1, 6}";
type = Corner;
name = _corner.serfRight;
},
{
origin = "{2, 12}";
type = Corner;
name = _corner.serfRight;
},
{
origin = "{3, 2}";
type = Corner;
name = _corner.serfRight;
},
{
origin = "{0, 6}";
type = Corner;
name = _corner.serfRight;
},
{
origin = "{0, 2}";
type = Corner;
name = _corner.serfRight;
},
{
origin = "{4, 3}";
type = Corner;
name = _corner.serfRight;
},
{
origin = "{4, 7}";
type = Corner;
name = _corner.serfRight;
},
{
origin = "{2, 5}";
type = Corner;
name = _corner.serfRight;
}
);
layerId = "D36B0F94-A848-4C2C-9ADF-F92FCBE7F4F5";
paths = (
{
closed = 1;
nodes = (
"307 518 OFFCURVE",
"365 604 OFFCURVE",
"453 757 CURVE",
"353 818 LINE",
"265 675 OFFCURVE",
"203 586 OFFCURVE",
"37 433 CURVE",
"130 349 LINE"
);
},
{
closed = 1;
nodes = (
"371 61 OFFCURVE",
"448 163 OFFCURVE",
"499 390 CURVE",
"387 416 LINE",
"354 223 OFFCURVE",
"284 144 OFFCURVE",
"99 35 CURVE",
"159 -58 LINE"
);
},
{
closed = 1;
nodes = (
"632 -63 OFFCURVE",
"706 -43 OFFCURVE",
"719 92 CURVE SMOOTH",
"732 224 OFFCURVE",
"736 368 OFFCURVE",
"736 472 CURVE",
"621 472 LINE",
"621 368 OFFCURVE",
"616 229 OFFCURVE",
"603 100 CURVE SMOOTH",
"599 62 OFFCURVE",
"565 48 OFFCURVE",
"490 55 CURVE",
"485 -60 LINE"
);
},
{
closed = 1;
nodes = (
"712 364 LINE",
"712 472 LINE",
"257 472 LINE",
"257 364 LINE"
);
},
{
closed = 1;
nodes = (
"965 442 LINE",
"804 580 OFFCURVE",
"721 690 OFFCURVE",
"634 816 CURVE",
"536 754 LINE",
"624 623 OFFCURVE",
"715 506 OFFCURVE",
"869 350 CURVE"
);
}
);
width = 1000;
}
);
unicode = 5206;
},
{
glyphname = uni5211;
lastChange = "2019-01-25 15:57:51 +0000";
layers = (
{
hints = (
{
origin = "{0, 8}";
type = Corner;
name = _corner.serfRight;
},
{
origin = "{0, 9}";
type = Corner;
name = _corner.serfLeft;
options = 1;
},
{
origin = "{1, 0}";
type = Corner;
name = _corner.serfLeft;
options = 1;
},
{
origin = "{1, 3}";
type = Corner;
name = _corner.serfRight;
},
{
origin = "{2, 0}";
type = Corner;
name = _corner.serfRight;
},
{
origin = "{2, 1}";
type = Corner;
name = _corner.serfLeft;
options = 1;
},
{
origin = "{2, 2}";
type = Corner;
name = _corner.serfRight;
},
{
origin = "{2, 3}";
type = Corner;
name = _corner.serfLeft;
options = 1;
},
{
origin = "{3, 0}";
type = Corner;
name = _corner.serfRight;
},
{
origin = "{3, 1}";
type = Corner;
name = _corner.serfLeft;
options = 1;
},
{
origin = "{3, 2}";
type = Corner;
name = _corner.serfRight;
},
{
origin = "{3, 3}";
type = Corner;
name = _corner.serfLeft;
options = 1;
},
{
origin = "{4, 0}";
type = Corner;
name = _corner.serfLeft;
},
{
origin = "{4, 1}";
type = Corner;
name = _corner.serfRight;
},
{
origin = "{4, 2}";
type = Corner;
name = _corner.serfLeft;
},
{
origin = "{4, 3}";
type = Corner;
name = _corner.serfRight;
},
{
origin = "{5, 2}";
type = Corner;
name = _corner.serfRight;
},
{
origin = "{5, 3}";
type = Corner;
name = _corner.serfLeft;
},
{
origin = "{6, 0}";
type = Corner;
name = _corner.serfLeft;
},
{
origin = "{6, 1}";
type = Corner;
name = _corner.serfRight;
},
{
origin = "{6, 2}";
type = Corner;
name = _corner.serfLeft;
}
);
layerId = "D36B0F94-A848-4C2C-9ADF-F92FCBE7F4F5";
paths = (
{
closed = 1;
nodes = (
"234 59 OFFCURVE",
"287 158 OFFCURVE",
"287 317 CURVE SMOOTH",
"287 693 LINE",
"181 691 LINE",
"181 331 LINE SMOOTH",
"181 197 OFFCURVE",
"141 113 OFFCURVE",
"43 -4 CURVE",
"137 -75 LINE"
);
},
{
closed = 1;
nodes = (
"472 -71 LINE",
"472 718 LINE",
"365 718 LINE",
"365 -71 LINE"
);
},
{
closed = 1;
nodes = (
"565 369 LINE",
"565 480 LINE",
"57 480 LINE",
"57 369 LINE"
);
},
{
closed = 1;
nodes = (
"551 667 LINE",
"551 773 LINE",
"90 773 LINE",
"90 667 LINE"
);
},
{
closed = 1;
nodes = (
"723 175 LINE",
"723 747 LINE",
"615 747 LINE",
"615 175 LINE"
);
},
{
closed = 1;
nodes = (
"902 -72 LINE",
"902 29 LINE",
"695 29 LINE",
"695 -72 LINE"
);
},
{
closed = 1;
nodes = (
"914 -72 LINE",
"914 812 LINE",
"800 812 LINE",
"800 -72 LINE"
);
}
);
width = 1000;
}
);
unicode = 5211;
},
{
glyphname = uni5272;
lastChange = "2019-01-24 08:44:53 +0000";
layers = (
{
background = {
paths = (
{
closed = 1;
nodes = (
"191 547 OFFCURVE",
"171 546 OFFCURVE",
"145 542 CURVE",
"145 603 LINE",
"170 598 OFFCURVE",
"189 597 OFFCURVE",
"231 597 CURVE",
"306 597 LINE",
"306 627 OFFCURVE",
"305 641 OFFCURVE",
"301 659 CURVE",
"367 659 LINE",
"364 641 OFFCURVE",
"363 631 OFFCURVE",
"363 597 CURVE",
"437 597 LINE",
"477 597 OFFCURVE",
"497 598 OFFCURVE",
"520 603 CURVE",
"520 542 LINE",
"495 546 OFFCURVE",
"475 547 OFFCURVE",
"437 547 CURVE",
"363 547 LINE",
"363 476 LINE",
"460 476 LINE",
"498 476 OFFCURVE",
"516 477 OFFCURVE",
"542 482 CURVE",
"542 423 LINE",
"516 426 OFFCURVE",
"499 427 OFFCURVE",
"460 427 CURVE",
"363 427 LINE",
"363 347 LINE",
"513 347 LINE",
"552 347 OFFCURVE",
"572 348 OFFCURVE",
"596 352 CURVE",
"596 290 LINE",
"572 293 OFFCURVE",
"551 294 OFFCURVE",
"513 294 CURVE",
"147 294 LINE",
"110 294 OFFCURVE",
"85 293 OFFCURVE",
"61 290 CURVE",
"61 352 LINE",
"85 348 OFFCURVE",
"105 347 OFFCURVE",
"147 347 CURVE",
"306 347 LINE",
"306 427 LINE",
"202 427 LINE",
"163 427 OFFCURVE",
"143 426 OFFCURVE",
"119 423 CURVE",
"119 482 LINE",
"143 477 OFFCURVE",
"164 476 OFFCURVE",
"202 476 CURVE",
"306 476 LINE",
"306 547 LINE",
"231 547 LINE"
);
},
{
closed = 1;
nodes = (
"305 784 OFFCURVE",
"303 804 OFFCURVE",
"299 826 CURVE",
"372 826 LINE",
"368 805 OFFCURVE",
"366 784 OFFCURVE",
"366 749 CURVE",
"366 740 LINE",
"491 740 LINE",
"540 740 OFFCURVE",
"568 741 OFFCURVE",
"599 744 CURVE",
"597 725 OFFCURVE",
"596 706 OFFCURVE",
"596 681 CURVE",
"596 645 LINE",
"596 619 OFFCURVE",
"597 601 OFFCURVE",
"599 581 CURVE",
"540 581 LINE",
"540 689 LINE",
"125 689 LINE",
"125 571 LINE",
"64 571 LINE",
"67 592 OFFCURVE",
"68 608 OFFCURVE",
"68 637 CURVE",
"68 678 LINE",
"68 707 OFFCURVE",
"67 725 OFFCURVE",
"64 744 CURVE",
"89 741 OFFCURVE",
"112 740 OFFCURVE",
"161 740 CURVE",
"305 740 LINE"
);
},
{
closed = 1;
nodes = (
"487 226 OFFCURVE",
"507 227 OFFCURVE",
"533 230 CURVE",
"530 202 OFFCURVE",
"530 182 OFFCURVE",
"530 140 CURVE",
"530 34 LINE",
"530 -14 OFFCURVE",
"530 -38 OFFCURVE",
"534 -59 CURVE",
"469 -59 LINE",
"469 -24 LINE",
"192 -24 LINE",
"192 -72 LINE",
"125 -72 LINE",
"129 -45 OFFCURVE",
"131 -20 OFFCURVE",
"131 20 CURVE",
"131 139 LINE",
"131 175 OFFCURVE",
"130 202 OFFCURVE",
"127 230 CURVE",
"152 227 OFFCURVE",
"177 226 OFFCURVE",
"216 226 CURVE",
"452 226 LINE"
);
},
{
closed = 1;
nodes = (
"469 28 LINE",
"469 174 LINE",
"192 174 LINE",
"192 28 LINE"
);
},
{
closed = 1;
nodes = (
"723 740 OFFCURVE",
"721 712 OFFCURVE",
"721 657 CURVE",
"721 268 LINE",
"721 204 OFFCURVE",
"722 183 OFFCURVE",
"726 158 CURVE",
"655 158 LINE",
"659 187 OFFCURVE",
"660 206 OFFCURVE",
"660 268 CURVE",
"660 656 LINE",
"660 719 OFFCURVE",
"659 740 OFFCURVE",
"655 766 CURVE",
"727 766 LINE"
);
},
{
closed = 1;
nodes = (
"904 788 OFFCURVE",
"902 753 OFFCURVE",
"902 697 CURVE",
"902 33 LINE",
"902 -40 OFFCURVE",
"881 -54 OFFCURVE",
"786 -54 CURVE",
"761 -54 OFFCURVE",
"729 -53 OFFCURVE",
"695 -50 CURVE",
"690 -25 OFFCURVE",
"686 -11 OFFCURVE",
"677 11 CURVE",
"722 6 OFFCURVE",
"761 3 OFFCURVE",
"794 3 CURVE",
"830 3 OFFCURVE",
"838 9 OFFCURVE",
"838 33 CURVE",
"838 696 LINE",
"838 755 OFFCURVE",
"836 785 OFFCURVE",
"831 817 CURVE",
"908 817 LINE"
);
}
);
};
hints = (
{
origin = "{13, 2}";
type = Corner;
name = _corner.serfRight;
},
{
origin = "{13, 3}";
type = Corner;
name = _corner.serfLeft;
options = 1;
},
{
origin = "{14, 0}";
type = Corner;
name = _corner.serfLeft;
options = 1;
},
{
origin = "{14, 1}";
type = Corner;
name = _corner.serfRight;
},
{
origin = "{14, 2}";
type = Corner;
name = _corner.serfLeft;
options = 1;
},
{
origin = "{11, 2}";
type = Corner;
name = _corner.serfLeft;
options = 1;
},
{
origin = "{11, 0}";
type = Corner;
name = _corner.serfLeft;
options = 1;
},
{
origin = "{11, 1}";
type = Corner;
name = _corner.serfRight;
},
{
origin = "{11, 3}";
type = Corner;
name = _corner.serfRight;
},
{
origin = "{0, 3}";
type = Corner;
name = _corner.serfRight;
},
{
origin = "{3, 3}";
type = Corner;
name = _corner.serfRight;
},
{
origin = "{3, 1}";
type = Corner;
name = _corner.serfRight;
},
{
origin = "{4, 0}";
type = Corner;
name = _corner.serfRight;
},
{
origin = "{4, 2}";
type = Corner;
name = _corner.serfRight;
},
{
origin = "{6, 2}";
type = Corner;
name = _corner.serfRight;
},
{
origin = "{8, 0}";
type = Corner;
name = _corner.serfRight;
},
{
origin = "{6, 0}";
type = Corner;
name = _corner.serfRight;
},
{
origin = "{6, 3}";
type = Corner;
name = _corner.serfLeft;
options = 1;
},
{
origin = "{8, 3}";
type = Corner;
name = _corner.serfLeft;
options = 1;
},
{
origin = "{4, 3}";
type = Corner;
name = _corner.serfLeft;
options = 1;
},
{
origin = "{4, 1}";
type = Corner;
name = _corner.serfLeft;
options = 1;
},
{
origin = "{6, 1}";
type = Corner;
name = _corner.serfLeft;
options = 1;
},
{
origin = "{12, 0}";
type = Corner;
name = _corner.serfLeft;
options = 1;
},
{
origin = "{9, 2}";
type = Corner;
name = _corner.serfLeft;
options = 1;
},
{
origin = "{10, 2}";
type = Corner;
name = _corner.serfLeft;
options = 1;
},
{
origin = "{3, 0}";
type = Corner;
name = _corner.serfLeft;
options = 1;
},
{
origin = "{0, 0}";
type = Corner;
name = _corner.serfLeft;
options = 1;
},
{
origin = "{0, 2}";
type = Corner;
name = _corner.serfLeft;
options = 1;
},
{
origin = "{5, 3}";
type = Corner;
name = _corner.serfRight;
},
{
origin = "{9, 1}";
type = Corner;
name = _corner.serfRight;
},
{
origin = "{10, 1}";
type = Corner;
name = _corner.serfRight;
},
{
origin = "{7, 1}";
type = Corner;
name = _corner.serfRight;
},
{
origin = "{7, 2}";
type = Corner;
name = _corner.serfLeft;
}
);
layerId = "D36B0F94-A848-4C2C-9ADF-F92FCBE7F4F5";
paths = (
{
closed = 1;
nodes = (
"233 -82 LINE",
"233 233 LINE",
"142 233 LINE",
"142 -82 LINE"
);
},
{
closed = 1;
nodes = (
"482 -10 LINE",
"482 74 LINE",
"177 74 LINE",
"177 -10 LINE"
);
},
{
closed = 1;
nodes = (
"482 149 LINE",
"482 233 LINE",
"177 233 LINE",
"177 149 LINE"
);
},
{
closed = 1;
nodes = (
"507 -53 LINE",
"507 233 LINE",
"416 233 LINE",
"416 -53 LINE"
);
},
{
closed = 1;
nodes = (
"583 267 LINE",
"583 350 LINE",
"67 350 LINE",
"67 267 LINE"
);
},
{
closed = 1;
nodes = (
"173 537 LINE",
"173 717 LINE",
"72 717 LINE",
"73 537 LINE"
);
},
{
closed = 1;
nodes = (
"479 385 LINE",
"479 465 LINE",
"171 465 LINE",
"171 385 LINE"
);
},
{
closed = 1;
nodes = (
"368 308 LINE",
"368 634 LINE",
"275 634 LINE",
"275 308 LINE"
);
},
{
closed = 1;
nodes = (
"516 501 LINE",
"516 582 LINE",
"126 582 LINE",
"126 501 LINE"
);
},
{
closed = 1;
nodes = (
"572 655 LINE",
"572 745 LINE",
"72 745 LINE",
"72 655 LINE"
);
},
{
closed = 1;
nodes = (
"377 695 LINE",
"377 834 LINE",
"266 834 LINE",
"266 695 LINE"
);
},
{
closed = 1;
nodes = (
"745 175 LINE",
"745 747 LINE",
"637 747 LINE",
"637 175 LINE"
);
},
{
closed = 1;
nodes = (
"571 537 LINE",
"572 712 LINE",
"481 712 LINE",
"481 537 LINE"
);
},
{
closed = 1;
nodes = (
"906 -72 LINE",
"906 29 LINE",
"699 29 LINE",
"699 -72 LINE"
);
},
{
closed = 1;
nodes = (
"918 -72 LINE",
"918 812 LINE",
"804 812 LINE",
"804 -72 LINE"
);
}
);
width = 1000;
}
);
unicode = 5272;
},
{
glyphname = uni529B;
lastChange = "2019-01-26 16:23:42 +0000";
layers = (
{
hints = (
{
origin = "{2, 2}";
type = Corner;
name = _corner.serfRight;
},
{
origin = "{1, 12}";
type = Corner;
name = _corner.serfRight;
},
{
origin = "{0, 2}";
type = Corner;
name = _corner.serfRight;
},
{
origin = "{0, 6}";
type = Corner;
name = _corner.serfRight;
},
{
origin = "{2, 3}";
type = Corner;
name = _corner.serfLeft;
options = 1;
},
{
origin = "{0, 3}";
type = Corner;
name = _corner.serfLeft;
options = 1;
},
{
origin = "{0, 7}";
type = Corner;
name = _corner.serfLeft;
options = 1;
},
{
origin = "{1, 13}";
type = Corner;
name = _corner.serfLeft;
options = 1;
},
{
origin = "{1, 5}";
type = Corner;
name = _corner.serfRight;
}
);
layerId = "D36B0F94-A848-4C2C-9ADF-F92FCBE7F4F5";
paths = (
{
closed = 1;
nodes = (
"513 145 OFFCURVE",
"570 280 OFFCURVE",
"585 826 CURVE",
"450 826 LINE",
"443 368 OFFCURVE",
"410 227 OFFCURVE",
"66 33 CURVE",
"148 -78 LINE"
);
},
{
closed = 1;
nodes = (
"715 -87 OFFCURVE",
"816 -69 OFFCURVE",
"847 95 CURVE SMOOTH",
"879 267 OFFCURVE",
"888 417 OFFCURVE",
"890 593 CURVE",
"749 593 LINE",
"751 419 OFFCURVE",
"742 265 OFFCURVE",
"716 131 CURVE SMOOTH",
"700 50 OFFCURVE",
"678 42 OFFCURVE",
"554 58 CURVE",
"541 -69 LINE"
);
},
{
closed = 1;
nodes = (
"865 468 LINE",
"865 593 LINE",
"160 593 LINE",
"160 468 LINE"
);
}
);
width = 1000;
}
);
unicode = 529B;
},
{
glyphname = uni52C9;
lastChange = "2019-01-25 15:22:08 +0000";
layers = (
{
hints = (
{
origin = "{5, 2}";
type = Corner;
name = _corner.serfRight;
},
{
origin = "{10, 2}";
type = Corner;
name = _corner.serfRight;
},
{
origin = "{8, 2}";
type = Corner;
name = _corner.serfRight;
},
{
origin = "{5, 6}";
type = Corner;
name = _corner.serfRight;
},
{
origin = "{2, 3}";
type = Corner;
name = _corner.serfRight;
},
{
origin = "{7, 1}";
type = Corner;
name = _corner.serfRight;
},
{
origin = "{12, 2}";
type = Corner;
name = _corner.serfRight;
},
{
origin = "{10, 6}";
type = Corner;
name = _corner.serfRight;
},
{
origin = "{11, 12}";
type = Corner;
name = _corner.serfRight;
},
{
origin = "{11, 5}";
type = Corner;
name = _corner.serfRight;
},
{
origin = "{0, 3}";
type = Corner;
name = _corner.serfRight;
},
{
origin = "{1, 2}";
type = Corner;
name = _corner.serfRight;
},
{
origin = "{1, 6}";
type = Corner;
name = _corner.serfRight;
},
{
origin = "{12, 3}";
type = Corner;
name = _corner.serfLeft;
options = 1;
},
{
origin = "{7, 0}";
type = Corner;
name = _corner.serfLeft;
options = 1;
},
{
origin = "{0, 4}";
type = Corner;
name = _corner.serfLeft;
options = 1;
},
{
origin = "{11, 13}";
type = Corner;
name = _corner.serfLeft;
options = 1;
},
{
origin = "{10, 7}";
type = Corner;
name = _corner.serfLeft;
options = 1;
},
{
origin = "{10, 3}";
type = Corner;
name = _corner.serfLeft;
options = 1;
},
{
origin = "{5, 3}";
type = Corner;
name = _corner.serfLeft;
options = 1;
},
{
origin = "{8, 3}";
type = Corner;
name = _corner.serfLeft;
options = 1;
},
{
origin = "{1, 7}";
type = Corner;
name = _corner.serfLeft;
options = 1;
}
);
layerId = "D36B0F94-A848-4C2C-9ADF-F92FCBE7F4F5";
paths = (
{
closed = 1;
nodes = (
"828 -56 LINE SMOOTH",
"908 -56 OFFCURVE",
"938 -5 OFFCURVE",
"957 99 CURVE",
"853 126 LINE",
"839 72 OFFCURVE",
"831 45 OFFCURVE",
"793 45 CURVE SMOOTH",
"467 45 LINE SMOOTH",
"429 45 OFFCURVE",
"413 59 OFFCURVE",
"413 95 CURVE SMOOTH",
"413 348 LINE",
"310 333 LINE",
"310 98 LINE SMOOTH",
"310 -7 OFFCURVE",
"355 -56 OFFCURVE",
"487 -56 CURVE SMOOTH"
);
},
{
closed = 1;
nodes = (
"225 62 OFFCURVE",
"257 148 OFFCURVE",
"278 297 CURVE",
"183 315 LINE",
"163 177 OFFCURVE",
"131 107 OFFCURVE",
"41 -7 CURVE",
"135 -66 LINE"
);
},
{
closed = 1;
nodes = (
"206 308 LINE",
"206 563 LINE",
"114 563 LINE",
"114 308 LINE"
);
},
{
closed = 1;
nodes = (
"484 308 LINE",
"484 396 LINE",
"140 396 LINE",
"140 308 LINE"
);
},
{
closed = 1;
nodes = (
"348 360 LINE",
"348 537 LINE",
"259 537 LINE",
"259 360 LINE"
);
},
{
closed = 1;
nodes = (
"223 586 OFFCURVE",
"263 660 OFFCURVE",
"323 802 CURVE",
"237 836 LINE",
"173 699 OFFCURVE",
"136 632 OFFCURVE",
"40 496 CURVE",
"128 442 LINE"
);
},
{
closed = 1;
nodes = (
"484 496 LINE",
"484 583 LINE",
"140 583 LINE",
"140 496 LINE"
);
},
{
closed = 1;
nodes = (
"494 308 LINE",
"494 583 LINE",
"400 583 LINE",
"400 308 LINE"
);
},
{
closed = 1;
nodes = (
"386 574 OFFCURVE",
"424 636 OFFCURVE",
"466 708 CURVE",
"387 753 LINE",
"342 676 OFFCURVE",
"307 619 OFFCURVE",
"257 544 CURVE",
"337 505 LINE"
);
},
{
closed = 1;
nodes = (
"389 648 LINE",
"389 726 LINE",
"222 726 LINE",
"222 648 LINE"
);
},
{
closed = 1;
nodes = (
"700 322 OFFCURVE",
"750 456 OFFCURVE",
"749 800 CURVE",
"647 800 LINE",
"653 478 OFFCURVE",
"614 365 OFFCURVE",
"439 147 CURVE",
"530 87 LINE"
);
},
{
closed = 1;
nodes = (
"764 80 OFFCURVE",
"850 117 OFFCURVE",
"871 210 CURVE SMOOTH",
"891 303 OFFCURVE",
"901 471 OFFCURVE",
"901 611 CURVE",
"792 611 LINE",
"795 469 OFFCURVE",
"788 306 OFFCURVE",
"773 250 CURVE SMOOTH",
"758 194 OFFCURVE",
"714 184 OFFCURVE",
"658 190 CURVE",
"652 89 LINE"
);
},
{
closed = 1;
nodes = (
"888 511 LINE",
"888 611 LINE",
"529 611 LINE",
"529 511 LINE"
);
}
);
width = 1000;
}
);
unicode = 52C9;
},
{
glyphname = uni5341;
lastChange = "2020-03-19 13:07:37 +0000";
layers = (
{
hints = (
{
origin = "{1, 0}";
type = Corner;
name = _corner.serfRight;
},
{
origin = "{1, 1}";
type = Corner;
name = _corner.serfLeft;
},
{
origin = "{1, 2}";
type = Corner;
name = _corner.serfRight;
},
{
origin = "{1, 3}";
type = Corner;
name = _corner.serfLeft;
},
{
origin = "{0, 1}";
type = Corner;
name = _corner.serfRight;
},
{
origin = "{0, 3}";
type = Corner;
name = _corner.serfRight;
},
{
origin = "{0, 2}";
type = Corner;
name = _corner.serfLeft;
},
{
origin = "{0, 0}";
type = Corner;
name = _corner.serfLeft;
}
);
layerId = "D36B0F94-A848-4C2C-9ADF-F92FCBE7F4F5";
paths = (
{
closed = 1;
nodes = (
"573 -68 LINE",
"573 808 LINE",
"439 808 LINE",
"439 -68 LINE"
);
},
{
closed = 1;
nodes = (
"895 318 LINE",
"895 446 LINE",
"105 446 LINE",
"105 318 LINE"
);
}
);
width = 1000;
}
);
unicode = 5341;
},
{
glyphname = uni5343;
lastChange = "2019-01-25 16:11:09 +0000";
layers = (
{
hints = (
{
origin = "{0, 2}";
type = Corner;
name = _corner.serfRight;
},
{
origin = "{0, 3}";
type = Corner;
name = _corner.serfLeft;
options = 1;
},
{
origin = "{0, 6}";
type = Corner;
name = _corner.serfRight;
},
{
origin = "{0, 7}";
type = Corner;
name = _corner.serfLeft;
options = 1;
},
{
origin = "{1, 2}";
type = Corner;
name = _corner.serfRight;
},
{
origin = "{1, 0}";
type = Corner;
name = _corner.serfRight;
},
{
origin = "{1, 3}";
type = Corner;
name = _corner.serfLeft;
},
{
origin = "{1, 1}";
type = Corner;
name = _corner.serfLeft;
},
{
origin = "{2, 0}";
type = Corner;
name = _corner.serfRight;
},
{
origin = "{2, 1}";
type = Corner;
name = _corner.serfLeft;
},
{
origin = "{2, 2}";
type = Corner;
name = _corner.serfRight;
},
{
origin = "{2, 3}";
type = Corner;
name = _corner.serfLeft;
}
);
layerId = "D36B0F94-A848-4C2C-9ADF-F92FCBE7F4F5";
paths = (
{
closed = 1;
nodes = (
"375 585 OFFCURVE",
"629 637 OFFCURVE",
"784 684 CURVE",
"737 797 LINE",
"570 745 OFFCURVE",
"362 698 OFFCURVE",
"184 687 CURVE",
"204 573 LINE"
);
},
{
closed = 1;
nodes = (
"919 347 LINE",
"919 470 LINE",
"81 470 LINE",
"81 347 LINE"
);
},
{
closed = 1;
nodes = (
"566 678 LINE",
"434 678 LINE",
"434 -57 LINE",
"566 -57 LINE"
);
}
);
width = 1000;
}
);
unicode = 5343;
},
{
glyphname = uni5353;
lastChange = "2019-01-31 13:33:26 +0000";
layers = (
{
hints = (
{
origin = "{7, 1}";
type = Corner;
name = _corner.serfRight;
},
{
origin = "{6, 1}";
type = Corner;
name = _corner.serfRight;
},
{
origin = "{8, 0}";
type = Corner;
name = _corner.serfRight;
},
{
origin = "{0, 0}";
type = Corner;
name = _corner.serfRight;
},
{
origin = "{2, 3}";
type = Corner;
name = _corner.serfRight;
},
{
origin = "{0, 2}";
type = Corner;
name = _corner.serfRight;
},
{
origin = "{1, 3}";
type = Corner;
name = _corner.serfRight;
},
{
origin = "{7, 2}";
type = Corner;
name = _corner.serfLeft;
options = 1;
},
{
origin = "{8, 1}";
type = Corner;
name = _corner.serfLeft;
options = 1;
},
{
origin = "{2, 2}";
type = Corner;
name = _corner.serfLeft;
options = 1;
},
{
origin = "{2, 0}";
type = Corner;
name = _corner.serfLeft;
options = 1;
},
{
origin = "{6, 0}";
type = Corner;
name = _corner.serfLeft;
options = 1;
},
{
origin = "{0, 1}";
type = Corner;
name = _corner.serfLeft;
options = 1;
},
{
origin = "{0, 3}";
type = Corner;
name = _corner.serfLeft;
options = 1;
},
{
origin = "{1, 0}";
type = Corner;
name = _corner.serfLeft;
options = 1;
},
{
origin = "{6, 3}";
type = Corner;
name = _corner.serfRight;
}
);
layerId = "D36B0F94-A848-4C2C-9ADF-F92FCBE7F4F5";
paths = (
{
closed = 1;
nodes = (
"949 71 LINE",
"949 166 LINE",
"51 166 LINE",
"51 71 LINE"
);
},
{
closed = 1;
nodes = (
"549 -80 LINE",
"549 267 LINE",
"444 267 LINE",
"444 -80 LINE"
);
},
{
closed = 1;
nodes = (
"306 202 LINE",
"306 582 LINE",
"198 582 LINE",
"198 202 LINE"
);
},
{
closed = 1;
nodes = (
"714 240 LINE",
"714 325 LINE",
"274 325 LINE",
"274 240 LINE"
);
},
{
closed = 1;
nodes = (
"714 370 LINE",
"714 454 LINE",
"274 454 LINE",
"274 370 LINE"
);
},
{
closed = 1;
nodes = (
"714 497 LINE",
"714 582 LINE",
"274 582 LINE",
"274 497 LINE"
);
},
{
closed = 1;
nodes = (
"801 202 LINE",
"801 582 LINE",
"693 582 LINE",
"693 202 LINE"
);
},
{
closed = 1;
nodes = (
"547 546 LINE",
"547 818 LINE",
"432 818 LINE",
"432 546 LINE"
);
},
{
closed = 1;
nodes = (
"863 643 LINE",
"863 735 LINE",
"483 735 LINE",
"483 643 LINE"
);
}
);
width = 1000;
}
);
unicode = 5353;
},
{
glyphname = uni53D6;
lastChange = "2019-01-25 15:46:18 +0000";
layers = (
{
hints = (
{
origin = "{7, 3}";
type = Corner;
name = _corner.serfLeft;
options = 1;
},
{
origin = "{7, 1}";
type = Corner;
name = _corner.serfLeft;
options = 1;
},
{
origin = "{1, 7}";
type = Corner;
name = _corner.serfLeft;
options = 1;
},
{
origin = "{4, 0}";
type = Corner;
name = _corner.serfLeft;
options = 1;
},
{
origin = "{1, 6}";
type = Corner;
name = _corner.serfRight;
},
{
origin = "{7, 2}";
type = Corner;
name = _corner.serfRight;
},
{
origin = "{7, 0}";
type = Corner;
name = _corner.serfRight;
},
{
origin = "{4, 3}";
type = Corner;
name = _corner.serfRight;
},
{
origin = "{0, 2}";
type = Corner;
name = _corner.serfRight;
},
{
origin = "{8, 2}";
type = Corner;
name = _corner.serfRight;
},
{
origin = "{8, 3}";
type = Corner;
name = _corner.serfLeft;
options = 1;
},
{
origin = "{0, 7}";
type = Corner;
name = _corner.serfLeft;
options = 1;
},
{
origin = "{6, 0}";
type = Corner;
name = _corner.serfLeft;
options = 1;
},
{
origin = "{6, 4}";
type = Corner;
name = _corner.serfLeft;
options = 1;
},
{
origin = "{0, 3}";
type = Corner;
name = _corner.serfLeft;
options = 1;
},
{
origin = "{6, 7}";
type = Corner;
name = _corner.serfRight;
},
{
origin = "{6, 3}";
type = Corner;
name = _corner.serfRight;
}
);
layerId = "D36B0F94-A848-4C2C-9ADF-F92FCBE7F4F5";
paths = (
{
closed = 1;
nodes = (
"763 200 OFFCURVE",
"838 350 OFFCURVE",
"928 656 CURVE",
"823 688 LINE",
"740 391 OFFCURVE",
"664 260 OFFCURVE",
"452 26 CURVE",
"546 -55 LINE"
);
},
{
closed = 1;
nodes = (
"126 102 OFFCURVE",
"294 136 OFFCURVE",
"421 163 CURVE",
"410 258 LINE",
"278 238 OFFCURVE",
"108 212 OFFCURVE",
"29 199 CURVE",
"51 86 LINE"
);
},
{
closed = 1;
nodes = (
"241 184 LINE",
"241 729 LINE",
"137 729 LINE",
"137 184 LINE"
);
},
{
closed = 1;
nodes = (
"413 330 LINE",
"413 430 LINE",
"200 430 LINE",
"200 330 LINE"
);
},
{
closed = 1;
nodes = (
"481 -81 LINE",
"481 729 LINE",
"374 729 LINE",
"374 -81 LINE"
);
},
{
closed = 1;
nodes = (
"413 509 LINE",
"413 609 LINE",
"200 609 LINE",
"200 509 LINE"
);
},
{
closed = 1;
nodes = (
"958 24 LINE",
"790 200 OFFCURVE",
"709 338 OFFCURVE",
"636 531 CURVE",
"533 494 LINE",
"614 285 OFFCURVE",
"699 133 OFFCURVE",
"865 -59 CURVE"
);
},
{
closed = 1;
nodes = (
"562 688 LINE",
"562 793 LINE",
"54 793 LINE",
"54 688 LINE"
);
},
{
closed = 1;
nodes = (
"835 549 LINE",
"835 656 LINE",
"504 656 LINE",
"504 549 LINE"
);
}
);
width = 1000;
}
);
unicode = 53D6;
},
{
glyphname = uni53E3;
lastChange = "2019-01-25 15:46:00 +0000";
layers = (
{
hints = (
{
origin = "{0, 0}";
type = Corner;
name = _corner.serfLeft;
options = 1;
},
{
origin = "{0, 1}";
type = Corner;
name = _corner.serfRight;
},
{
origin = "{0, 3}";
type = Corner;
name = _corner.serfRight;
},
{
origin = "{2, 0}";
type = Corner;
name = _corner.serfLeft;
options = 1;
},
{
origin = "{2, 2}";
type = Corner;
name = _corner.serfLeft;
options = 1;
},
{
origin = "{2, 3}";
type = Corner;
name = _corner.serfRight;
}
);
layerId = "D36B0F94-A848-4C2C-9ADF-F92FCBE7F4F5";
paths = (
{
closed = 1;
nodes = (
"860 -43 LINE",
"860 738 LINE",
"724 738 LINE",
"724 -43 LINE"
);
},
{
closed = 1;
nodes = (
"793 36 LINE",
"793 155 LINE",
"169 155 LINE",
"169 36 LINE"
);
},
{
closed = 1;
nodes = (
"278 -43 LINE",
"278 738 LINE",
"140 738 LINE",
"140 -43 LINE"
);
},
{
closed = 1;
nodes = (
"793 610 LINE",
"793 738 LINE",
"169 738 LINE",
"169 610 LINE"
);
}
);
width = 1000;
}
);
unicode = 53E3;
},
{
glyphname = uni5468;
lastChange = "2019-01-31 13:33:19 +0000";
layers = (
{
hints = (
{
origin = "{9, 1}";
type = Corner;
name = _corner.serfRight;
},
{
origin = "{0, 4}";
type = Corner;
name = _corner.serfLeft;
options = 1;
},
{
origin = "{8, 1}";
type = Corner;
name = _corner.serfRight;
},
{
origin = "{7, 0}";
type = Corner;
name = _corner.serfRight;
},
{
origin = "{6, 0}";
type = Corner;
name = _corner.serfRight;
},
{
origin = "{7, 2}";
type = Corner;
name = _corner.serfRight;
},
{
origin = "{6, 2}";
type = Corner;
name = _corner.serfRight;
},
{
origin = "{5, 1}";
type = Corner;
name = _corner.serfRight;
},
{
origin = "{1, 3}";
type = Corner;
name = _corner.serfRight;
},
{
origin = "{5, 3}";
type = Corner;
name = _corner.serfRight;
},
{
origin = "{3, 2}";
type = Corner;
name = _corner.serfRight;
},
{
origin = "{8, 2}";
type = Corner;
name = _corner.serfLeft;
options = 1;
},
{
origin = "{7, 3}";
type = Corner;
name = _corner.serfLeft;
options = 1;
},
{
origin = "{7, 1}";
type = Corner;
name = _corner.serfLeft;
options = 1;
},
{
origin = "{6, 1}";
type = Corner;
name = _corner.serfLeft;
options = 1;
},
{
origin = "{6, 3}";
type = Corner;
name = _corner.serfLeft;
options = 1;
},
{
origin = "{1, 2}";
type = Corner;
name = _corner.serfLeft;
options = 1;
},
{
origin = "{5, 0}";
type = Corner;
name = _corner.serfLeft;
options = 1;
},
{
origin = "{1, 0}";
type = Corner;
name = _corner.serfLeft;
options = 1;
},
{
origin = "{3, 3}";
type = Corner;
name = _corner.serfLeft;
options = 1;
},
{
origin = "{9, 0}";
type = Corner;
name = _corner.serfLeft;
options = 1;
},
{
origin = "{0, 9}";
type = Corner;
name = _corner.serfLeft;
options = 1;
},
{
origin = "{0, 8}";
type = Corner;
name = _corner.serfRight;
}
);
layerId = "D36B0F94-A848-4C2C-9ADF-F92FCBE7F4F5";
paths = (
{
closed = 1;
nodes = (
"260 124 OFFCURVE",
"274 211 OFFCURVE",
"274 380 CURVE SMOOTH",
"274 796 LINE",
"154 796 LINE",
"154 403 LINE SMOOTH",
"154 237 OFFCURVE",
"134 161 OFFCURVE",
"25 -3 CURVE",
"124 -76 LINE"
);
},
{
closed = 1;
nodes = (
"434 31 LINE",
"434 316 LINE",
"337 316 LINE",
"337 31 LINE"
);
},
{
closed = 1;
nodes = (
"634 104 LINE",
"634 186 LINE",
"366 186 LINE",
"366 104 LINE"
);
},
{
closed = 1;
nodes = (
"860 -69 LINE",
"860 27 LINE",
"693 27 LINE",
"693 -69 LINE"
);
},
{
closed = 1;
nodes = (
"634 233 LINE",
"634 316 LINE",
"366 316 LINE",
"366 233 LINE"
);
},
{
closed = 1;
nodes = (
"683 60 LINE",
"683 316 LINE",
"586 316 LINE",
"586 60 LINE"
);
},
{
closed = 1;
nodes = (
"743 358 LINE",
"743 447 LINE",
"302 447 LINE",
"302 358 LINE"
);
},
{
closed = 1;
nodes = (
"707 505 LINE",
"707 591 LINE",
"336 591 LINE",
"336 505 LINE"
);
},
{
closed = 1;
nodes = (
"568 422 LINE",
"568 664 LINE",
"470 664 LINE",
"470 422 LINE"
);
},
{
closed = 1;
nodes = (
"883 -69 LINE",
"883 796 LINE",
"771 796 LINE",
"771 -69 LINE"
);
},
{
closed = 1;
nodes = (
"798 694 LINE",
"798 796 LINE",
"197 796 LINE",
"197 694 LINE"
);
}
);
width = 1000;
}
);
unicode = 5468;
},
{
glyphname = uni5668;
lastChange = "2019-01-26 16:23:27 +0000";
layers = (
{
hints = (
{
origin = "{18, 1}";
type = Corner;
name = _corner.serfRight;
},
{
origin = "{14, 1}";
type = Corner;
name = _corner.serfRight;
},
{
origin = "{7, 3}";
type = Corner;
name = _corner.serfRight;
},
{
origin = "{14, 3}";
type = Corner;
name = _corner.serfRight;
},
{
origin = "{18, 3}";
type = Corner;
name = _corner.serfRight;
},
{
origin = "{5, 3}";
type = Corner;
name = _corner.serfRight;
},
{
origin = "{8, 3}";
type = Corner;
name = _corner.serfRight;
},
{
origin = "{3, 3}";
type = Corner;
name = _corner.serfRight;
},
{
origin = "{1, 3}";
type = Corner;
name = _corner.serfRight;
},
{
origin = "{1, 0}";
type = Corner;
name = _corner.serfLeft;
options = 1;
},
{
origin = "{3, 0}";
type = Corner;
name = _corner.serfLeft;
options = 1;
},
{
origin = "{8, 0}";
type = Corner;
name = _corner.serfLeft;
options = 1;
},
{
origin = "{5, 2}";
type = Corner;
name = _corner.serfLeft;
options = 1;
},
{
origin = "{5, 0}";
type = Corner;
name = _corner.serfLeft;
options = 1;
},
{
origin = "{3, 1}";
type = Corner;
name = _corner.serfRight;
},
{
origin = "{11, 2}";
type = Corner;
name = _corner.serfRight;
},
{
origin = "{11, 0}";
type = Corner;
name = _corner.serfRight;
},
{
origin = "{18, 0}";
type = Corner;
name = _corner.serfLeft;
options = 1;
},
{
origin = "{7, 0}";
type = Corner;
name = _corner.serfLeft;
options = 1;
},
{
origin = "{7, 2}";
type = Corner;
name = _corner.serfLeft;
options = 1;
},
{
origin = "{15, 2}";
type = Corner;
name = _corner.serfLeft;
options = 1;
},
{
origin = "{11, 1}";
type = Corner;
name = _corner.serfLeft;
options = 1;
},
{
origin = "{11, 3}";
type = Corner;
name = _corner.serfLeft;
options = 1;
},
{
origin = "{0, 7}";
type = Corner;
name = _corner.serfLeft;
options = 1;
},
{
origin = "{12, 0}";
type = Corner;
name = _corner.serfLeft;
options = 1;
},
{
origin = "{12, 7}";
type = Corner;
name = _corner.serfRight;
},
{
origin = "{0, 6}";
type = Corner;
name = _corner.serfRight;
},
{
origin = "{15, 0}";
type = Corner;
name = _corner.serfLeft;
options = 1;
}
);
layerId = "D36B0F94-A848-4C2C-9ADF-F92FCBE7F4F5";
paths = (
{
closed = 1;
nodes = (
"322 227 OFFCURVE",
"442 355 OFFCURVE",
"560 566 CURVE",
"461 613 LINE",
"369 433 OFFCURVE",
"257 307 OFFCURVE",
"42 204 CURVE",
"91 117 LINE"
);
},
{
closed = 1;
nodes = (
"276 -73 LINE",
"276 242 LINE",
"176 242 LINE",
"176 -73 LINE"
);
},
{
closed = 1;
nodes = (
"449 -11 LINE",
"449 73 LINE",
"190 73 LINE",
"190 -11 LINE"
);
},
{
closed = 1;
nodes = (
"464 -62 LINE",
"464 242 LINE",
"369 242 LINE",
"369 -62 LINE"
);
},
{
closed = 1;
nodes = (
"449 158 LINE",
"449 242 LINE",
"190 242 LINE",
"190 158 LINE"
);
},
{
closed = 1;
nodes = (
"634 -67 LINE",
"634 242 LINE",
"538 242 LINE",
"538 -67 LINE"
);
},
{
closed = 1;
nodes = (
"811 -11 LINE",
"811 73 LINE",
"551 73 LINE",
"551 -11 LINE"
);
},
{
closed = 1;
nodes = (
"255 506 LINE",
"255 785 LINE",
"155 785 LINE",
"155 506 LINE"
);
},
{
closed = 1;
nodes = (
"836 -62 LINE",
"836 242 LINE",
"739 242 LINE",
"739 -62 LINE"
);
},
{
closed = 1;
nodes = (
"811 158 LINE",
"811 242 LINE",
"551 242 LINE",
"551 158 LINE"
);
},
{
closed = 1;
nodes = (
"443 554 LINE",
"443 636 LINE",
"187 636 LINE",
"187 554 LINE"
);
},
{
closed = 1;
nodes = (
"938 359 LINE",
"938 453 LINE",
"75 453 LINE",
"75 359 LINE"
);
},
{
closed = 1;
nodes = (
"954 235 LINE",
"799 291 OFFCURVE",
"721 349 OFFCURVE",
"630 440 CURVE",
"542 398 LINE",
"647 272 OFFCURVE",
"734 211 OFFCURVE",
"908 137 CURVE"
);
},
{
closed = 1;
nodes = (
"442 703 LINE",
"442 785 LINE",
"186 785 LINE",
"186 703 LINE"
);
},
{
closed = 1;
nodes = (
"464 522 LINE",
"464 785 LINE",
"366 785 LINE",
"366 522 LINE"
);
},
{
closed = 1;
nodes = (
"632 522 LINE",
"632 785 LINE",
"534 785 LINE",
"534 522 LINE"
);
},
{
closed = 1;
nodes = (
"815 554 LINE",
"815 636 LINE",
"558 636 LINE",
"558 554 LINE"
);
},
{
closed = 1;
nodes = (
"815 701 LINE",
"815 785 LINE",
"558 785 LINE",
"558 701 LINE"
);
},
{
closed = 1;
nodes = (
"849 513 LINE",
"849 785 LINE",
"749 785 LINE",
"749 513 LINE"
);
}
);
width = 1000;
}
);
unicode = 5668;
},
{
glyphname = uni56FD;
lastChange = "2019-01-26 16:13:10 +0000";
layers = (
{
hints = (
{
origin = "{0, 3}";
target = "{0, 0}";
scale = "{0.96032, 1}";
type = Cap;
name = _cap.serf;
options = 3;
},
{
origin = "{7, 3}";
target = "{7, 0}";
scale = "{0.94444, 1}";
type = Cap;
name = _cap.serf;
options = 3;
},
{
origin = "{5, 4}";
scale = "{0.9, 0.9}";
type = Corner;
name = _corner.serfLeft;
},
{
origin = "{5, 0}";
scale = "{0.9, 0.9}";
type = Corner;
name = _corner.serfLeft;
},
{
origin = "{7, 1}";
type = Corner;
name = _corner.serfRight;
},
{
origin = "{0, 2}";
type = Corner;
name = _corner.serfLeft;
},
{
origin = "{6, 2}";
type = Corner;
name = _corner.serfRight;
},
{
origin = "{4, 2}";
type = Corner;
name = _corner.serfRight;
},
{
origin = "{2, 2}";
type = Corner;
name = _corner.serfRight;
},
{
origin = "{2, 0}";
type = Corner;
name = _corner.serfRight;
},
{
origin = "{6, 0}";
type = Corner;
name = _corner.serfRight;
},
{
origin = "{6, 3}";
type = Corner;
name = _corner.serfLeft;
},
{
origin = "{4, 3}";
type = Corner;
name = _corner.serfLeft;
},
{
origin = "{2, 3}";
type = Corner;
name = _corner.serfLeft;
},
{
origin = "{4, 1}";
type = Corner;
name = _corner.serfLeft;
},
{
origin = "{6, 1}";
type = Corner;
name = _corner.serfLeft;
},
{
origin = "{4, 0}";
type = Corner;
name = _corner.serfRight;
}
);
layerId = "D36B0F94-A848-4C2C-9ADF-F92FCBE7F4F5";
paths = (
{
closed = 1;
nodes = (
"214 -61 LINE",
"214 809 LINE",
"93 809 LINE",
"93 -61 LINE"
);
},
{
closed = 1;
nodes = (
"865 -2 LINE",
"865 102 LINE",
"161 102 LINE",
"161 -2 LINE"
);
},
{
closed = 1;
nodes = (
"736 162 LINE",
"736 252 LINE",
"266 252 LINE",
"266 162 LINE"
);
},
{
closed = 1;
nodes = (
"546 185 LINE",
"546 596 LINE",
"447 596 LINE",
"447 185 LINE"
);
},
{
closed = 1;
nodes = (
"687 368 LINE",
"687 465 LINE",
"315 465 LINE",
"315 368 LINE"
);
},
{
closed = 1;
nodes = (
"721 286 LINE",
"691 320 OFFCURVE",
"660 352 OFFCURVE",
"631 379 CURVE",
"575 331 LINE",
"607 299 OFFCURVE",
"635 268 OFFCURVE",
"663 231 CURVE"
);
},
{
closed = 1;
nodes = (
"728 545 LINE",
"728 640 LINE",
"274 640 LINE",
"274 545 LINE"
);
},
{
closed = 1;
nodes = (
"907 -61 LINE",
"907 809 LINE",
"788 809 LINE",
"788 -61 LINE"
);
},
{
closed = 1;
nodes = (
"865 707 LINE",
"865 809 LINE",
"161 809 LINE",
"161 707 LINE"
);
}
);
width = 1000;
}
);
unicode = 56FD;
},
{
glyphname = uni58F2;
lastChange = "2019-01-25 12:27:55 +0000";
layers = (
{
hints = (
{
origin = "{6, 0}";
type = Corner;
name = _corner.serfRight;
},
{
origin = "{6, 1}";
type = Corner;
name = _corner.serfLeft;
options = 1;
},
{
origin = "{6, 3}";
type = Corner;
name = _corner.serfLeft;
options = 1;
},
{
origin = "{5, 2}";
type = Corner;
name = _corner.serfLeft;
options = 1;
},
{
origin = "{3, 3}";
type = Corner;
name = _corner.serfLeft;
options = 1;
},
{
origin = "{3, 1}";
type = Corner;
name = _corner.serfLeft;
options = 1;
},
{
origin = "{4, 0}";
type = Corner;
name = _corner.serfLeft;
options = 1;
},
{
origin = "{2, 2}";
type = Corner;
name = _corner.serfLeft;
options = 1;
},
{
origin = "{7, 0}";
type = Corner;
name = _corner.serfLeft;
options = 1;
},
{
origin = "{0, 3}";
type = Corner;
name = _corner.serfLeft;
options = 1;
},
{
origin = "{1, 13}";
type = Corner;
name = _corner.serfLeft;
options = 1;
},
{
origin = "{0, 7}";
type = Corner;
name = _corner.serfLeft;
options = 1;
},
{
origin = "{1, 4}";
type = Corner;
name = _corner.serfLeft;
options = 1;
},
{
origin = "{5, 1}";
type = Corner;
name = _corner.serfRight;
},
{
origin = "{6, 2}";
type = Corner;
name = _corner.serfRight;
},
{
origin = "{3, 2}";
type = Corner;
name = _corner.serfRight;
},
{
origin = "{7, 3}";
type = Corner;
name = _corner.serfRight;
},
{
origin = "{0, 6}";
type = Corner;
name = _corner.serfRight;
},
{
origin = "{0, 2}";
type = Corner;
name = _corner.serfRight;
},
{
origin = "{1, 12}";
type = Corner;
name = _corner.serfRight;
},
{
origin = "{1, 3}";
type = Corner;
name = _corner.serfRight;
},
{
origin = "{4, 3}";
type = Corner;
name = _corner.serfRight;
},
{
origin = "{2, 1}";
type = Corner;
name = _corner.serfRight;
},
{
origin = "{3, 0}";
type = Corner;
name = _corner.serfRight;
}
);
layerId = "D36B0F94-A848-4C2C-9ADF-F92FCBE7F4F5";
paths = (
{
closed = 1;
nodes = (
"279 -1 OFFCURVE",
"389 77 OFFCURVE",
"464 293 CURVE",
"363 327 LINE",
"306 157 OFFCURVE",
"211 87 OFFCURVE",
"55 26 CURVE",
"98 -71 LINE"
);
},
{
closed = 1;
nodes = (
"809 -58 LINE SMOOTH",
"901 -58 OFFCURVE",
"933 0 OFFCURVE",
"951 105 CURVE",
"847 135 LINE",
"834 82 OFFCURVE",
"830 45 OFFCURVE",
"785 45 CURVE SMOOTH",
"692 45 LINE SMOOTH",
"647 45 OFFCURVE",
"631 60 OFFCURVE",
"631 100 CURVE SMOOTH",
"631 322 LINE",
"523 322 LINE",
"523 103 LINE SMOOTH",
"523 -9 OFFCURVE",
"580 -58 OFFCURVE",
"684 -58 CURVE SMOOTH"
);
},
{
closed = 1;
nodes = (
"880 354 LINE",
"880 445 LINE",
"115 445 LINE",
"115 354 LINE"
);
},
{
closed = 1;
nodes = (
"795 484 LINE",
"795 578 LINE",
"205 578 LINE",
"205 484 LINE"
);
},
{
closed = 1;
nodes = (
"880 231 LINE",
"880 404 LINE",
"772 404 LINE",
"772 231 LINE"
);
},
{
closed = 1;
nodes = (
"558 512 LINE",
"558 822 LINE",
"443 822 LINE",
"443 512 LINE"
);
},
{
closed = 1;
nodes = (
"880 623 LINE",
"880 726 LINE",
"120 726 LINE",
"120 623 LINE"
);
},
{
closed = 1;
nodes = (
"223 231 LINE",
"223 404 LINE",
"115 404 LINE",
"115 231 LINE"
);
}
);
width = 1000;
}
);
unicode = 58F2;
},
{
glyphname = uni5909;
lastChange = "2019-01-26 13:45:13 +0000";
layers = (
{
hints = (
{
origin = "{3, 0}";
type = Corner;
name = _corner.serfLeft;
options = 1;
},
{
origin = "{1, 3}";
type = Corner;
name = _corner.serfLeft;
options = 1;
},
{
origin = "{1, 7}";
type = Corner;
name = _corner.serfLeft;
options = 1;
},
{
origin = "{0, 3}";
type = Corner;
name = _corner.serfLeft;
options = 1;
},
{
origin = "{3, 7}";
type = Corner;
name = _corner.serfRight;
},
{
origin = "{1, 2}";
type = Corner;
name = _corner.serfRight;
},
{
origin = "{0, 2}";
type = Corner;
name = _corner.serfRight;
},
{
origin = "{0, 6}";
type = Corner;
name = _corner.serfRight;
},
{
origin = "{0, 7}";
type = Corner;
name = _corner.serfLeft;
options = 1;
},
{
origin = "{1, 6}";
type = Corner;
name = _corner.serfRight;
},
{
origin = "{8, 0}";
type = Corner;
name = _corner.serfRight;
},
{
origin = "{8, 2}";
type = Corner;
name = _corner.serfRight;
},
{
origin = "{9, 1}";
type = Corner;
name = _corner.serfRight;
},
{
origin = "{8, 1}";
type = Corner;
name = _corner.serfLeft;
options = 1;
},
{
origin = "{8, 3}";
type = Corner;
name = _corner.serfLeft;
options = 1;
},
{
origin = "{9, 2}";
type = Corner;
name = _corner.serfLeft;
options = 1;
},
{
origin = "{2, 2}";
type = Corner;
name = _corner.serfRight;
},
{
origin = "{2, 6}";
type = Corner;
name = _corner.serfRight;
},
{
origin = "{10, 3}";
type = Corner;
name = _corner.serfRight;
},
{
origin = "{10, 7}";
type = Corner;
name = _corner.serfRight;
},
{
origin = "{10, 4}";
type = Corner;
name = _corner.serfLeft;
options = 1;
},
{
origin = "{10, 0}";
type = Corner;
name = _corner.serfLeft;
options = 1;
},
{
origin = "{7, 0}";
type = Corner;
name = _corner.serfLeft;
options = 1;
},
{
origin = "{4, 7}";
type = Corner;
name = _corner.serfLeft;
options = 1;
},
{
origin = "{2, 3}";
type = Corner;
name = _corner.serfLeft;
options = 1;
},
{
origin = "{2, 7}";
type = Corner;
name = _corner.serfLeft;
options = 1;
},
{
origin = "{4, 6}";
type = Corner;
name = _corner.serfRight;
},
{
origin = "{6, 2}";
type = Corner;
name = _corner.serfRight;
}
);
layerId = "D36B0F94-A848-4C2C-9ADF-F92FCBE7F4F5";
paths = (
{
closed = 1;
nodes = (
"310 151 OFFCURVE",
"413 213 OFFCURVE",
"534 349 CURVE",
"467 410 LINE",
"347 293 OFFCURVE",
"255 236 OFFCURVE",
"104 185 CURVE",
"147 96 LINE"
);
},
{
closed = 1;
nodes = (
"372 -13 OFFCURVE",
"560 60 OFFCURVE",
"778 251 CURVE",
"707 316 LINE",
"501 149 OFFCURVE",
"312 72 OFFCURVE",
"85 29 CURVE",
"109 -73 LINE"
);
},
{
closed = 1;
nodes = (
"227 429 OFFCURVE",
"261 474 OFFCURVE",
"309 555 CURVE",
"232 602 LINE",
"181 531 OFFCURVE",
"152 495 OFFCURVE",
"87 441 CURVE",
"163 369 LINE"
);
},
{
closed = 1;
nodes = (
"934 33 LINE",
"675 71 OFFCURVE",
"562 120 OFFCURVE",
"364 247 CURVE",
"300 186 LINE",
"506 25 OFFCURVE",
"635 -15 OFFCURVE",
"914 -74 CURVE"
);
},
{
closed = 1;
nodes = (
"416 406 OFFCURVE",
"481 495 OFFCURVE",
"481 650 CURVE",
"379 650 LINE",
"379 532 OFFCURVE",
"337 457 OFFCURVE",
"223 377 CURVE",
"296 307 LINE"
);
},
{
closed = 1;
nodes = (
"704 222 LINE",
"704 296 LINE",
"388 296 LINE",
"388 222 LINE"
);
},
{
closed = 1;
nodes = (
"648 371 LINE",
"648 466 LINE",
"491 466 LINE",
"491 371 LINE"
);
},
{
closed = 1;
nodes = (
"658 371 LINE",
"658 650 LINE",
"555 650 LINE",
"555 371 LINE"
);
},
{
closed = 1;
nodes = (
"883 640 LINE",
"883 736 LINE",
"123 736 LINE",
"123 640 LINE"
);
},
{
closed = 1;
nodes = (
"561 653 LINE",
"561 831 LINE",
"442 831 LINE",
"442 653 LINE"
);
},
{
closed = 1;
nodes = (
"919 430 LINE",
"866 501 OFFCURVE",
"823 549 OFFCURVE",
"767 602 CURVE",
"693 543 LINE",
"750 489 OFFCURVE",
"780 452 OFFCURVE",
"826 367 CURVE"
);
}
);
width = 1000;
}
);
unicode = 5909;
},
{
glyphname = uni590F;
lastChange = "2019-01-31 13:34:51 +0000";
layers = (
{
hints = (
{
origin = "{11, 2}";
type = Corner;
name = _corner.serfRight;
},
{
origin = "{11, 3}";
type = Corner;
name = _corner.serfLeft;
options = 1;
},
{
origin = "{11, 1}";
type = Corner;
name = _corner.serfLeft;
options = 1;
},
{
origin = "{11, 0}";
type = Corner;
name = _corner.serfRight;
},
{
origin = "{9, 1}";
type = Corner;
name = _corner.serfRight;
},
{
origin = "{4, 3}";
type = Corner;
name = _corner.serfRight;
},
{
origin = "{4, 2}";
type = Corner;
name = _corner.serfLeft;
options = 1;
},
{
origin = "{9, 0}";
type = Corner;
name = _corner.serfLeft;
options = 1;
},
{
origin = "{0, 2}";
type = Corner;
name = _corner.serfRight;
},
{
origin = "{0, 6}";
type = Corner;
name = _corner.serfRight;
},
{
origin = "{0, 7}";
type = Corner;
name = _corner.serfLeft;
options = 1;
},
{
origin = "{1, 7}";
type = Corner;
name = _corner.serfLeft;
options = 1;
},
{
origin = "{1, 6}";
type = Corner;
name = _corner.serfRight;
},
{
origin = "{2, 7}";
type = Corner;
name = _corner.serfRight;
},
{
origin = "{2, 0}";
type = Corner;
name = _corner.serfLeft;
options = 1;
},
{
origin = "{1, 2}";
type = Corner;
name = _corner.serfRight;
},
{
origin = "{1, 3}";
type = Corner;
name = _corner.serfLeft;
options = 1;
}
);
layerId = "D36B0F94-A848-4C2C-9ADF-F92FCBE7F4F5";
paths = (
{
closed = 1;
nodes = (
"302 123 OFFCURVE",
"391 167 OFFCURVE",
"517 275 CURVE",
"445 334 LINE",
"347 248 OFFCURVE",
"269 200 OFFCURVE",
"112 141 CURVE",
"140 66 LINE"
);
},
{
closed = 1;
nodes = (
"378 -41 OFFCURVE",
"570 22 OFFCURVE",
"784 183 CURVE",
"722 257 LINE",
"536 115 OFFCURVE",
"348 44 OFFCURVE",
"91 9 CURVE",
"108 -77 LINE"
);
},
{
closed = 1;
nodes = (
"939 22 LINE",
"689 54 OFFCURVE",
"540 115 OFFCURVE",
"358 215 CURVE",
"302 156 LINE",
"510 23 OFFCURVE",
"665 -26 OFFCURVE",
"921 -74 CURVE"
);
},
{
closed = 1;
nodes = (
"712 171 LINE",
"712 239 LINE",
"390 239 LINE",
"390 171 LINE"
);
},
{
closed = 1;
nodes = (
"332 280 LINE",
"332 687 LINE",
"225 687 LINE",
"225 280 LINE"
);
},
{
closed = 1;
nodes = (
"732 280 LINE",
"732 356 LINE",
"251 356 LINE",
"251 280 LINE"
);
},
{
closed = 1;
nodes = (
"732 398 LINE",
"732 463 LINE",
"251 463 LINE",
"251 398 LINE"
);
},
{
closed = 1;
nodes = (
"732 501 LINE",
"732 572 LINE",
"251 572 LINE",
"251 501 LINE"
);
},
{
closed = 1;
nodes = (
"732 609 LINE",
"732 687 LINE",
"251 687 LINE",
"251 609 LINE"
);
},
{
closed = 1;
nodes = (
"783 280 LINE",
"783 687 LINE",
"676 687 LINE",
"676 280 LINE"
);
},
{
closed = 1;
nodes = (
"533 676 OFFCURVE",
"549 727 OFFCURVE",
"552 761 CURVE",
"440 761 LINE",
"438 728 OFFCURVE",
"431 682 OFFCURVE",
"424 656 CURVE",
"527 648 LINE"
);
},
{
closed = 1;
nodes = (
"902 729 LINE",
"902 818 LINE",
"102 818 LINE",
"102 729 LINE"
);
}
);
width = 1000;
}
);
unicode = 590F;
},
{
glyphname = uni5916;
lastChange = "2019-01-30 20:21:48 +0000";
layers = (
{
hints = (
{
origin = "{4, 1}";
type = Corner;
name = _corner.serfRight;
},
{
origin = "{4, 3}";
type = Corner;
name = _corner.serfRight;
},
{
origin = "{0, 6}";
type = Corner;
name = _corner.serfRight;
},
{
origin = "{1, 3}";
type = Corner;
name = _corner.serfRight;
},
{
origin = "{2, 6}";
type = Corner;
name = _corner.serfRight;
},
{
origin = "{2, 2}";
type = Corner;
name = _corner.serfRight;
},
{
origin = "{5, 7}";
type = Corner;
name = _corner.serfRight;
},
{
origin = "{4, 2}";
type = Corner;
name = _corner.serfLeft;
options = 1;
},
{
origin = "{2, 3}";
type = Corner;
name = _corner.serfLeft;
options = 1;
},
{
origin = "{0, 3}";
type = Corner;
name = _corner.serfLeft;
options = 1;
},
{
origin = "{2, 7}";
type = Corner;
name = _corner.serfLeft;
options = 1;
},
{
origin = "{1, 4}";
type = Corner;
name = _corner.serfLeft;
options = 1;
},
{
origin = "{0, 7}";
type = Corner;
name = _corner.serfLeft;
options = 1;
},
{
origin = "{4, 0}";
type = Corner;
name = _corner.serfLeft;
options = 1;
},
{
origin = "{5, 0}";
type = Corner;
name = _corner.serfLeft;
options = 1;
},
{
origin = "{0, 2}";
type = Corner;
name = _corner.serfRight;
}
);
layerId = "D36B0F94-A848-4C2C-9ADF-F92FCBE7F4F5";
paths = (
{
closed = 1;
nodes = (
"391 138 OFFCURVE",
"543 392 OFFCURVE",
"596 698 CURVE",
"492 722 LINE",
"433 424 OFFCURVE",
"308 219 OFFCURVE",
"61 28 CURVE",
"138 -64 LINE"
);
},
{
closed = 1;
nodes = (
"439 380 LINE",
"409 401 OFFCURVE",
"353 437 OFFCURVE",
"300 467 CURVE",
"236 380 LINE",
"291 349 OFFCURVE",
"331 319 OFFCURVE",
"362 290 CURVE"
);
},
{
closed = 1;
nodes = (
"286 469 OFFCURVE",
"353 608 OFFCURVE",
"401 791 CURVE",
"295 828 LINE",
"236 640 OFFCURVE",
"181 523 OFFCURVE",
"51 369 CURVE",
"142 296 LINE"
);
},
{
closed = 1;
nodes = (
"516 565 LINE",
"516 665 LINE",
"266 665 LINE",
"266 565 LINE"
);
},
{
closed = 1;
nodes = (
"749 -68 LINE",
"749 814 LINE",
"632 814 LINE",
"632 -68 LINE"
);
},
{
closed = 1;
nodes = (
"971 301 LINE",
"772 375 OFFCURVE",
"653 447 OFFCURVE",
"520 559 CURVE",
"476 464 LINE",
"594 348 OFFCURVE",
"725 268 OFFCURVE",
"921 183 CURVE"
);
}
);
width = 1000;
}
);
unicode = 5916;
},
{
glyphname = uni591C;
lastChange = "2019-01-26 16:28:11 +0000";
layers = (
{
hints = (
{
origin = "{7, 2}";
type = Corner;
name = _corner.serfRight;
},
{
origin = "{7, 1}";
type = Corner;
name = _corner.serfLeft;
options = 1;
},
{
origin = "{7, 3}";
type = Corner;
name = _corner.serfLeft;
options = 1;
},
{
origin = "{8, 2}";
type = Corner;
name = _corner.serfLeft;
options = 1;
},
{
origin = "{2, 7}";
type = Corner;
name = _corner.serfLeft;
options = 1;
},
{
origin = "{1, 0}";
type = Corner;
name = _corner.serfLeft;
options = 1;
},
{
origin = "{0, 7}";
type = Corner;
name = _corner.serfLeft;
options = 1;
},
{
origin = "{3, 0}";
type = Corner;
name = _corner.serfLeft;
options = 1;
},
{
origin = "{5, 4}";
type = Corner;
name = _corner.serfLeft;
options = 1;
},
{
origin = "{4, 7}";
type = Corner;
name = _corner.serfLeft;
options = 1;
},
{
origin = "{0, 3}";
type = Corner;
name = _corner.serfLeft;
options = 1;
},
{
origin = "{7, 0}";
type = Corner;
name = _corner.serfRight;
},
{
origin = "{8, 1}";
type = Corner;
name = _corner.serfRight;
},
{
origin = "{2, 2}";
type = Corner;
name = _corner.serfRight;
},
{
origin = "{2, 6}";
type = Corner;
name = _corner.serfRight;
},
{
origin = "{1, 1}";
type = Corner;
name = _corner.serfRight;
},
{
origin = "{1, 3}";
type = Corner;
name = _corner.serfRight;
},
{
origin = "{3, 7}";
type = Corner;
name = _corner.serfRight;
},
{
origin = "{5, 3}";
type = Corner;
name = _corner.serfRight;
},
{
origin = "{4, 2}";
type = Corner;
name = _corner.serfRight;
},
{
origin = "{0, 2}";
type = Corner;
name = _corner.serfRight;
}
);
layerId = "D36B0F94-A848-4C2C-9ADF-F92FCBE7F4F5";
paths = (
{
closed = 1;
nodes = (
"643 92 OFFCURVE",
"769 240 OFFCURVE",
"897 499 CURVE",
"802 540 LINE",
"683 299 OFFCURVE",
"570 176 OFFCURVE",
"299 24 CURVE",
"366 -65 LINE"
);
},
{
closed = 1;
nodes = (
"311 -78 LINE",
"311 428 LINE",
"206 428 LINE",
"206 -78 LINE"
);
},
{
closed = 1;
nodes = (
"259 365 OFFCURVE",
"331 444 OFFCURVE",
"418 560 CURVE",
"327 619 LINE",
"247 505 OFFCURVE",
"174 424 OFFCURVE",
"42 323 CURVE",
"114 242 LINE"
);
},
{
closed = 1;
nodes = (
"961 37 LINE",
"764 119 OFFCURVE",
"626 201 OFFCURVE",
"471 381 CURVE",
"400 320 LINE",
"553 128 OFFCURVE",
"694 27 OFFCURVE",
"900 -64 CURVE"
);
},
{
closed = 1;
nodes = (
"488 327 OFFCURVE",
"571 442 OFFCURVE",
"655 581 CURVE",
"557 625 LINE",
"483 493 OFFCURVE",
"401 382 OFFCURVE",
"283 257 CURVE",
"368 193 LINE"
);
},
{
closed = 1;
nodes = (
"733 320 LINE",
"692 350 OFFCURVE",
"659 372 OFFCURVE",
"606 401 CURVE",
"557 340 LINE",
"608 310 OFFCURVE",
"637 289 OFFCURVE",
"678 253 CURVE"
);
},
{
closed = 1;
nodes = (
"827 426 LINE",
"827 508 LINE",
"535 508 LINE",
"535 426 LINE"
);
},
{
closed = 1;
nodes = (
"901 607 LINE",
"901 712 LINE",
"101 712 LINE",
"101 607 LINE"
);
},
{
closed = 1;
nodes = (
"558 624 LINE",
"558 835 LINE",
"438 835 LINE",
"438 624 LINE"
);
}
);
width = 1000;
}
);
unicode = 591C;
},
{
glyphname = uni5927;
lastChange = "2019-01-26 13:08:54 +0000";
layers = (
{
hints = (
{
origin = "{2, 0}";
type = Corner;
name = _corner.serfRight;
},
{
origin = "{2, 2}";
type = Corner;
name = _corner.serfRight;
},
{
origin = "{2, 3}";
type = Corner;
name = _corner.serfLeft;
},
{
origin = "{2, 1}";
type = Corner;
name = _corner.serfLeft;
},
{
origin = "{0, 6}";
type = Corner;
name = _corner.serfLeft;
},
{
origin = "{0, 5}";
type = Corner;
name = _corner.serfRight;
},
{
origin = "{0, 12}";
type = Corner;
name = _corner.serfRight;
},
{
origin = "{0, 13}";
type = Corner;
name = _corner.serfLeft;
},
{
origin = "{1, 0}";
type = Corner;
name = _corner.serfLeft;
},
{
origin = "{2, 0}";
type = Corner;
name = _corner.serfRight;
},
{
origin = "{1, 7}";
type = Corner;
name = _corner.serfRight;
}
);
layerId = "D36B0F94-A848-4C2C-9ADF-F92FCBE7F4F5";
paths = (
{
closed = 1;
nodes = (
"432 102 OFFCURVE",
"571 299 OFFCURVE",
"571 645 CURVE SMOOTH",
"571 702 OFFCURVE",
"571 763 OFFCURVE",
"571 828 CURVE",
"439 828 LINE",
"439 775 OFFCURVE",
"439 711 OFFCURVE",
"439 657 CURVE SMOOTH",
"439 374 OFFCURVE",
"347 187 OFFCURVE",
"55 62 CURVE",
"131 -54 LINE"
);
},
{
closed = 1;
nodes = (
"958 54 LINE",
"740 169 OFFCURVE",
"631 297 OFFCURVE",
"551 533 CURVE",
"455 434 LINE",
"549 221 OFFCURVE",
"650 81 OFFCURVE",
"885 -65 CURVE"
);
},
{
closed = 1;
nodes = (
"903 441 LINE",
"903 565 LINE",
"104 565 LINE",
"104 441 LINE"
);
}
);
width = 1000;
}
);
unicode = 5927;
},
{
glyphname = uni5973;
lastChange = "2019-01-23 05:43:50 +0000";
layers = (
{
background = {
paths = (
{
closed = 1;
nodes = (
"745 -4 OFFCURVE",
"671 48 OFFCURVE",
"562 108 CURVE",
"502 55 OFFCURVE",
"431 13 OFFCURVE",
"347 -19 CURVE",
"276 -47 OFFCURVE",
"206 -64 OFFCURVE",
"103 -78 CURVE",
"86 -30 OFFCURVE",
"72 -4 OFFCURVE",
"50 28 CURVE",
"158 39 OFFCURVE",
"225 53 OFFCURVE",
"295 81 CURVE",
"358 105 OFFCURVE",
"413 133 OFFCURVE",
"457 164 CURVE",
"384 200 OFFCURVE",
"375 204 OFFCURVE",
"267 246 CURVE",
"251 224 OFFCURVE",
"249 221 OFFCURVE",
"232 198 CURVE",
"192 217 OFFCURVE",
"176 224 OFFCURVE",
"121 245 CURVE",
"192 332 OFFCURVE",
"239 406 OFFCURVE",
"293 518 CURVE",
"168 518 LINE",
"120 518 OFFCURVE",
"81 516 OFFCURVE",
"51 512 CURVE",
"51 628 LINE",
"84 623 OFFCURVE",
"121 621 OFFCURVE",
"168 621 CURVE",
"338 621 LINE",
"370 707 OFFCURVE",
"392 778 OFFCURVE",
"400 829 CURVE",
"529 811 LINE",
"523 796 OFFCURVE",
"513 770 OFFCURVE",
"504 741 CURVE",
"489 692 OFFCURVE",
"478 664 OFFCURVE",
"462 621 CURVE",
"833 621 LINE",
"885 621 OFFCURVE",
"920 623 OFFCURVE",
"950 628 CURVE",
"950 512 LINE",
"919 516 OFFCURVE",
"884 518 OFFCURVE",
"837 518 CURVE",
"782 518 LINE",
"752 378 OFFCURVE",
"711 285 OFFCURVE",
"641 192 CURVE",
"762 126 OFFCURVE",
"827 84 OFFCURVE",
"929 10 CURVE",
"850 -86 LINE"
);
},
{
closed = 1;
nodes = (
"389 449 OFFCURVE",
"368 409 OFFCURVE",
"324 336 CURVE",
"415 302 OFFCURVE",
"458 285 OFFCURVE",
"540 244 CURVE",
"606 324 OFFCURVE",
"639 397 OFFCURVE",
"666 518 CURVE",
"420 518 LINE"
);
}
);
};
hints = (
{
origin = "{3, 2}";
type = Corner;
name = _corner.serfRight;
},
{
origin = "{2, 2}";
type = Corner;
name = _corner.serfRight;
},
{
origin = "{2, 6}";
type = Corner;
name = _corner.serfRight;
},
{
origin = "{1, 7}";
type = Corner;
name = _corner.serfRight;
},
{
origin = "{0, 6}";
type = Corner;
name = _corner.serfRight;
},
{
origin = "{3, 0}";
type = Corner;
name = _corner.serfRight;
},
{
origin = "{3, 3}";
type = Corner;
name = _corner.serfLeft;
options = 1;
},
{
origin = "{3, 1}";
type = Corner;
name = _corner.serfLeft;
options = 1;
},
{
origin = "{2, 3}";
type = Corner;
name = _corner.serfLeft;
options = 1;
},
{
origin = "{2, 7}";
type = Corner;
name = _corner.serfLeft;
options = 1;
},
{
origin = "{0, 7}";
type = Corner;
name = _corner.serfLeft;
options = 1;
},
{
origin = "{1, 0}";
type = Corner;
name = _corner.serfLeft;
options = 1;
}
);
layerId = "D36B0F94-A848-4C2C-9ADF-F92FCBE7F4F5";
paths = (
{
closed = 1;
nodes = (
"466 31 OFFCURVE",
"640 162 OFFCURVE",
"770 482 CURVE",
"639 506 LINE",
"523 235 OFFCURVE",
"373 127 OFFCURVE",
"47 28 CURVE",
"101 -82 LINE"
);
},
{
closed = 1;
nodes = (
"914 31 LINE",
"738 178 OFFCURVE",
"557 284 OFFCURVE",
"361 354 CURVE",
"319 249 LINE",
"507 178 OFFCURVE",
"669 70 OFFCURVE",
"826 -79 CURVE"
);
},
{
closed = 1;
nodes = (
"416 413 OFFCURVE",
"489 601 OFFCURVE",
"552 776 CURVE",
"419 820 LINE",
"358 631 OFFCURVE",
"294 449 OFFCURVE",
"206 231 CURVE",
"328 189 LINE"
);
},
{
closed = 1;
nodes = (
"948 467 LINE",
"948 588 LINE",
"50 588 LINE",
"50 467 LINE"
);
}
);
width = 1000;
}
);
unicode = 5973;
},
{
glyphname = uni597D;
lastChange = "2019-01-30 20:38:55 +0000";
layers = (
{
hints = (
{
origin = "{4, 2}";
type = Corner;
name = _corner.serfRight;
},
{
origin = "{3, 2}";
type = Corner;
name = _corner.serfRight;
},
{
origin = "{3, 6}";
type = Corner;
name = _corner.serfRight;
},
{
origin = "{0, 6}";
type = Corner;
name = _corner.serfRight;
},
{
origin = "{1, 7}";
type = Corner;
name = _corner.serfRight;
},
{
origin = "{0, 2}";
type = Corner;
name = _corner.serfRight;
},
{
origin = "{7, 2}";
type = Corner;
name = _corner.serfRight;
},
{
origin = "{8, 2}";
type = Corner;
name = _corner.serfRight;
},
{
origin = "{2, 2}";
type = Corner;
name = _corner.serfRight;
},
{
origin = "{6, 2}";
type = Corner;
name = _corner.serfRight;
},
{
origin = "{6, 0}";
type = Corner;
name = _corner.serfRight;
},
{
origin = "{5, 2}";
type = Corner;
name = _corner.serfLeft;
options = 1;
},
{
origin = "{8, 3}";
type = Corner;
name = _corner.serfLeft;
options = 1;
},
{
origin = "{6, 3}";
type = Corner;
name = _corner.serfLeft;
options = 1;
},
{
origin = "{6, 1}";
type = Corner;
name = _corner.serfLeft;
options = 1;
},
{
origin = "{2, 3}";
type = Corner;
name = _corner.serfLeft;
options = 1;
},
{
origin = "{1, 0}";
type = Corner;
name = _corner.serfLeft;
options = 1;
},
{
origin = "{0, 7}";
type = Corner;
name = _corner.serfLeft;
options = 1;
},
{
origin = "{3, 7}";
type = Corner;
name = _corner.serfLeft;
options = 1;
},
{
origin = "{3, 3}";
type = Corner;
name = _corner.serfLeft;
options = 1;
},
{
origin = "{4, 3}";
type = Corner;
name = _corner.serfLeft;
options = 1;
},
{
origin = "{5, 0}";
type = Corner;
name = _corner.serfLeft;
options = 1;
},
{
origin = "{7, 3}";
type = Corner;
name = _corner.serfLeft;
options = 1;
}
);
layerId = "D36B0F94-A848-4C2C-9ADF-F92FCBE7F4F5";
paths = (
{
closed = 1;
nodes = (
"276 69 OFFCURVE",
"407 210 OFFCURVE",
"423 618 CURVE",
"313 618 LINE",
"315 308 OFFCURVE",
"207 133 OFFCURVE",
"21 14 CURVE",
"90 -70 LINE"
);
},
{
closed = 1;
nodes = (
"487 147 LINE",
"389 247 OFFCURVE",
"257 322 OFFCURVE",
"193 348 CURVE",
"151 266 LINE",
"224 232 OFFCURVE",
"317 168 OFFCURVE",
"415 70 CURVE"
);
},
{
closed = 1;
nodes = (
"735 -49 LINE",
"735 48 LINE",
"533 48 LINE",
"533 -49 LINE"
);
},
{
closed = 1;
nodes = (
"217 351 OFFCURVE",
"290 675 OFFCURVE",
"318 814 CURVE",
"213 832 LINE",
"186 699 OFFCURVE",
"114 377 OFFCURVE",
"74 217 CURVE",
"177 194 LINE"
);
},
{
closed = 1;
nodes = (
"400 510 LINE",
"400 618 LINE",
"52 618 LINE",
"52 510 LINE"
);
},
{
closed = 1;
nodes = (
"742 -49 LINE",
"742 556 LINE",
"631 556 LINE",
"631 -49 LINE"
);
},
{
closed = 1;
nodes = (
"963 315 LINE",
"963 422 LINE",
"430 422 LINE",
"430 315 LINE"
);
},
{
closed = 1;
nodes = (
"785 654 LINE",
"785 756 LINE",
"465 756 LINE",
"465 654 LINE"
);
},
{
closed = 1;
nodes = (
"771 545 OFFCURVE",
"833 643 OFFCURVE",
"885 725 CURVE",
"783 787 LINE",
"734 685 OFFCURVE",
"683 587 OFFCURVE",
"642 513 CURVE",
"723 466 LINE"
);
}
);
width = 1000;
}
);
unicode = 597D;
},
{
glyphname = uni59B9;
lastChange = "2019-01-30 20:38:11 +0000";
layers = (
{
hints = (
{
origin = "{8, 1}";
type = Corner;
name = _corner.serfLeft;
options = 1;
},
{
origin = "{7, 1}";
type = Corner;
name = _corner.serfLeft;
options = 1;
},
{
origin = "{8, 3}";
type = Corner;
name = _corner.serfLeft;
options = 1;
},
{
origin = "{4, 3}";
type = Corner;
name = _corner.serfLeft;
options = 1;
},
{
origin = "{7, 3}";
type = Corner;
name = _corner.serfLeft;
options = 1;
},
{
origin = "{5, 2}";
type = Corner;
name = _corner.serfLeft;
options = 1;
},
{
origin = "{3, 3}";
type = Corner;
name = _corner.serfLeft;
options = 1;
},
{
origin = "{3, 7}";
type = Corner;
name = _corner.serfLeft;
options = 1;
},
{
origin = "{0, 7}";
type = Corner;
name = _corner.serfLeft;
options = 1;
},
{
origin = "{2, 7}";
type = Corner;
name = _corner.serfLeft;
options = 1;
},
{
origin = "{5, 0}";
type = Corner;
name = _corner.serfLeft;
options = 1;
},
{
origin = "{6, 0}";
type = Corner;
name = _corner.serfLeft;
options = 1;
},
{
origin = "{8, 0}";
type = Corner;
name = _corner.serfRight;
},
{
origin = "{5, 1}";
type = Corner;
name = _corner.serfRight;
},
{
origin = "{7, 0}";
type = Corner;
name = _corner.serfRight;
},
{
origin = "{6, 7}";
type = Corner;
name = _corner.serfRight;
},
{
origin = "{5, 3}";
type = Corner;
name = _corner.serfRight;
},
{
origin = "{2, 6}";
type = Corner;
name = _corner.serfRight;
},
{
origin = "{0, 6}";
type = Corner;
name = _corner.serfRight;
},
{
origin = "{3, 6}";
type = Corner;
name = _corner.serfRight;
},
{
origin = "{1, 7}";
type = Corner;
name = _corner.serfRight;
},
{
origin = "{4, 2}";
type = Corner;
name = _corner.serfRight;
},
{
origin = "{3, 2}";
type = Corner;
name = _corner.serfRight;
},
{
origin = "{7, 2}";
type = Corner;
name = _corner.serfRight;
},
{
origin = "{8, 2}";
type = Corner;
name = _corner.serfRight;
},
{
origin = "{1, 0}";
type = Corner;
name = _corner.serfLeft;
options = 1;
},
{
origin = "{0, 2}";
type = Corner;
name = _corner.serfRight;
}
);
layerId = "D36B0F94-A848-4C2C-9ADF-F92FCBE7F4F5";
paths = (
{
closed = 1;
nodes = (
"319 97 OFFCURVE",
"400 284 OFFCURVE",
"403 628 CURVE",
"305 628 LINE",
"295 323 OFFCURVE",
"256 169 OFFCURVE",
"27 15 CURVE",
"101 -67 LINE"
);
},
{
closed = 1;
nodes = (
"444 237 LINE",
"352 290 OFFCURVE",
"292 318 OFFCURVE",
"190 350 CURVE",
"155 258 LINE",
"243 236 OFFCURVE",
"306 201 OFFCURVE",
"379 144 CURVE"
);
},
{
closed = 1;
nodes = (
"530 114 OFFCURVE",
"589 192 OFFCURVE",
"678 335 CURVE",
"623 417 LINE",
"518 251 OFFCURVE",
"463 186 OFFCURVE",
"324 72 CURVE",
"397 -12 LINE"
);
},
{
closed = 1;
nodes = (
"239 447 OFFCURVE",
"275 632 OFFCURVE",
"306 814 CURVE",
"199 829 LINE",
"168 643 OFFCURVE",
"137 475 OFFCURVE",
"86 216 CURVE",
"183 196 LINE"
);
},
{
closed = 1;
nodes = (
"363 520 LINE",
"363 628 LINE",
"67 628 LINE",
"67 520 LINE"
);
},
{
closed = 1;
nodes = (
"718 -62 LINE",
"718 822 LINE",
"612 822 LINE",
"612 -62 LINE"
);
},
{
closed = 1;
nodes = (
"969 72 LINE",
"845 179 OFFCURVE",
"781 266 OFFCURVE",
"703 396 CURVE",
"649 341 LINE",
"711 217 OFFCURVE",
"776 112 OFFCURVE",
"890 -4 CURVE"
);
},
{
closed = 1;
nodes = (
"914 365 LINE",
"914 473 LINE",
"432 473 LINE",
"432 365 LINE"
);
},
{
closed = 1;
nodes = (
"856 552 LINE",
"856 657 LINE",
"465 657 LINE",
"465 552 LINE"
);
}
);
width = 1000;
}
);
unicode = 59B9;
},
{
glyphname = uni59EB;
lastChange = "2019-01-30 20:38:30 +0000";
layers = (
{
background = {
paths = (
{
closed = 1;
nodes = (
"290 97 OFFCURVE",
"422 341 OFFCURVE",
"414 582 CURVE",
"324 538 LINE",
"317 360 OFFCURVE",
"230 161 OFFCURVE",
"44 14 CURVE",
"108 -55 LINE"
);
},
{
closed = 1;
nodes = (
"435 170 LINE",
"392 213 OFFCURVE",
"253 302 OFFCURVE",
"191 324 CURVE",
"146 247 LINE",
"208 221 OFFCURVE",
"268 187 OFFCURVE",
"379 97 CURVE"
);
},
{
closed = 1;
nodes = (
"208 339 OFFCURVE",
"300 747 OFFCURVE",
"311 805 CURVE",
"213 835 LINE",
"198 751 OFFCURVE",
"129 309 OFFCURVE",
"84 198 CURVE",
"172 187 LINE"
);
},
{
closed = 1;
nodes = (
"402 500 LINE",
"402 580 LINE",
"64 580 LINE",
"64 500 LINE"
);
}
);
};
hints = (
{
origin = "{8, 2}";
type = Corner;
name = _corner.serfRight;
},
{
origin = "{8, 6}";
type = Corner;
name = _corner.serfRight;
},
{
origin = "{8, 7}";
type = Corner;
name = _corner.serfLeft;
options = 1;
},
{
origin = "{9, 0}";
type = Corner;
name = _corner.serfLeft;
options = 1;
},
{
origin = "{9, 7}";
type = Corner;
name = _corner.serfRight;
},
{
origin = "{10, 2}";
type = Corner;
name = _corner.serfRight;
},
{
origin = "{10, 3}";
type = Corner;
name = _corner.serfLeft;
options = 1;
},
{
origin = "{10, 6}";
type = Corner;
name = _corner.serfRight;
},
{
origin = "{10, 7}";
type = Corner;
name = _corner.serfLeft;
options = 1;
},
{
origin = "{11, 2}";
type = Corner;
name = _corner.serfRight;
},
{
origin = "{11, 3}";
type = Corner;
name = _corner.serfLeft;
options = 1;
},
{
origin = "{7, 1}";
type = Corner;
name = _corner.serfLeft;
options = 1;
},
{
origin = "{0, 1}";
type = Corner;
name = _corner.serfLeft;
options = 1;
},
{
origin = "{1, 0}";
type = Corner;
name = _corner.serfLeft;
options = 1;
},
{
origin = "{1, 2}";
type = Corner;
name = _corner.serfLeft;
options = 1;
},
{
origin = "{7, 0}";
type = Corner;
name = _corner.serfRight;
},
{
origin = "{5, 1}";
type = Corner;
name = _corner.serfRight;
},
{
origin = "{5, 3}";
type = Corner;
name = _corner.serfRight;
},
{
origin = "{0, 0}";
type = Corner;
name = _corner.serfRight;
},
{
origin = "{1, 3}";
type = Corner;
name = _corner.serfRight;
},
{
origin = "{5, 0}";
type = Corner;
name = _corner.serfLeft;
options = 1;
}
);
layerId = "D36B0F94-A848-4C2C-9ADF-F92FCBE7F4F5";
paths = (
{
closed = 1;
nodes = (
"965 -17 LINE",
"965 81 LINE",
"478 81 LINE",
"478 -17 LINE"
);
},
{
closed = 1;
nodes = (
"572 -69 LINE",
"572 767 LINE",
"468 767 LINE",
"468 -69 LINE"
);
},
{
closed = 1;
nodes = (
"771 35 LINE",
"771 281 LINE",
"671 281 LINE",
"671 35 LINE"
);
},
{
closed = 1;
nodes = (
"873 230 LINE",
"873 327 LINE",
"478 327 LINE",
"478 230 LINE"
);
},
{
closed = 1;
nodes = (
"873 445 LINE",
"873 541 LINE",
"478 541 LINE",
"478 445 LINE"
);
},
{
closed = 1;
nodes = (
"894 230 LINE",
"894 541 LINE",
"799 541 LINE",
"799 230 LINE"
);
},
{
closed = 1;
nodes = (
"771 512 LINE",
"771 767 LINE",
"671 767 LINE",
"671 512 LINE"
);
},
{
closed = 1;
nodes = (
"926 670 LINE",
"926 767 LINE",
"475 767 LINE",
"475 670 LINE"
);
},
{
closed = 1;
nodes = (
"276 69 OFFCURVE",
"407 210 OFFCURVE",
"423 617 CURVE",
"313 617 LINE",
"315 308 OFFCURVE",
"207 133 OFFCURVE",
"21 14 CURVE",
"90 -70 LINE"
);
},
{
closed = 1;
nodes = (
"446 178 LINE",
"362 258 OFFCURVE",
"272 313 OFFCURVE",
"191 344 CURVE",
"150 261 LINE",
"224 229 OFFCURVE",
"300 173 OFFCURVE",
"376 100 CURVE"
);
},
{
closed = 1;
nodes = (
"231 417 OFFCURVE",
"290 675 OFFCURVE",
"318 814 CURVE",
"213 832 LINE",
"186 699 OFFCURVE",
"126 433 OFFCURVE",
"74 217 CURVE",
"177 194 LINE"
);
},
{
closed = 1;
nodes = (
"400 510 LINE",
"400 617 LINE",
"52 617 LINE",
"52 510 LINE"
);
}
);
width = 1000;
}
);
unicode = 59EB;
},
{
glyphname = uni5B50;
lastChange = "2019-01-30 20:35:06 +0000";
layers = (
{
hints = (
{
origin = "{4, 2}";
type = Corner;
name = _corner.serfRight;
},
{
origin = "{0, 2}";
type = Corner;
name = _corner.serfRight;
},
{
origin = "{3, 0}";
type = Corner;
name = _corner.serfRight;
},
{
origin = "{3, 2}";
type = Corner;
name = _corner.serfRight;
},
{
origin = "{1, 2}";
type = Corner;
name = _corner.serfRight;
},
{
origin = "{4, 3}";
type = Corner;
name = _corner.serfLeft;
},
{
origin = "{0, 3}";
type = Corner;
name = _corner.serfLeft;
},
{
origin = "{2, 2}";
type = Corner;
name = _corner.serfLeft;
},
{
origin = "{2, 0}";
type = Corner;
name = _corner.serfLeft;
},
{
origin = "{1, 3}";
type = Corner;
name = _corner.serfLeft;
},
{
origin = "{3, 3}";
type = Corner;
name = _corner.serfLeft;
},
{
origin = "{3, 1}";
type = Corner;
name = _corner.serfLeft;
}
);
layerId = "D36B0F94-A848-4C2C-9ADF-F92FCBE7F4F5";
paths = (
{
closed = 1;
nodes = (
"636 545 OFFCURVE",
"747 629 OFFCURVE",
"833 714 CURVE",
"736 797 LINE",
"665 717 OFFCURVE",
"570 625 OFFCURVE",
"485 563 CURVE",
"546 482 LINE"
);
},
{
closed = 1;
nodes = (
"555 -68 LINE",
"555 39 LINE",
"312 39 LINE",
"312 -68 LINE"
);
},
{
closed = 1;
nodes = (
"555 -68 LINE",
"555 570 LINE",
"432 570 LINE",
"432 -68 LINE"
);
},
{
closed = 1;
nodes = (
"952 318 LINE",
"952 438 LINE",
"48 438 LINE",
"48 318 LINE"
);
},
{
closed = 1;
nodes = (
"736 660 LINE",
"736 771 LINE",
"207 771 LINE",
"207 660 LINE"
);
}
);
width = 1000;
}
);
unicode = 5B50;
},
